<svg width="466" height="1252" viewBox="0 0 466 1252" fill="none" xmlns="http://www.w3.org/2000/svg">
<g opacity="0.8">
<g opacity="0.8">
<path d="M239.658 936.639C238.073 934.39 235.608 933.196 233.288 933.818C230.101 934.672 228.391 938.628 229.47 942.654L229.476 942.676C214.864 947.203 204.25 960.824 204.25 976.924C204.25 996.722 220.3 1012.77 240.098 1012.77C259.896 1012.77 275.946 996.722 275.946 976.924C275.946 960.925 265.465 947.374 250.994 942.762C252.152 938.396 250.295 934.112 246.838 933.186C244.186 932.475 241.362 933.947 239.658 936.639Z" fill="#515155"/>
<path fill-rule="evenodd" clip-rule="evenodd" d="M229.267 949.989C229.267 949.564 229.611 949.22 230.036 949.22C230.46 949.22 230.805 949.564 230.805 949.989C230.805 951.239 231.253 952.065 231.771 952.586C232.623 951.74 233.65 951.246 234.754 951.246C237.706 951.246 240.1 954.774 240.1 959.124C240.1 961.136 239.588 962.971 238.746 964.364C236.673 964.55 234.792 965.248 233.351 966.305C233.234 966.391 233.119 966.48 233.007 966.572C230.912 965.505 229.408 962.574 229.408 959.124C229.408 958.149 229.529 957.215 229.749 956.352C229.39 956.274 228.998 956.132 228.623 955.866C227.867 955.33 227.32 954.399 227.059 952.914C226.985 952.496 227.264 952.097 227.682 952.023C228.101 951.95 228.499 952.229 228.573 952.647C228.792 953.888 229.196 954.388 229.513 954.612C229.733 954.768 229.975 954.842 230.25 954.88C230.417 954.495 230.607 954.133 230.816 953.797C229.978 953.028 229.267 951.803 229.267 949.989ZM238.974 959.124C238.974 961.921 237.336 964.189 235.316 964.189C233.296 964.189 231.659 961.921 231.659 959.124C231.659 956.327 233.296 954.06 235.316 954.06C237.336 954.06 238.974 956.327 238.974 959.124Z" fill="#3F3F43"/>
<path fill-rule="evenodd" clip-rule="evenodd" d="M246.376 966.305C246.553 966.435 246.724 966.571 246.888 966.712C249.14 965.785 250.792 962.739 250.792 959.124C250.792 958.177 250.678 957.268 250.47 956.427C251.765 956.244 253.869 955.205 254.382 952.286C254.455 951.868 254.176 951.469 253.758 951.395C253.339 951.321 252.941 951.6 252.867 952.018C252.464 954.314 250.788 954.888 250.104 954.918C250.06 954.92 250.016 954.926 249.974 954.935C249.856 954.659 249.727 954.394 249.587 954.142C250.59 953.415 251.552 952.102 251.552 949.989C251.552 949.564 251.208 949.22 250.783 949.22C250.359 949.22 250.014 949.564 250.014 949.989C250.014 951.511 249.353 952.405 248.708 952.883C247.806 951.857 246.674 951.246 245.446 951.246C242.494 951.246 240.1 954.774 240.1 959.124C240.1 961.163 240.626 963.021 241.488 964.42C243.361 964.666 245.054 965.334 246.376 966.305ZM247.976 959.124C247.976 961.921 246.465 964.189 244.6 964.189C242.735 964.189 241.224 961.921 241.224 959.124C241.224 956.327 242.735 954.06 244.6 954.06C246.465 954.06 247.976 956.327 247.976 959.124Z" fill="#3F3F43"/>
<path d="M234.261 967.545C232.959 968.5 232.185 969.74 232.078 971.056C232.794 971.325 233.596 971.06 234.809 970.463C234.964 970.386 235.125 970.305 235.291 970.22L235.292 970.22C236.522 969.597 238.054 968.821 239.783 968.821C241.433 968.821 242.741 969.535 243.836 970.132C244.053 970.25 244.262 970.365 244.464 970.467C245.103 970.793 245.698 971.038 246.346 971.126C246.737 971.18 247.166 971.177 247.65 971.084C247.552 969.757 246.777 968.507 245.466 967.545C244.061 966.513 242.083 965.852 239.864 965.852C237.645 965.852 235.666 966.513 234.261 967.545Z" fill="#3F3F43"/>
<path d="M234.259 975.199C233.29 974.488 232.614 973.619 232.288 972.679C233.429 972.809 234.535 972.311 235.488 971.842C235.661 971.757 235.831 971.672 236 971.587L236.001 971.586L236.167 971.503L238.447 972.333C239.31 972.647 240.257 972.647 241.121 972.333L243.241 971.562C243.41 971.653 243.584 971.745 243.765 971.837C244.46 972.192 245.237 972.528 246.139 972.65C246.554 972.707 246.986 972.716 247.44 972.669C247.114 973.613 246.436 974.485 245.464 975.199C244.058 976.231 242.08 976.892 239.861 976.892C237.642 976.892 235.664 976.231 234.259 975.199Z" fill="#3F3F43"/>
<path fill-rule="evenodd" clip-rule="evenodd" d="M397.041 1208.87C398.086 1202.55 391.711 1196.1 382.378 1193.44C387.483 1187.84 389.031 1181.17 385.608 1176.76C382.302 1172.51 375.327 1171.58 368.183 1173.9C366.194 1168.79 362.257 1165.01 357.237 1164.18C351.277 1163.18 345.444 1166.59 341.933 1172.37C336.718 1170.29 331.195 1170.37 327.042 1173.1C321.974 1176.43 320.299 1182.79 322.065 1189.3C316.952 1191.41 313.237 1195.36 312.418 1200.34C311.258 1207.4 316.219 1214.37 324.113 1217.77C321.472 1222.01 320.943 1226.26 323.198 1229.17C326.003 1232.79 332.313 1233.34 339.064 1231.08C341.131 1237.21 346.112 1241.95 352.536 1243.02C360.261 1244.32 367.705 1239.95 371.204 1232.75C375.746 1235.21 380.24 1235.77 383.252 1233.78C387.206 1231.18 387.528 1224.97 384.585 1218.36C391.253 1217.23 396.218 1213.73 397.018 1208.86L397.041 1208.87Z" fill="#515155"/>
<path fill-rule="evenodd" clip-rule="evenodd" d="M365.145 1191.41C365.145 1195.02 363.493 1198.07 361.241 1198.99C361.077 1198.85 360.906 1198.72 360.729 1198.59C359.407 1197.62 357.714 1196.95 355.842 1196.7C354.979 1195.3 354.454 1193.44 354.454 1191.41C354.454 1187.06 356.847 1183.53 359.8 1183.53C362.752 1183.53 365.145 1187.06 365.145 1191.41ZM362.33 1191.41C362.33 1194.2 360.818 1196.47 358.954 1196.47C357.089 1196.47 355.577 1194.2 355.577 1191.41C355.577 1188.61 357.089 1186.34 358.954 1186.34C360.818 1186.34 362.33 1188.61 362.33 1191.41Z" fill="#3F3F43"/>
<path fill-rule="evenodd" clip-rule="evenodd" d="M343.762 1191.41C343.762 1194.86 345.265 1197.79 347.359 1198.85C347.471 1198.76 347.586 1198.67 347.704 1198.59C349.145 1197.53 351.026 1196.83 353.1 1196.65C353.942 1195.25 354.453 1193.42 354.453 1191.41C354.453 1187.06 352.06 1183.53 349.107 1183.53C346.155 1183.53 343.762 1187.06 343.762 1191.41ZM353.328 1191.41C353.328 1194.2 351.69 1196.47 349.67 1196.47C347.65 1196.47 346.012 1194.2 346.012 1191.41C346.012 1188.61 347.65 1186.34 349.67 1186.34C351.69 1186.34 353.328 1188.61 353.328 1191.41Z" fill="#3F3F43"/>
<path d="M348.614 1199.83C347.311 1200.78 346.538 1202.02 346.43 1203.34C347.146 1203.61 347.948 1203.34 349.161 1202.74C349.317 1202.67 349.478 1202.59 349.644 1202.5C350.875 1201.88 352.406 1201.1 354.136 1201.1C355.786 1201.1 357.093 1201.82 358.188 1202.41L358.188 1202.41L358.189 1202.41C358.406 1202.53 358.615 1202.65 358.817 1202.75C359.455 1203.08 360.051 1203.32 360.698 1203.41C361.09 1203.46 361.518 1203.46 362.002 1203.37C361.904 1202.04 361.13 1200.79 359.819 1199.83C358.414 1198.79 356.436 1198.13 354.217 1198.13C351.998 1198.13 350.019 1198.79 348.614 1199.83Z" fill="#3F3F43"/>
<path d="M348.611 1207.48C347.643 1206.77 346.966 1205.9 346.64 1204.96C347.782 1205.09 348.888 1204.59 349.841 1204.12C350.013 1204.04 350.184 1203.95 350.353 1203.87L350.354 1203.87L350.52 1203.78L352.803 1204.61C353.667 1204.93 354.614 1204.93 355.478 1204.61L357.595 1203.84C357.764 1203.94 357.937 1204.03 358.118 1204.12C358.813 1204.47 359.59 1204.81 360.491 1204.93C360.907 1204.99 361.338 1205 361.792 1204.95C361.467 1205.89 360.789 1206.77 359.816 1207.48C358.411 1208.51 356.432 1209.17 354.213 1209.17C351.994 1209.17 350.016 1208.51 348.611 1207.48Z" fill="#3F3F43"/>
<path fill-rule="evenodd" clip-rule="evenodd" d="M102.041 1216.87C103.086 1210.55 96.7113 1204.1 87.3782 1201.44C92.483 1195.84 94.031 1189.17 90.6078 1184.76C87.3021 1180.51 80.3271 1179.58 73.1834 1181.9C71.194 1176.79 67.2571 1173.01 62.2373 1172.18C56.2772 1171.18 50.4444 1174.59 46.9325 1180.37C41.7177 1178.29 36.195 1178.37 32.0415 1181.1C26.9739 1184.43 25.2994 1190.79 27.0652 1197.3C21.9516 1199.41 18.2372 1203.36 17.4177 1208.34C16.2577 1215.4 21.2188 1222.37 29.1125 1225.77C26.4717 1230.01 25.9434 1234.26 28.1984 1237.17C31.0028 1240.79 37.3132 1241.34 44.0636 1239.08C46.1309 1245.21 51.1115 1249.95 57.5363 1251.02C65.2613 1252.32 72.7048 1247.95 76.2041 1240.75C80.7457 1243.21 85.24 1243.77 88.2522 1241.78C92.2061 1239.18 92.5283 1232.97 89.5854 1226.36C96.2525 1225.23 101.218 1221.73 102.018 1216.86L102.041 1216.87Z" fill="#515155"/>
<path fill-rule="evenodd" clip-rule="evenodd" d="M70.1454 1199.41C70.1454 1203.02 68.4934 1206.07 66.2413 1206.99C66.0772 1206.85 65.9062 1206.72 65.729 1206.59C64.4071 1205.62 62.7143 1204.95 60.8415 1204.7C59.9793 1203.3 59.4539 1201.44 59.4539 1199.41C59.4539 1195.06 61.8473 1191.53 64.7996 1191.53C67.752 1191.53 70.1454 1195.06 70.1454 1199.41ZM67.33 1199.41C67.33 1202.2 65.8184 1204.47 63.9537 1204.47C62.089 1204.47 60.5774 1202.2 60.5774 1199.41C60.5774 1196.61 62.089 1194.34 63.9537 1194.34C65.8184 1194.34 67.33 1196.61 67.33 1199.41Z" fill="#3F3F43"/>
<path fill-rule="evenodd" clip-rule="evenodd" d="M48.7617 1199.41C48.7617 1202.86 50.2654 1205.79 52.3594 1206.85C52.4714 1206.76 52.5863 1206.67 52.704 1206.59C54.1449 1205.53 56.0259 1204.83 58.0999 1204.65C58.9417 1203.25 59.4532 1201.42 59.4532 1199.41C59.4532 1195.06 57.0598 1191.53 54.1075 1191.53C51.1551 1191.53 48.7617 1195.06 48.7617 1199.41ZM58.3275 1199.41C58.3275 1202.2 56.69 1204.47 54.6699 1204.47C52.6499 1204.47 51.0123 1202.2 51.0123 1199.41C51.0123 1196.61 52.6499 1194.34 54.6699 1194.34C56.69 1194.34 58.3275 1196.61 58.3275 1199.41Z" fill="#3F3F43"/>
<path d="M53.6137 1207.83C52.3115 1208.78 51.5376 1210.02 51.4302 1211.34C52.1463 1211.61 52.9482 1211.34 54.1615 1210.74C54.3167 1210.67 54.4777 1210.59 54.6442 1210.5C55.8748 1209.88 57.4064 1209.1 59.1359 1209.1C60.7859 1209.1 62.0933 1209.82 63.1881 1210.41L63.1884 1210.41L63.1887 1210.41C63.4061 1210.53 63.6151 1210.65 63.8167 1210.75C64.4553 1211.08 65.0506 1211.32 65.6983 1211.41C66.09 1211.46 66.5182 1211.46 67.0021 1211.37C66.9044 1210.04 66.1295 1208.79 64.8186 1207.83C63.4138 1206.79 61.4357 1206.13 59.2166 1206.13C56.9975 1206.13 55.0191 1206.79 53.6137 1207.83Z" fill="#3F3F43"/>
<path d="M53.6114 1215.48C52.6425 1214.77 51.9665 1213.9 51.6402 1212.96C52.782 1213.09 53.888 1212.59 54.8408 1212.12C55.0134 1212.04 55.184 1211.95 55.3532 1211.87L55.3536 1211.87L55.5205 1211.78L57.8027 1212.61C58.6666 1212.93 59.6136 1212.93 60.4775 1212.61L62.5948 1211.84C62.7637 1211.94 62.9374 1212.03 63.1176 1212.12C63.8129 1212.47 64.5897 1212.81 65.4915 1212.93C65.9066 1212.99 66.3384 1213 66.7925 1212.95C66.4669 1213.89 65.789 1214.77 64.8163 1215.48C63.4109 1216.51 61.4325 1217.17 59.2134 1217.17C56.9943 1217.17 55.0162 1216.51 53.6114 1215.48Z" fill="#3F3F43"/>
<path fill-rule="evenodd" clip-rule="evenodd" d="M84.7911 971.694C85.8359 965.381 79.4613 958.93 70.1282 956.263C75.233 950.669 76.781 943.998 73.3578 939.59C70.0521 935.334 63.0771 934.405 55.9334 936.729C53.944 931.617 50.0071 927.842 44.9873 927.007C39.0272 926.011 33.1944 929.413 29.6825 935.195C24.4677 933.113 18.945 933.202 14.7915 935.929C9.72388 939.257 8.04943 945.618 9.81525 952.123C4.7016 954.241 0.987171 958.185 0.167687 963.166C-0.992296 970.228 3.96876 977.195 11.8625 980.601C9.22173 984.837 8.69336 989.086 10.9484 991.996C13.7528 995.614 20.0632 996.164 26.8136 993.905C28.8809 1000.04 33.8615 1004.78 40.2863 1005.85C48.0113 1007.15 55.4548 1002.77 58.9541 995.582C63.4957 998.042 67.99 998.594 71.0022 996.609C74.9561 994.004 75.2783 987.796 72.3354 981.187C79.0025 980.055 83.9682 976.553 84.7678 971.689L84.7911 971.694Z" fill="#515155"/>
<path fill-rule="evenodd" clip-rule="evenodd" d="M52.8954 954.233C52.8954 957.848 51.2434 960.894 48.9913 961.822C48.8272 961.68 48.6562 961.544 48.479 961.414C47.1571 960.443 45.4643 959.776 43.5915 959.529C42.7293 958.13 42.2039 956.272 42.2039 954.233C42.2039 949.883 44.5973 946.355 47.5496 946.355C50.502 946.355 52.8954 949.883 52.8954 954.233ZM50.08 954.233C50.08 957.03 48.5684 959.298 46.7037 959.298C44.839 959.298 43.3274 957.03 43.3274 954.233C43.3274 951.436 44.839 949.169 46.7037 949.169C48.5684 949.169 50.08 951.436 50.08 954.233Z" fill="#3F3F43"/>
<path fill-rule="evenodd" clip-rule="evenodd" d="M31.5117 954.234C31.5117 957.682 33.0154 960.613 35.1094 961.681C35.2214 961.589 35.3363 961.5 35.454 961.414C36.8949 960.356 38.7759 959.658 40.8499 959.472C41.6917 958.08 42.2032 956.245 42.2032 954.234C42.2032 949.883 39.8098 946.356 36.8575 946.356C33.9051 946.356 31.5117 949.883 31.5117 954.234ZM41.0775 954.233C41.0775 957.03 39.44 959.298 37.4199 959.298C35.3999 959.298 33.7623 957.03 33.7623 954.233C33.7623 951.436 35.3999 949.169 37.4199 949.169C39.44 949.169 41.0775 951.436 41.0775 954.233Z" fill="#3F3F43"/>
<path d="M36.3637 962.653C35.0615 963.609 34.2876 964.848 34.1802 966.165C34.8963 966.433 35.6982 966.169 36.9115 965.571C37.0667 965.495 37.2277 965.413 37.3942 965.329C38.6248 964.706 40.1564 963.93 41.8859 963.93C43.5359 963.93 44.8433 964.643 45.9381 965.241L45.9384 965.241L45.9387 965.241C46.1561 965.359 46.3651 965.473 46.5667 965.576C47.2053 965.902 47.8006 966.147 48.4483 966.235C48.84 966.288 49.2682 966.286 49.7521 966.193C49.6544 964.866 48.8795 963.616 47.5686 962.653C46.1638 961.622 44.1857 960.961 41.9666 960.961C39.7475 960.961 37.7691 961.622 36.3637 962.653Z" fill="#3F3F43"/>
<path d="M36.3614 970.308C35.3925 969.597 34.7165 968.728 34.3902 967.788C35.532 967.918 36.638 967.42 37.5908 966.951C37.7634 966.866 37.934 966.78 38.1032 966.696L38.1036 966.695L38.2705 966.612L40.5527 967.442C41.4166 967.756 42.3636 967.756 43.2275 967.442L45.3448 966.672C45.5137 966.762 45.6874 966.854 45.8676 966.946C46.5629 967.301 47.3397 967.637 48.2415 967.759C48.6566 967.815 49.0884 967.825 49.5425 967.778C49.2169 968.722 48.539 969.594 47.5663 970.308C46.1609 971.34 44.1825 972.001 41.9634 972.001C39.7443 972.001 37.7662 971.34 36.3614 970.308Z" fill="#3F3F43"/>
<path d="M120.904 1145.7C133.595 1145.7 144.746 1139.11 151.116 1129.16C158.419 1125.79 162.861 1116.95 161.262 1108.14C160.373 1103.24 157.785 1099.29 154.324 1096.86C149.12 1083.49 136.119 1074.01 120.904 1074.01C106.001 1074.01 93.2213 1083.1 87.8132 1096.04C83.7062 1098.34 80.5726 1102.65 79.5753 1108.14C77.8818 1117.47 82.9627 1126.84 91.0421 1129.7C97.466 1139.35 108.442 1145.7 120.904 1145.7Z" fill="#515155"/>
<path fill-rule="evenodd" clip-rule="evenodd" d="M120.379 1096.35C120.379 1098.36 119.868 1100.2 119.026 1101.59C116.953 1101.77 115.073 1102.47 113.633 1103.53C113.515 1103.62 113.399 1103.71 113.287 1103.8C111.192 1102.73 109.688 1099.8 109.688 1096.35C109.688 1092 112.081 1088.47 115.033 1088.47C117.986 1088.47 120.379 1092 120.379 1096.35ZM112.57 1093.5H118.621C119.02 1094.31 119.253 1095.29 119.253 1096.35C119.253 1099.15 117.616 1101.41 115.596 1101.41C113.576 1101.41 111.938 1099.15 111.938 1096.35C111.938 1095.29 112.171 1094.31 112.57 1093.5Z" fill="#3F3F43"/>
<path d="M115.436 1104.21C116.018 1103.89 116.666 1103.63 117.365 1103.44C117.365 1103.44 117.365 1103.44 117.365 1103.44C118.225 1103.21 119.162 1103.08 120.146 1103.08C121.537 1103.08 122.833 1103.34 123.953 1103.78C123.952 1103.78 123.952 1103.78 123.952 1103.78C124.126 1103.85 124.296 1103.93 124.461 1104.01C124.461 1104.01 124.461 1104.01 124.46 1104.01C124.928 1104.23 125.36 1104.48 125.748 1104.77C127.059 1105.73 127.833 1106.98 127.931 1108.31C127.447 1108.4 127.019 1108.4 126.627 1108.35C125.98 1108.26 125.384 1108.02 124.746 1107.69C124.544 1107.59 124.335 1107.48 124.117 1107.36L124.117 1107.36C123.022 1106.76 121.715 1106.05 120.065 1106.05C118.335 1106.05 116.804 1106.82 115.573 1107.44L115.572 1107.45C115.406 1107.53 115.245 1107.61 115.09 1107.69C113.877 1108.28 113.075 1108.55 112.359 1108.28C112.467 1106.96 113.24 1105.72 114.543 1104.77C114.819 1104.57 115.118 1104.38 115.436 1104.21C115.436 1104.21 115.436 1104.21 115.436 1104.21Z" fill="#3F3F43"/>
<path fill-rule="evenodd" clip-rule="evenodd" d="M126.658 1103.53C126.835 1103.66 127.006 1103.8 127.17 1103.94C129.421 1103.01 131.071 1099.96 131.071 1096.35C131.071 1092 128.678 1088.47 125.725 1088.47C122.773 1088.47 120.38 1092 120.38 1096.35C120.38 1098.39 120.905 1100.24 121.767 1101.64C123.641 1101.89 125.335 1102.56 126.658 1103.53ZM122.086 1093.5H127.673C128.041 1094.31 128.256 1095.29 128.256 1096.35C128.256 1099.15 126.744 1101.41 124.879 1101.41C123.015 1101.41 121.503 1099.15 121.503 1096.35C121.503 1095.29 121.718 1094.31 122.086 1093.5Z" fill="#3F3F43"/>
<path d="M114.54 1112.42C113.572 1111.71 112.895 1110.84 112.569 1109.9C113.711 1110.03 114.817 1109.54 115.77 1109.07C115.943 1108.98 116.113 1108.9 116.283 1108.81L116.448 1108.73L118.561 1109.5C119.534 1109.85 120.601 1109.85 121.574 1109.5L123.524 1108.79C123.693 1108.88 123.867 1108.97 124.047 1109.06C124.742 1109.42 125.519 1109.75 126.421 1109.87C126.836 1109.93 127.267 1109.94 127.721 1109.89C127.396 1110.84 126.718 1111.71 125.745 1112.42C124.34 1113.46 122.362 1114.12 120.142 1114.12C117.923 1114.12 115.945 1113.46 114.54 1112.42Z" fill="#3F3F43"/>
<path d="M360.904 1001.7C373.595 1001.7 384.746 995.101 391.116 985.151C398.419 981.785 402.861 972.938 401.262 964.132C400.373 959.236 397.785 955.283 394.324 952.854C389.12 939.479 376.119 930 360.904 930C346.001 930 333.221 939.094 327.813 952.036C323.706 954.335 320.573 958.641 319.575 964.132C317.882 973.457 322.963 982.829 331.042 985.688C337.466 995.338 348.442 1001.7 360.904 1001.7Z" fill="#515155"/>
<path fill-rule="evenodd" clip-rule="evenodd" d="M360.375 952.344C360.375 954.355 359.864 956.19 359.022 957.582C356.949 957.769 355.069 958.466 353.629 959.524C353.511 959.61 353.395 959.7 353.283 959.792C351.188 958.725 349.684 955.793 349.684 952.344C349.684 947.993 352.077 944.466 355.029 944.466C357.982 944.466 360.375 947.993 360.375 952.344ZM352.566 949.497H358.618C359.016 950.309 359.249 951.288 359.249 952.344C359.249 955.141 357.612 957.408 355.592 957.408C353.572 957.408 351.934 955.141 351.934 952.344C351.934 951.288 352.167 950.309 352.566 949.497Z" fill="#3F3F43"/>
<path d="M355.432 960.2C356.014 959.885 356.663 959.625 357.361 959.435C357.361 959.435 357.361 959.435 357.361 959.435C358.221 959.2 359.158 959.07 360.142 959.07C361.533 959.07 362.829 959.33 363.949 959.778C363.948 959.778 363.948 959.778 363.948 959.778C364.122 959.847 364.292 959.922 364.458 960C364.457 960 364.457 960 364.456 960C364.924 960.222 365.356 960.479 365.744 960.763C367.055 961.726 367.83 962.976 367.927 964.303C367.443 964.396 367.015 964.398 366.623 964.345C365.976 964.257 365.38 964.012 364.742 963.686C364.54 963.583 364.331 963.469 364.114 963.351L364.113 963.35C363.018 962.753 361.711 962.04 360.061 962.04C358.332 962.04 356.8 962.816 355.57 963.439L355.568 963.439C355.402 963.524 355.242 963.605 355.087 963.681C353.873 964.279 353.071 964.543 352.355 964.275C352.463 962.958 353.237 961.719 354.539 960.763C354.815 960.56 355.114 960.372 355.432 960.2C355.432 960.2 355.432 960.2 355.432 960.2Z" fill="#3F3F43"/>
<path fill-rule="evenodd" clip-rule="evenodd" d="M366.654 959.524C366.831 959.654 367.002 959.789 367.166 959.931C369.417 959.002 371.067 955.957 371.067 952.344C371.067 947.993 368.674 944.466 365.722 944.466C362.769 944.466 360.376 947.993 360.376 952.344C360.376 954.382 360.901 956.239 361.763 957.638C363.637 957.884 365.331 958.552 366.654 959.524ZM362.082 949.498H367.669C368.037 950.309 368.252 951.289 368.252 952.344C368.252 955.141 366.74 957.408 364.876 957.408C363.011 957.408 361.499 955.141 361.499 952.344C361.499 951.289 361.714 950.309 362.082 949.498Z" fill="#3F3F43"/>
<path d="M354.537 968.418C353.568 967.706 352.892 966.838 352.565 965.897C353.707 966.027 354.813 965.53 355.766 965.061C355.939 964.976 356.109 964.89 356.279 964.805L356.444 964.722L358.557 965.491C359.53 965.845 360.597 965.845 361.57 965.491L363.52 964.782C363.689 964.872 363.863 964.964 364.043 965.056C364.738 965.411 365.515 965.747 366.417 965.869C366.832 965.925 367.264 965.935 367.718 965.888C367.392 966.832 366.714 967.704 365.741 968.418C364.336 969.449 362.358 970.111 360.138 970.111C357.919 970.111 355.941 969.449 354.537 968.418Z" fill="#3F3F43"/>
</g>
<g opacity="0.8">
<path d="M294.658 3.63108C293.073 1.38201 290.608 0.188068 288.288 0.80985C285.101 1.66388 283.391 5.61995 284.47 9.64599L284.476 9.66823C269.864 14.1951 259.25 27.8162 259.25 43.9164C259.25 63.7147 275.3 79.7644 295.098 79.7644C314.896 79.7644 330.946 63.7147 330.946 43.9164C330.946 27.9171 320.465 14.3659 305.994 9.75438C307.152 5.3882 305.295 1.10418 301.838 0.177929C299.186 -0.532621 296.362 0.938819 294.658 3.63108Z" fill="#515155"/>
<path fill-rule="evenodd" clip-rule="evenodd" d="M284.267 16.9808C284.267 16.5562 284.611 16.2119 285.036 16.2119C285.46 16.2119 285.805 16.5562 285.805 16.9808C285.805 18.2309 286.253 19.0573 286.771 19.5778C287.623 18.7322 288.65 18.2386 289.754 18.2386C292.706 18.2386 295.1 21.7657 295.1 26.1166C295.1 28.1282 294.588 29.9637 293.746 31.3559C291.673 31.5419 289.792 32.2398 288.351 33.2972C288.234 33.3836 288.119 33.4726 288.007 33.5641C285.912 32.4971 284.408 29.5657 284.408 26.1166C284.408 25.1409 284.529 24.2067 284.749 23.3444C284.39 23.2662 283.998 23.1243 283.623 22.8587C282.867 22.3225 282.32 21.3907 282.059 19.9063C281.985 19.4881 282.264 19.0893 282.682 19.0156C283.101 18.9419 283.499 19.2211 283.573 19.6393C283.792 20.8801 284.196 21.3798 284.513 21.6044C284.733 21.7601 284.975 21.8338 285.25 21.8721C285.417 21.4871 285.607 21.125 285.816 20.7897C284.978 20.0198 284.267 18.7953 284.267 16.9808ZM293.974 26.1166C293.974 28.9135 292.336 31.181 290.316 31.181C288.296 31.181 286.659 28.9135 286.659 26.1166C286.659 23.3196 288.296 21.0522 290.316 21.0522C292.336 21.0522 293.974 23.3196 293.974 26.1166Z" fill="#3F3F43"/>
<path fill-rule="evenodd" clip-rule="evenodd" d="M301.376 33.2972C301.553 33.4272 301.724 33.5631 301.888 33.7045C304.14 32.7769 305.792 29.731 305.792 26.1166C305.792 25.169 305.678 24.2605 305.47 23.419C306.765 23.2365 308.869 22.197 309.382 19.2782C309.455 18.86 309.176 18.4609 308.758 18.387C308.339 18.313 307.941 18.5921 307.867 19.0103C307.464 21.3066 305.788 21.88 305.104 21.9103C305.06 21.9123 305.016 21.918 304.974 21.9272C304.856 21.6509 304.727 21.386 304.587 21.1342C305.59 20.4076 306.552 19.0942 306.552 16.9808C306.552 16.5562 306.208 16.2119 305.783 16.2119C305.359 16.2119 305.014 16.5562 305.014 16.9808C305.014 18.5032 304.353 19.3968 303.708 19.8752C302.806 18.849 301.674 18.2386 300.446 18.2386C297.494 18.2386 295.1 21.7657 295.1 26.1166C295.1 28.1552 295.626 30.013 296.488 31.4118C298.361 31.6586 300.054 32.3264 301.376 33.2972ZM302.976 26.1166C302.976 28.9135 301.465 31.181 299.6 31.181C297.735 31.181 296.224 28.9135 296.224 26.1166C296.224 23.3196 297.735 21.0522 299.6 21.0522C301.465 21.0522 302.976 23.3196 302.976 26.1166Z" fill="#3F3F43"/>
<path d="M289.261 34.5368C287.959 35.4926 287.185 36.7318 287.078 38.0484C287.794 38.3168 288.596 38.0521 289.809 37.4547C289.964 37.3783 290.125 37.2968 290.291 37.2125L290.292 37.2123C291.522 36.5892 293.054 35.8136 294.783 35.8136C296.433 35.8136 297.741 36.5269 298.836 37.124C299.053 37.2426 299.262 37.3567 299.464 37.4597C300.103 37.7856 300.698 38.0306 301.346 38.1185C301.737 38.1717 302.166 38.1695 302.65 38.0766C302.552 36.7495 301.777 35.4994 300.466 34.5368C299.061 33.5052 297.083 32.8438 294.864 32.8438C292.645 32.8438 290.666 33.5052 289.261 34.5368Z" fill="#3F3F43"/>
<path d="M289.259 42.1913C288.29 41.4799 287.614 40.6114 287.288 39.6708C288.429 39.8009 289.535 39.3035 290.488 38.8343C290.661 38.7493 290.831 38.6638 291 38.5789L291.001 38.5787L291.167 38.4957L293.447 39.3247C294.31 39.6389 295.257 39.6389 296.121 39.3247L298.241 38.5541C298.41 38.6449 298.584 38.7371 298.765 38.8294C299.46 39.1843 300.237 39.52 301.139 39.6424C301.554 39.6987 301.986 39.7087 302.44 39.6611C302.114 40.6054 301.436 41.4774 300.464 42.1913C299.058 43.2229 297.08 43.8842 294.861 43.8842C292.642 43.8842 290.664 43.2229 289.259 42.1913Z" fill="#3F3F43"/>
<path fill-rule="evenodd" clip-rule="evenodd" d="M397.041 293.866C398.086 287.554 391.711 281.102 382.378 278.436C387.483 272.842 389.031 266.171 385.608 261.763C382.302 257.507 375.327 256.578 368.183 258.902C366.194 253.79 362.257 250.015 357.237 249.18C351.277 248.184 345.444 251.586 341.933 257.368C336.718 255.286 331.195 255.375 327.042 258.102C321.974 261.43 320.299 267.791 322.065 274.296C316.952 276.414 313.237 280.358 312.418 285.339C311.258 292.401 316.219 299.368 324.113 302.774C321.472 307.01 320.943 311.259 323.198 314.169C326.003 317.786 332.313 318.337 339.064 316.078C341.131 322.214 346.112 326.948 352.536 328.024C360.261 329.321 367.705 324.945 371.204 317.755C375.746 320.214 380.24 320.767 383.252 318.782C387.206 316.177 387.528 309.969 384.585 303.359C391.253 302.228 396.218 298.726 397.018 293.862L397.041 293.866Z" fill="#515155"/>
<path fill-rule="evenodd" clip-rule="evenodd" d="M365.145 276.406C365.145 280.021 363.493 283.067 361.241 283.994C361.077 283.853 360.906 283.717 360.729 283.587C359.407 282.616 357.714 281.948 355.842 281.701C354.979 280.303 354.454 278.445 354.454 276.406C354.454 272.055 356.847 268.528 359.8 268.528C362.752 268.528 365.145 272.055 365.145 276.406ZM362.33 276.406C362.33 279.203 360.818 281.471 358.954 281.471C357.089 281.471 355.577 279.203 355.577 276.406C355.577 273.609 357.089 271.342 358.954 271.342C360.818 271.342 362.33 273.609 362.33 276.406Z" fill="#3F3F43"/>
<path fill-rule="evenodd" clip-rule="evenodd" d="M343.762 276.406C343.762 279.855 345.265 282.786 347.359 283.854C347.471 283.762 347.586 283.673 347.704 283.587C349.145 282.529 351.026 281.831 353.1 281.645C353.942 280.253 354.453 278.418 354.453 276.406C354.453 272.056 352.06 268.528 349.107 268.528C346.155 268.528 343.762 272.056 343.762 276.406ZM353.328 276.406C353.328 279.203 351.69 281.471 349.67 281.471C347.65 281.471 346.012 279.203 346.012 276.406C346.012 273.609 347.65 271.342 349.67 271.342C351.69 271.342 353.328 273.609 353.328 276.406Z" fill="#3F3F43"/>
<path d="M348.614 284.826C347.311 285.782 346.538 287.021 346.43 288.338C347.146 288.606 347.948 288.342 349.161 287.744C349.317 287.668 349.478 287.586 349.644 287.502C350.875 286.879 352.406 286.103 354.136 286.103C355.786 286.103 357.093 286.816 358.188 287.413L358.188 287.414L358.189 287.414C358.406 287.532 358.615 287.646 358.817 287.749C359.455 288.075 360.051 288.32 360.698 288.408C361.09 288.461 361.518 288.459 362.002 288.366C361.904 287.039 361.13 285.789 359.819 284.826C358.414 283.795 356.436 283.133 354.217 283.133C351.998 283.133 350.019 283.795 348.614 284.826Z" fill="#3F3F43"/>
<path d="M348.611 292.481C347.643 291.769 346.966 290.901 346.64 289.96C347.782 290.09 348.888 289.593 349.841 289.124C350.013 289.039 350.184 288.953 350.353 288.868L350.354 288.868L350.52 288.785L352.803 289.614C353.667 289.929 354.614 289.929 355.478 289.614L357.595 288.845C357.764 288.935 357.937 289.027 358.118 289.119C358.813 289.474 359.59 289.81 360.491 289.932C360.907 289.988 361.338 289.998 361.792 289.951C361.467 290.895 360.789 291.767 359.816 292.481C358.411 293.512 356.432 294.174 354.213 294.174C351.994 294.174 350.016 293.512 348.611 292.481Z" fill="#3F3F43"/>
<path fill-rule="evenodd" clip-rule="evenodd" d="M102.041 301.866C103.086 295.554 96.7113 289.102 87.3782 286.436C92.483 280.842 94.031 274.171 90.6078 269.763C87.3021 265.507 80.3271 264.578 73.1834 266.902C71.194 261.79 67.2571 258.015 62.2373 257.18C56.2772 256.184 50.4444 259.586 46.9325 265.368C41.7177 263.286 36.195 263.375 32.0415 266.102C26.9739 269.43 25.2994 275.791 27.0652 282.296C21.9516 284.414 18.2372 288.358 17.4177 293.339C16.2577 300.401 21.2188 307.368 29.1125 310.774C26.4717 315.01 25.9434 319.259 28.1984 322.169C31.0028 325.786 37.3132 326.337 44.0636 324.078C46.1309 330.214 51.1115 334.948 57.5363 336.024C65.2613 337.321 72.7048 332.945 76.2041 325.755C80.7457 328.214 85.24 328.767 88.2522 326.782C92.2061 324.177 92.5283 317.969 89.5854 311.359C96.2525 310.228 101.218 306.726 102.018 301.862L102.041 301.866Z" fill="#515155"/>
<path fill-rule="evenodd" clip-rule="evenodd" d="M70.1454 284.406C70.1454 288.021 68.4934 291.067 66.2413 291.994C66.0772 291.853 65.9062 291.717 65.729 291.587C64.4071 290.616 62.7143 289.948 60.8415 289.701C59.9793 288.303 59.4539 286.445 59.4539 284.406C59.4539 280.055 61.8473 276.528 64.7996 276.528C67.752 276.528 70.1454 280.055 70.1454 284.406ZM67.33 284.406C67.33 287.203 65.8184 289.471 63.9537 289.471C62.089 289.471 60.5774 287.203 60.5774 284.406C60.5774 281.609 62.089 279.342 63.9537 279.342C65.8184 279.342 67.33 281.609 67.33 284.406Z" fill="#3F3F43"/>
<path fill-rule="evenodd" clip-rule="evenodd" d="M48.7617 284.406C48.7617 287.855 50.2654 290.786 52.3594 291.854C52.4714 291.762 52.5863 291.673 52.704 291.587C54.1449 290.529 56.0259 289.831 58.0999 289.645C58.9417 288.253 59.4532 286.418 59.4532 284.406C59.4532 280.056 57.0598 276.528 54.1075 276.528C51.1551 276.528 48.7617 280.056 48.7617 284.406ZM58.3275 284.406C58.3275 287.203 56.69 289.471 54.6699 289.471C52.6499 289.471 51.0123 287.203 51.0123 284.406C51.0123 281.609 52.6499 279.342 54.6699 279.342C56.69 279.342 58.3275 281.609 58.3275 284.406Z" fill="#3F3F43"/>
<path d="M53.6137 292.826C52.3115 293.782 51.5376 295.021 51.4302 296.338C52.1463 296.606 52.9482 296.342 54.1615 295.744C54.3167 295.668 54.4777 295.586 54.6442 295.502C55.8748 294.879 57.4064 294.103 59.1359 294.103C60.7859 294.103 62.0933 294.816 63.1881 295.413L63.1884 295.414L63.1887 295.414C63.4061 295.532 63.6151 295.646 63.8167 295.749C64.4553 296.075 65.0506 296.32 65.6983 296.408C66.09 296.461 66.5182 296.459 67.0021 296.366C66.9044 295.039 66.1295 293.789 64.8186 292.826C63.4138 291.795 61.4357 291.133 59.2166 291.133C56.9975 291.133 55.0191 291.795 53.6137 292.826Z" fill="#3F3F43"/>
<path d="M53.6114 300.481C52.6425 299.769 51.9665 298.901 51.6402 297.96C52.782 298.09 53.888 297.593 54.8408 297.124C55.0134 297.039 55.184 296.953 55.3532 296.868L55.3536 296.868L55.5205 296.785L57.8027 297.614C58.6666 297.929 59.6136 297.929 60.4775 297.614L62.5948 296.845C62.7637 296.935 62.9374 297.027 63.1176 297.119C63.8129 297.474 64.5897 297.81 65.4915 297.932C65.9066 297.988 66.3384 297.998 66.7925 297.951C66.4669 298.895 65.789 299.767 64.8163 300.481C63.4109 301.512 61.4325 302.174 59.2134 302.174C56.9943 302.174 55.0162 301.512 53.6114 300.481Z" fill="#3F3F43"/>
<path fill-rule="evenodd" clip-rule="evenodd" d="M84.7911 56.6936C85.8359 50.3813 79.4613 43.9295 70.1282 41.2629C75.233 35.6693 76.781 28.9982 73.3578 24.59C70.0521 20.3342 63.0771 19.4053 55.9334 21.7292C53.944 16.6167 50.0071 12.8419 44.9873 12.0071C39.0272 11.0114 33.1944 14.413 29.6825 20.1951C24.4677 18.1129 18.945 18.2018 14.7915 20.9291C9.72388 24.2573 8.04943 30.6181 9.81525 37.1228C4.7016 39.2411 0.987171 43.1854 0.167687 48.166C-0.992296 55.2278 3.96876 62.195 11.8625 65.601C9.22173 69.8375 8.69336 74.0863 10.9484 76.9963C13.7528 80.6136 20.0632 81.1644 26.8136 78.9055C28.8809 85.0409 33.8615 89.7755 40.2863 90.8508C48.0113 92.1483 55.4548 87.7724 58.9541 80.5817C63.4957 83.0416 67.99 83.5942 71.0022 81.6089C74.9561 79.0041 75.2783 72.7964 72.3354 66.1866C79.0025 65.0553 83.9682 61.5532 84.7678 56.6894L84.7911 56.6936Z" fill="#515155"/>
<path fill-rule="evenodd" clip-rule="evenodd" d="M52.8954 39.2334C52.8954 42.8481 51.2434 45.8943 48.9913 46.8215C48.8272 46.68 48.6562 46.544 48.479 46.4139C47.1571 45.4432 45.4643 44.7755 43.5915 44.5286C42.7293 43.1298 42.2039 41.272 42.2039 39.2334C42.2039 34.8825 44.5973 31.3555 47.5496 31.3555C50.502 31.3555 52.8954 34.8825 52.8954 39.2334ZM50.08 39.2334C50.08 42.0304 48.5684 44.2978 46.7037 44.2978C44.839 44.2978 43.3274 42.0304 43.3274 39.2334C43.3274 36.4364 44.839 34.169 46.7037 34.169C48.5684 34.169 50.08 36.4364 50.08 39.2334Z" fill="#3F3F43"/>
<path fill-rule="evenodd" clip-rule="evenodd" d="M31.5117 39.2336C31.5117 42.6823 33.0154 45.6134 35.1094 46.6807C35.2214 46.5892 35.3363 46.5003 35.454 46.4139C36.8949 45.3563 38.7759 44.6584 40.8499 44.4725C41.6917 43.0803 42.2032 41.245 42.2032 39.2336C42.2032 34.8827 39.8098 31.3556 36.8575 31.3556C33.9051 31.3556 31.5117 34.8827 31.5117 39.2336ZM41.0775 39.2334C41.0775 42.0304 39.44 44.2978 37.4199 44.2978C35.3999 44.2978 33.7623 42.0304 33.7623 39.2334C33.7623 36.4364 35.3999 34.169 37.4199 34.169C39.44 34.169 41.0775 36.4364 41.0775 39.2334Z" fill="#3F3F43"/>
<path d="M36.3637 47.6535C35.0615 48.6093 34.2876 49.8485 34.1802 51.1651C34.8963 51.4335 35.6982 51.1688 36.9115 50.5714C37.0667 50.495 37.2277 50.4134 37.3942 50.3291C38.6248 49.7059 40.1564 48.9303 41.8859 48.9303C43.5359 48.9303 44.8433 49.6434 45.9381 50.2406L45.9384 50.2407L45.9387 50.2409C46.1561 50.3595 46.3651 50.4734 46.5667 50.5764C47.2053 50.9023 47.8006 51.1473 48.4483 51.2352C48.84 51.2884 49.2682 51.2862 49.7521 51.1933C49.6544 49.8662 48.8795 48.6161 47.5686 47.6535C46.1638 46.6219 44.1857 45.9605 41.9666 45.9605C39.7475 45.9605 37.7691 46.6219 36.3637 47.6535Z" fill="#3F3F43"/>
<path d="M36.3614 55.308C35.3925 54.5965 34.7165 53.7281 34.3902 52.7875C35.532 52.9176 36.638 52.4202 37.5908 51.951C37.7634 51.866 37.934 51.7804 38.1032 51.6956L38.1036 51.6953L38.2705 51.6117L40.5527 52.4416C41.4166 52.7557 42.3636 52.7557 43.2275 52.4416L45.3448 51.6717C45.5137 51.7622 45.6874 51.8541 45.8676 51.9461C46.5629 52.301 47.3397 52.6367 48.2415 52.7591C48.6566 52.8154 49.0884 52.8253 49.5425 52.7778C49.2169 53.7221 48.539 54.5941 47.5663 55.308C46.1609 56.3395 44.1825 57.0009 41.9634 57.0009C39.7443 57.0009 37.7662 56.3395 36.3614 55.308Z" fill="#3F3F43"/>
<path fill-rule="evenodd" clip-rule="evenodd" d="M423.525 75.1679C421.111 72.9493 416.584 73.9476 413.413 77.3977C412.395 78.5058 411.692 79.7796 411.27 81.0566C409.992 80.9186 408.694 80.8478 407.379 80.8478C387.581 80.8478 371.531 96.8975 371.531 116.696C371.531 136.494 387.581 152.544 407.379 152.544C427.177 152.544 443.227 136.494 443.227 116.696C443.227 102.494 434.969 90.2208 422.992 84.4172C425.415 81.1274 425.709 77.175 423.525 75.1679Z" fill="#515155"/>
<path fill-rule="evenodd" clip-rule="evenodd" d="M407.713 100.345H417.688C416.914 97.3987 414.973 95.3091 412.7 95.3091C410.428 95.3091 408.486 97.3987 407.713 100.345Z" fill="#353538"/>
<path fill-rule="evenodd" clip-rule="evenodd" d="M397.027 100.341H407C406.226 97.3967 404.285 95.3091 402.014 95.3091C399.742 95.3091 397.802 97.3967 397.027 100.341Z" fill="#353538"/>
<path fill-rule="evenodd" clip-rule="evenodd" d="M407.377 103.192C407.377 105.203 406.865 107.039 406.023 108.431C403.951 108.618 402.071 109.315 400.632 110.372C400.513 110.459 400.398 110.548 400.285 110.64C398.437 109.7 397.048 107.307 396.746 104.387L393.28 103.126C392.881 102.98 392.675 102.539 392.82 102.14C392.965 101.741 393.406 101.535 393.806 101.681L396.694 102.732C396.716 102.181 396.776 101.645 396.87 101.13L394.886 98.7654C394.613 98.4401 394.655 97.9551 394.98 97.6822C395.306 97.4092 395.791 97.4516 396.064 97.7769L397.369 99.3329C398.286 96.9342 400.03 95.314 402.031 95.314C404.983 95.314 407.377 98.841 407.377 103.192ZM399.208 100.345H405.26C405.658 101.156 405.891 102.136 405.891 103.192C405.891 105.989 404.254 108.256 402.234 108.256C400.214 108.256 398.576 105.989 398.576 103.192C398.576 102.136 398.809 101.156 399.208 100.345Z" fill="#3F3F43"/>
<path fill-rule="evenodd" clip-rule="evenodd" d="M413.657 110.372C413.833 110.502 414.004 110.638 414.168 110.779C416.169 109.953 417.695 107.454 418.009 104.371L421.431 103.126C421.83 102.981 422.036 102.539 421.89 102.14C421.745 101.741 421.304 101.535 420.905 101.681L418.059 102.716C418.037 102.156 417.974 101.611 417.876 101.088L419.825 98.7654C420.098 98.4401 420.055 97.9551 419.73 97.6821C419.405 97.4092 418.92 97.4516 418.647 97.7769L417.371 99.2973C416.451 96.9181 414.714 95.314 412.723 95.314C409.771 95.314 407.377 98.841 407.377 103.192C407.377 105.23 407.903 107.088 408.764 108.486C410.639 108.733 412.334 109.401 413.657 110.372ZM415.318 100.345H409.267C408.868 101.157 408.635 102.136 408.635 103.192C408.635 105.989 410.273 108.256 412.293 108.256C414.313 108.256 415.95 105.989 415.95 103.192C415.95 102.136 415.717 101.157 415.318 100.345Z" fill="#3F3F43"/>
<path d="M401.541 111.612C400.239 112.568 399.465 113.807 399.358 115.123C400.074 115.392 400.876 115.127 402.089 114.53C402.244 114.453 402.405 114.372 402.571 114.288L402.572 114.287C403.803 113.664 405.334 112.889 407.064 112.889C408.713 112.889 410.021 113.602 411.116 114.199C411.333 114.318 411.543 114.432 411.744 114.535C412.383 114.861 412.978 115.106 413.626 115.194C414.018 115.247 414.446 115.245 414.93 115.152C414.832 113.824 414.057 112.574 412.746 111.612C411.341 110.58 409.363 109.919 407.144 109.919C404.925 109.919 402.947 110.58 401.541 111.612Z" fill="#3F3F43"/>
<path d="M401.539 119.266C400.57 118.555 399.894 117.686 399.568 116.746C400.71 116.876 401.816 116.379 402.768 115.909C402.941 115.824 403.112 115.739 403.281 115.654L403.281 115.654L403.447 115.571L405.727 116.4C406.591 116.714 407.538 116.714 408.402 116.4L410.521 115.629C410.69 115.72 410.864 115.812 411.045 115.904C411.741 116.259 412.517 116.595 413.419 116.717C413.834 116.774 414.266 116.784 414.72 116.736C414.395 117.68 413.717 118.552 412.744 119.266C411.339 120.298 409.36 120.959 407.141 120.959C404.922 120.959 402.944 120.298 401.539 119.266Z" fill="#3F3F43"/>
<path d="M120.904 230.704C133.595 230.704 144.746 224.109 151.116 214.159C158.419 210.793 162.861 201.946 161.262 193.139C160.373 188.244 157.785 184.29 154.324 181.862C149.12 168.487 136.119 159.008 120.904 159.008C106.001 159.008 93.2213 168.102 87.8132 181.044C83.7062 183.343 80.5726 187.648 79.5753 193.14C77.8818 202.465 82.9627 211.837 91.0421 214.696C97.466 224.345 108.442 230.704 120.904 230.704Z" fill="#515155"/>
<path fill-rule="evenodd" clip-rule="evenodd" d="M120.379 181.35C120.379 183.361 119.868 185.196 119.026 186.588C116.953 186.775 115.073 187.472 113.633 188.529C113.515 188.616 113.399 188.706 113.287 188.798C111.192 187.731 109.688 184.799 109.688 181.35C109.688 176.999 112.081 173.472 115.033 173.472C117.986 173.472 120.379 176.999 120.379 181.35ZM112.57 178.503H118.621C119.02 179.315 119.253 180.294 119.253 181.35C119.253 184.147 117.616 186.414 115.596 186.414C113.576 186.414 111.938 184.147 111.938 181.35C111.938 180.294 112.171 179.315 112.57 178.503Z" fill="#3F3F43"/>
<path d="M115.436 189.206C116.018 188.891 116.666 188.631 117.365 188.441C117.365 188.441 117.365 188.441 117.365 188.441C118.225 188.206 119.162 188.076 120.146 188.076C121.537 188.076 122.833 188.336 123.953 188.784C123.952 188.784 123.952 188.784 123.952 188.783C124.126 188.853 124.296 188.928 124.461 189.006C124.461 189.006 124.461 189.006 124.46 189.006C124.928 189.228 125.36 189.484 125.748 189.769C127.059 190.732 127.833 191.982 127.931 193.309C127.447 193.402 127.019 193.404 126.627 193.351C125.98 193.263 125.384 193.018 124.746 192.692C124.544 192.589 124.335 192.475 124.117 192.356L124.117 192.356C123.022 191.759 121.715 191.046 120.065 191.046C118.335 191.046 116.804 191.822 115.573 192.445L115.572 192.445C115.406 192.529 115.245 192.611 115.09 192.687C113.877 193.285 113.075 193.549 112.359 193.281C112.467 191.964 113.24 190.725 114.543 189.769C114.819 189.566 115.118 189.378 115.436 189.206C115.436 189.206 115.436 189.206 115.436 189.206Z" fill="#3F3F43"/>
<path fill-rule="evenodd" clip-rule="evenodd" d="M126.658 188.529C126.835 188.659 127.006 188.795 127.17 188.937C129.421 188.008 131.071 184.963 131.071 181.35C131.071 176.999 128.678 173.472 125.725 173.472C122.773 173.472 120.38 176.999 120.38 181.35C120.38 183.388 120.905 185.245 121.767 186.644C123.641 186.89 125.335 187.558 126.658 188.529ZM122.086 178.504H127.673C128.041 179.315 128.256 180.294 128.256 181.35C128.256 184.147 126.744 186.414 124.879 186.414C123.015 186.414 121.503 184.147 121.503 181.35C121.503 180.294 121.718 179.315 122.086 178.504Z" fill="#3F3F43"/>
<path d="M114.54 197.424C113.572 196.712 112.895 195.844 112.569 194.903C113.711 195.033 114.817 194.536 115.77 194.067C115.943 193.982 116.113 193.896 116.283 193.811L116.448 193.728L118.561 194.497C119.534 194.851 120.601 194.851 121.574 194.497L123.524 193.788C123.693 193.878 123.867 193.97 124.047 194.062C124.742 194.417 125.519 194.752 126.421 194.875C126.836 194.931 127.267 194.941 127.721 194.893C127.396 195.838 126.718 196.71 125.745 197.424C124.34 198.455 122.362 199.117 120.142 199.117C117.923 199.117 115.945 198.455 114.54 197.424Z" fill="#3F3F43"/>
</g>
<g opacity="0.8">
<path fill-rule="evenodd" clip-rule="evenodd" d="M458.041 820.859C459.086 814.546 452.711 808.095 443.378 805.428C448.483 799.834 450.031 793.163 446.608 788.755C443.302 784.499 436.327 783.57 429.183 785.894C427.194 780.782 423.257 777.007 418.237 776.172C412.277 775.176 406.444 778.578 402.933 784.36C397.718 782.278 392.195 782.367 388.042 785.094C382.974 788.422 381.299 794.783 383.065 801.288C377.952 803.406 374.237 807.35 373.418 812.331C372.258 819.393 377.219 826.36 385.113 829.766C382.472 834.003 381.943 838.251 384.198 841.161C387.003 844.779 393.313 845.329 400.064 843.07C402.131 849.206 407.112 853.941 413.536 855.016C421.261 856.313 428.705 851.937 432.204 844.747C436.746 847.207 441.24 847.759 444.252 845.774C448.206 843.169 448.528 836.961 445.585 830.352C452.253 829.22 457.218 825.718 458.018 820.854L458.041 820.859Z" fill="#515155"/>
<path fill-rule="evenodd" clip-rule="evenodd" d="M426.145 803.398C426.145 807.013 424.493 810.059 422.241 810.987C422.077 810.845 421.906 810.709 421.729 810.579C420.407 809.608 418.714 808.941 416.842 808.694C415.979 807.295 415.454 805.437 415.454 803.398C415.454 799.048 417.847 795.521 420.8 795.521C423.752 795.521 426.145 799.048 426.145 803.398ZM423.33 803.398C423.33 806.195 421.818 808.463 419.954 808.463C418.089 808.463 416.577 806.195 416.577 803.398C416.577 800.601 418.089 798.334 419.954 798.334C421.818 798.334 423.33 800.601 423.33 803.398Z" fill="#3F3F43"/>
<path fill-rule="evenodd" clip-rule="evenodd" d="M404.762 803.399C404.762 806.847 406.265 809.778 408.359 810.846C408.471 810.754 408.586 810.665 408.704 810.579C410.145 809.521 412.026 808.823 414.1 808.638C414.942 807.245 415.453 805.41 415.453 803.399C415.453 799.048 413.06 795.521 410.107 795.521C407.155 795.521 404.762 799.048 404.762 803.399ZM414.328 803.398C414.328 806.195 412.69 808.463 410.67 808.463C408.65 808.463 407.012 806.195 407.012 803.398C407.012 800.601 408.65 798.334 410.67 798.334C412.69 798.334 414.328 800.601 414.328 803.398Z" fill="#3F3F43"/>
<path d="M409.614 811.818C408.311 812.774 407.538 814.014 407.43 815.33C408.146 815.599 408.948 815.334 410.161 814.736C410.317 814.66 410.478 814.578 410.644 814.494C411.875 813.871 413.406 813.095 415.136 813.095C416.786 813.095 418.093 813.808 419.188 814.406L419.188 814.406L419.189 814.406C419.406 814.524 419.615 814.638 419.817 814.741C420.455 815.067 421.051 815.312 421.698 815.4C422.09 815.453 422.518 815.451 423.002 815.358C422.904 814.031 422.13 812.781 420.819 811.818C419.414 810.787 417.436 810.126 415.217 810.126C412.998 810.126 411.019 810.787 409.614 811.818Z" fill="#3F3F43"/>
<path d="M409.611 819.473C408.643 818.762 407.966 817.893 407.64 816.953C408.782 817.083 409.888 816.585 410.841 816.116C411.013 816.031 411.184 815.945 411.353 815.861L411.354 815.86L411.52 815.777L413.803 816.607C414.667 816.921 415.614 816.921 416.478 816.607L418.595 815.837C418.764 815.927 418.937 816.019 419.118 816.111C419.813 816.466 420.59 816.802 421.491 816.924C421.907 816.98 422.338 816.99 422.792 816.943C422.467 817.887 421.789 818.759 420.816 819.473C419.411 820.505 417.432 821.166 415.213 821.166C412.994 821.166 411.016 820.505 409.611 819.473Z" fill="#3F3F43"/>
<path fill-rule="evenodd" clip-rule="evenodd" d="M113.041 770.859C114.086 764.546 107.711 758.095 98.3782 755.428C103.483 749.834 105.031 743.163 101.608 738.755C98.3021 734.499 91.3271 733.57 84.1834 735.894C82.194 730.782 78.2571 727.007 73.2373 726.172C67.2772 725.176 61.4444 728.578 57.9325 734.36C52.7177 732.278 47.195 732.367 43.0415 735.094C37.9739 738.422 36.2994 744.783 38.0652 751.288C32.9516 753.406 29.2372 757.35 28.4177 762.331C27.2577 769.393 32.2188 776.36 40.1125 779.766C37.4717 784.003 36.9434 788.251 39.1984 791.161C42.0028 794.779 48.3132 795.329 55.0636 793.07C57.1309 799.206 62.1115 803.941 68.5363 805.016C76.2613 806.313 83.7048 801.937 87.2041 794.747C91.7457 797.207 96.24 797.759 99.2522 795.774C103.206 793.169 103.528 786.961 100.585 780.352C107.253 779.22 112.218 775.718 113.018 770.854L113.041 770.859Z" fill="#515155"/>
<path fill-rule="evenodd" clip-rule="evenodd" d="M81.1454 753.398C81.1454 757.013 79.4934 760.059 77.2413 760.987C77.0772 760.845 76.9062 760.709 76.729 760.579C75.4071 759.608 73.7143 758.941 71.8415 758.694C70.9793 757.295 70.4539 755.437 70.4539 753.398C70.4539 749.048 72.8473 745.521 75.7996 745.521C78.752 745.521 81.1454 749.048 81.1454 753.398ZM78.33 753.398C78.33 756.195 76.8184 758.463 74.9537 758.463C73.089 758.463 71.5774 756.195 71.5774 753.398C71.5774 750.601 73.089 748.334 74.9537 748.334C76.8184 748.334 78.33 750.601 78.33 753.398Z" fill="#3F3F43"/>
<path fill-rule="evenodd" clip-rule="evenodd" d="M59.7617 753.399C59.7617 756.847 61.2654 759.778 63.3594 760.846C63.4714 760.754 63.5863 760.665 63.704 760.579C65.1449 759.521 67.0259 758.823 69.0999 758.638C69.9417 757.245 70.4532 755.41 70.4532 753.399C70.4532 749.048 68.0598 745.521 65.1075 745.521C62.1551 745.521 59.7617 749.048 59.7617 753.399ZM69.3275 753.398C69.3275 756.195 67.69 758.463 65.6699 758.463C63.6499 758.463 62.0123 756.195 62.0123 753.398C62.0123 750.601 63.6499 748.334 65.6699 748.334C67.69 748.334 69.3275 750.601 69.3275 753.398Z" fill="#3F3F43"/>
<path d="M64.6137 761.818C63.3115 762.774 62.5376 764.014 62.4302 765.33C63.1463 765.599 63.9482 765.334 65.1615 764.736C65.3167 764.66 65.4777 764.578 65.6442 764.494C66.8748 763.871 68.4064 763.095 70.1359 763.095C71.7859 763.095 73.0933 763.808 74.1881 764.406L74.1884 764.406L74.1887 764.406C74.4061 764.524 74.6151 764.638 74.8167 764.741C75.4553 765.067 76.0506 765.312 76.6983 765.4C77.09 765.453 77.5182 765.451 78.0021 765.358C77.9044 764.031 77.1295 762.781 75.8186 761.818C74.4138 760.787 72.4357 760.126 70.2166 760.126C67.9975 760.126 66.0191 760.787 64.6137 761.818Z" fill="#3F3F43"/>
<path d="M64.6114 769.473C63.6425 768.762 62.9665 767.893 62.6402 766.953C63.782 767.083 64.888 766.585 65.8408 766.116C66.0134 766.031 66.184 765.945 66.3532 765.861L66.3536 765.86L66.5205 765.777L68.8027 766.607C69.6666 766.921 70.6136 766.921 71.4775 766.607L73.5948 765.837C73.7637 765.927 73.9374 766.019 74.1176 766.111C74.8129 766.466 75.5897 766.802 76.4915 766.924C76.9066 766.98 77.3384 766.99 77.7925 766.943C77.4669 767.887 76.789 768.759 75.8163 769.473C74.4109 770.505 72.4325 771.166 70.2134 771.166C67.9943 771.166 66.0162 770.505 64.6114 769.473Z" fill="#3F3F43"/>
<path fill-rule="evenodd" clip-rule="evenodd" d="M107.041 471.694C108.086 465.381 101.711 458.93 92.3782 456.263C97.483 450.669 99.031 443.998 95.6078 439.59C92.3021 435.334 85.3271 434.405 78.1834 436.729C76.194 431.617 72.2571 427.842 67.2373 427.007C61.2772 426.011 55.4444 429.413 51.9325 435.195C46.7177 433.113 41.195 433.202 37.0415 435.929C31.9739 439.257 30.2994 445.618 32.0652 452.123C26.9516 454.241 23.2372 458.185 22.4177 463.166C21.2577 470.228 26.2188 477.195 34.1125 480.601C31.4717 484.837 30.9434 489.086 33.1984 491.996C36.0028 495.614 42.3132 496.164 49.0636 493.905C51.1309 500.041 56.1115 504.775 62.5363 505.851C70.2613 507.148 77.7048 502.772 81.2041 495.582C85.7457 498.042 90.24 498.594 93.2522 496.609C97.2061 494.004 97.5283 487.796 94.5854 481.187C101.253 480.055 106.218 476.553 107.018 471.689L107.041 471.694Z" fill="#515155"/>
<path fill-rule="evenodd" clip-rule="evenodd" d="M75.1454 454.233C75.1454 457.848 73.4934 460.894 71.2413 461.822C71.0772 461.68 70.9062 461.544 70.729 461.414C69.4071 460.443 67.7143 459.776 65.8415 459.529C64.9793 458.13 64.4539 456.272 64.4539 454.233C64.4539 449.883 66.8473 446.355 69.7996 446.355C72.752 446.355 75.1454 449.883 75.1454 454.233ZM72.33 454.233C72.33 457.03 70.8184 459.298 68.9537 459.298C67.089 459.298 65.5774 457.03 65.5774 454.233C65.5774 451.436 67.089 449.169 68.9537 449.169C70.8184 449.169 72.33 451.436 72.33 454.233Z" fill="#3F3F43"/>
<path fill-rule="evenodd" clip-rule="evenodd" d="M53.7617 454.234C53.7617 457.682 55.2654 460.613 57.3594 461.681C57.4714 461.589 57.5863 461.5 57.704 461.414C59.1449 460.356 61.0259 459.658 63.0999 459.472C63.9417 458.08 64.4532 456.245 64.4532 454.234C64.4532 449.883 62.0598 446.356 59.1075 446.356C56.1551 446.356 53.7617 449.883 53.7617 454.234ZM63.3275 454.233C63.3275 457.03 61.69 459.298 59.6699 459.298C57.6499 459.298 56.0123 457.03 56.0123 454.233C56.0123 451.436 57.6499 449.169 59.6699 449.169C61.69 449.169 63.3275 451.436 63.3275 454.233Z" fill="#3F3F43"/>
<path d="M58.6137 462.653C57.3115 463.609 56.5376 464.848 56.4302 466.165C57.1463 466.433 57.9482 466.169 59.1615 465.571C59.3167 465.495 59.4777 465.413 59.6442 465.329C60.8748 464.706 62.4064 463.93 64.1359 463.93C65.7859 463.93 67.0933 464.643 68.1881 465.241L68.1884 465.241L68.1887 465.241C68.4061 465.359 68.6151 465.473 68.8167 465.576C69.4553 465.902 70.0506 466.147 70.6983 466.235C71.09 466.288 71.5182 466.286 72.0021 466.193C71.9044 464.866 71.1295 463.616 69.8186 462.653C68.4138 461.622 66.4357 460.961 64.2166 460.961C61.9975 460.961 60.0191 461.622 58.6137 462.653Z" fill="#3F3F43"/>
<path d="M58.6114 470.308C57.6425 469.597 56.9665 468.728 56.6402 467.788C57.782 467.918 58.888 467.42 59.8408 466.951C60.0134 466.866 60.184 466.78 60.3532 466.696L60.3536 466.695L60.5205 466.612L62.8027 467.442C63.6666 467.756 64.6136 467.756 65.4775 467.442L67.5948 466.672C67.7637 466.762 67.9374 466.854 68.1176 466.946C68.8129 467.301 69.5897 467.637 70.4915 467.759C70.9066 467.815 71.3384 467.825 71.7925 467.778C71.4669 468.722 70.789 469.594 69.8163 470.308C68.4109 471.34 66.4325 472.001 64.2134 472.001C61.9943 472.001 60.0162 471.34 58.6114 470.308Z" fill="#3F3F43"/>
<path fill-rule="evenodd" clip-rule="evenodd" d="M445.775 490.168C443.361 487.949 438.834 488.948 435.663 492.398C434.645 493.506 433.942 494.78 433.52 496.057C432.242 495.919 430.944 495.848 429.629 495.848C409.831 495.848 393.781 511.897 393.781 531.696C393.781 551.494 409.831 567.544 429.629 567.544C449.427 567.544 465.477 551.494 465.477 531.696C465.477 517.494 457.219 505.221 445.242 499.417C447.665 496.127 447.959 492.175 445.775 490.168Z" fill="#515155"/>
<path fill-rule="evenodd" clip-rule="evenodd" d="M429.963 515.345H439.938C439.164 512.399 437.223 510.309 434.95 510.309C432.678 510.309 430.736 512.399 429.963 515.345Z" fill="#353538"/>
<path fill-rule="evenodd" clip-rule="evenodd" d="M419.277 515.341H429.25C428.476 512.397 426.535 510.309 424.264 510.309C421.992 510.309 420.052 512.397 419.277 515.341Z" fill="#353538"/>
<path fill-rule="evenodd" clip-rule="evenodd" d="M429.627 518.192C429.627 520.203 429.115 522.039 428.273 523.431C426.201 523.618 424.321 524.315 422.882 525.372C422.763 525.459 422.648 525.548 422.535 525.64C420.687 524.7 419.298 522.307 418.996 519.387L415.53 518.126C415.131 517.98 414.925 517.539 415.07 517.14C415.215 516.741 415.656 516.535 416.056 516.681L418.944 517.732C418.966 517.181 419.026 516.645 419.12 516.13L417.136 513.765C416.863 513.44 416.905 512.955 417.23 512.682C417.556 512.409 418.041 512.452 418.314 512.777L419.619 514.333C420.536 511.934 422.28 510.314 424.281 510.314C427.233 510.314 429.627 513.841 429.627 518.192ZM421.458 515.345H427.51C427.908 516.156 428.141 517.136 428.141 518.192C428.141 520.989 426.504 523.256 424.484 523.256C422.464 523.256 420.826 520.989 420.826 518.192C420.826 517.136 421.059 516.156 421.458 515.345Z" fill="#3F3F43"/>
<path fill-rule="evenodd" clip-rule="evenodd" d="M435.907 525.372C436.083 525.502 436.254 525.638 436.418 525.779C438.419 524.953 439.945 522.454 440.259 519.371L443.681 518.126C444.08 517.981 444.286 517.539 444.14 517.14C443.995 516.741 443.554 516.535 443.155 516.681L440.309 517.716C440.287 517.156 440.224 516.611 440.126 516.088L442.075 513.765C442.348 513.44 442.305 512.955 441.98 512.682C441.655 512.409 441.17 512.452 440.897 512.777L439.621 514.297C438.701 511.918 436.964 510.314 434.973 510.314C432.021 510.314 429.627 513.841 429.627 518.192C429.627 520.23 430.153 522.088 431.014 523.486C432.889 523.733 434.584 524.401 435.907 525.372ZM437.568 515.345H431.517C431.118 516.157 430.885 517.136 430.885 518.192C430.885 520.989 432.523 523.256 434.543 523.256C436.563 523.256 438.2 520.989 438.2 518.192C438.2 517.136 437.967 516.157 437.568 515.345Z" fill="#3F3F43"/>
<path d="M423.791 526.612C422.489 527.568 421.715 528.807 421.608 530.123C422.324 530.392 423.126 530.127 424.339 529.53C424.494 529.453 424.655 529.372 424.821 529.288L424.822 529.287C426.053 528.664 427.584 527.889 429.314 527.889C430.963 527.889 432.271 528.602 433.366 529.199C433.583 529.318 433.793 529.432 433.994 529.535C434.633 529.861 435.228 530.106 435.876 530.194C436.268 530.247 436.696 530.245 437.18 530.152C437.082 528.824 436.307 527.574 434.996 526.612C433.591 525.58 431.613 524.919 429.394 524.919C427.175 524.919 425.197 525.58 423.791 526.612Z" fill="#3F3F43"/>
<path d="M423.789 534.266C422.82 533.555 422.144 532.686 421.818 531.746C422.96 531.876 424.066 531.379 425.018 530.909C425.191 530.824 425.362 530.739 425.531 530.654L425.531 530.654L425.697 530.571L427.977 531.4C428.841 531.714 429.788 531.714 430.652 531.4L432.771 530.629C432.94 530.72 433.114 530.812 433.295 530.904C433.991 531.259 434.767 531.595 435.669 531.717C436.084 531.774 436.516 531.784 436.97 531.736C436.645 532.68 435.967 533.552 434.994 534.266C433.589 535.298 431.61 535.959 429.391 535.959C427.172 535.959 425.194 535.298 423.789 534.266Z" fill="#3F3F43"/>
<path d="M206.904 716.696C219.595 716.696 230.746 710.101 237.116 700.151C244.419 696.785 248.861 687.938 247.262 679.132C246.373 674.236 243.785 670.283 240.324 667.854C235.12 654.479 222.119 645 206.904 645C192.001 645 179.221 654.094 173.813 667.036C169.706 669.335 166.573 673.641 165.575 679.132C163.882 688.457 168.963 697.829 177.042 700.688C183.466 710.338 194.442 716.696 206.904 716.696Z" fill="#515155"/>
<path fill-rule="evenodd" clip-rule="evenodd" d="M206.379 667.342C206.379 669.353 205.868 671.188 205.026 672.58C202.953 672.767 201.073 673.465 199.633 674.522C199.515 674.608 199.399 674.698 199.287 674.79C197.192 673.723 195.688 670.791 195.688 667.342C195.688 662.991 198.081 659.464 201.033 659.464C203.986 659.464 206.379 662.991 206.379 667.342ZM198.57 664.496H204.621C205.02 665.307 205.253 666.287 205.253 667.342C205.253 670.139 203.616 672.406 201.596 672.406C199.576 672.406 197.938 670.139 197.938 667.342C197.938 666.287 198.171 665.307 198.57 664.496Z" fill="#3F3F43"/>
<path d="M201.436 675.198C202.018 674.883 202.666 674.623 203.365 674.433C203.365 674.433 203.365 674.433 203.365 674.433C204.225 674.198 205.162 674.068 206.146 674.068C207.537 674.068 208.833 674.328 209.953 674.776C209.952 674.776 209.952 674.776 209.952 674.776C210.126 674.845 210.296 674.92 210.461 674.998C210.461 674.998 210.461 674.998 210.46 674.998C210.928 675.22 211.36 675.477 211.748 675.761C213.059 676.724 213.833 677.974 213.931 679.301C213.447 679.394 213.019 679.396 212.627 679.343C211.98 679.255 211.384 679.01 210.746 678.684C210.544 678.581 210.335 678.467 210.117 678.349L210.117 678.348C209.022 677.751 207.715 677.038 206.065 677.038C204.335 677.038 202.804 677.814 201.573 678.437L201.572 678.437C201.406 678.522 201.245 678.603 201.09 678.679C199.877 679.277 199.075 679.541 198.359 679.273C198.467 677.956 199.24 676.717 200.543 675.761C200.819 675.558 201.118 675.37 201.436 675.198C201.436 675.198 201.436 675.198 201.436 675.198Z" fill="#3F3F43"/>
<path fill-rule="evenodd" clip-rule="evenodd" d="M212.658 674.522C212.835 674.652 213.006 674.787 213.17 674.929C215.421 674 217.071 670.955 217.071 667.342C217.071 662.991 214.678 659.464 211.725 659.464C208.773 659.464 206.38 662.991 206.38 667.342C206.38 669.38 206.905 671.237 207.767 672.636C209.641 672.882 211.335 673.55 212.658 674.522ZM208.086 664.496H213.673C214.041 665.307 214.256 666.287 214.256 667.342C214.256 670.139 212.744 672.406 210.879 672.406C209.015 672.406 207.503 670.139 207.503 667.342C207.503 666.287 207.718 665.307 208.086 664.496Z" fill="#3F3F43"/>
<path d="M200.54 683.416C199.572 682.704 198.895 681.836 198.569 680.895C199.711 681.026 200.817 680.528 201.77 680.059C201.943 679.974 202.113 679.888 202.283 679.803L202.448 679.72L204.561 680.489C205.534 680.843 206.601 680.843 207.574 680.489L209.524 679.78C209.693 679.87 209.867 679.962 210.047 680.054C210.742 680.409 211.519 680.745 212.421 680.867C212.836 680.923 213.267 680.933 213.721 680.886C213.396 681.83 212.718 682.702 211.745 683.416C210.34 684.447 208.362 685.109 206.142 685.109C203.923 685.109 201.945 684.447 200.54 683.416Z" fill="#3F3F43"/>
<path d="M190.154 457.696C202.845 457.696 213.996 451.101 220.366 441.151C227.669 437.785 232.111 428.938 230.512 420.132C229.623 415.236 227.035 411.283 223.574 408.854C218.37 395.479 205.369 386 190.154 386C175.251 386 162.471 395.094 157.063 408.036C152.956 410.335 149.823 414.641 148.825 420.132C147.132 429.457 152.213 438.829 160.292 441.688C166.716 451.338 177.692 457.696 190.154 457.696Z" fill="#515155"/>
<path fill-rule="evenodd" clip-rule="evenodd" d="M189.625 408.344C189.625 410.355 189.114 412.19 188.272 413.582C186.199 413.769 184.319 414.466 182.879 415.524C182.761 415.61 182.645 415.7 182.533 415.792C180.438 414.725 178.934 411.793 178.934 408.344C178.934 403.993 181.327 400.466 184.279 400.466C187.232 400.466 189.625 403.993 189.625 408.344ZM181.816 405.497H187.868C188.266 406.309 188.499 407.288 188.499 408.344C188.499 411.141 186.862 413.408 184.842 413.408C182.822 413.408 181.184 411.141 181.184 408.344C181.184 407.288 181.417 406.309 181.816 405.497Z" fill="#3F3F43"/>
<path d="M184.682 416.2C185.264 415.885 185.913 415.625 186.611 415.435C186.611 415.435 186.611 415.435 186.611 415.435C187.471 415.2 188.408 415.07 189.392 415.07C190.783 415.07 192.079 415.33 193.199 415.778C193.198 415.778 193.198 415.778 193.198 415.778C193.372 415.847 193.542 415.922 193.708 416C193.707 416 193.707 416 193.706 416C194.174 416.222 194.606 416.479 194.994 416.763C196.305 417.726 197.08 418.976 197.177 420.303C196.693 420.396 196.265 420.398 195.873 420.345C195.226 420.257 194.63 420.012 193.992 419.686C193.79 419.583 193.581 419.469 193.364 419.351L193.363 419.35C192.268 418.753 190.961 418.04 189.311 418.04C187.582 418.04 186.05 418.816 184.82 419.439L184.818 419.439C184.652 419.524 184.492 419.605 184.337 419.681C183.123 420.279 182.321 420.543 181.605 420.275C181.713 418.958 182.487 417.719 183.789 416.763C184.065 416.56 184.364 416.372 184.682 416.2C184.682 416.2 184.682 416.2 184.682 416.2Z" fill="#3F3F43"/>
<path fill-rule="evenodd" clip-rule="evenodd" d="M195.904 415.524C196.081 415.654 196.252 415.789 196.416 415.931C198.667 415.002 200.317 411.957 200.317 408.344C200.317 403.993 197.924 400.466 194.972 400.466C192.019 400.466 189.626 403.993 189.626 408.344C189.626 410.382 190.151 412.239 191.013 413.638C192.887 413.884 194.581 414.552 195.904 415.524ZM191.332 405.498H196.919C197.287 406.309 197.502 407.289 197.502 408.344C197.502 411.141 195.99 413.408 194.126 413.408C192.261 413.408 190.749 411.141 190.749 408.344C190.749 407.289 190.964 406.309 191.332 405.498Z" fill="#3F3F43"/>
<path d="M183.787 424.418C182.818 423.706 182.142 422.838 181.815 421.897C182.957 422.027 184.063 421.53 185.016 421.061C185.189 420.976 185.359 420.89 185.529 420.805L185.694 420.722L187.807 421.491C188.78 421.845 189.847 421.845 190.82 421.491L192.77 420.782C192.939 420.872 193.113 420.964 193.293 421.056C193.988 421.411 194.765 421.747 195.667 421.869C196.082 421.925 196.514 421.935 196.968 421.888C196.642 422.832 195.964 423.704 194.991 424.418C193.586 425.449 191.608 426.111 189.388 426.111C187.169 426.111 185.191 425.449 183.787 424.418Z" fill="#3F3F43"/>
</g>
</g>
</svg>
