<svg width="600" height="473" viewBox="0 0 600 473" fill="none" xmlns="http://www.w3.org/2000/svg">
<g clip-path="url(#clip0_5603_179598)">
<rect width="600" height="473" fill="#F5F378"/>
<g opacity="0.96">
<path fill-rule="evenodd" clip-rule="evenodd" d="M514.331 273.705C515.602 266.007 507.849 258.139 496.497 254.887C502.706 248.066 504.589 239.931 500.425 234.555C496.405 229.365 487.921 228.232 479.233 231.066C476.813 224.831 472.025 220.228 465.919 219.21C458.67 217.996 451.576 222.144 447.305 229.195C440.962 226.656 434.245 226.764 429.193 230.09C423.03 234.149 420.993 241.906 423.141 249.839C416.921 252.422 412.404 257.232 411.407 263.306C409.996 271.918 416.03 280.414 425.631 284.568C422.419 289.734 421.776 294.916 424.519 298.464C427.93 302.876 435.605 303.547 443.815 300.793C446.33 308.275 452.387 314.049 460.202 315.36C469.597 316.942 478.65 311.606 482.907 302.837C488.43 305.837 493.896 306.51 497.56 304.089C502.369 300.913 502.761 293.342 499.182 285.282C507.291 283.902 513.33 279.631 514.303 273.7L514.331 273.705Z" fill="#F5F378"/>
<path fill-rule="evenodd" clip-rule="evenodd" d="M514.331 273.705C515.602 266.007 507.849 258.139 496.497 254.887C502.706 248.066 504.589 239.931 500.425 234.555C496.405 229.365 487.921 228.232 479.233 231.066C476.813 224.831 472.025 220.228 465.919 219.21C458.67 217.996 451.576 222.144 447.305 229.195C440.962 226.656 434.245 226.764 429.193 230.09C423.03 234.149 420.993 241.906 423.141 249.839C416.921 252.422 412.404 257.232 411.407 263.306C409.996 271.918 416.03 280.414 425.631 284.568C422.419 289.734 421.776 294.916 424.519 298.464C427.93 302.876 435.605 303.547 443.815 300.793C446.33 308.275 452.387 314.049 460.202 315.36C469.597 316.942 478.65 311.606 482.907 302.837C488.43 305.837 493.896 306.51 497.56 304.089C502.369 300.913 502.761 293.342 499.182 285.282C507.291 283.902 513.33 279.631 514.303 273.7L514.331 273.705Z" fill="#DDCA21" fill-opacity="0.23"/>
<path fill-rule="evenodd" clip-rule="evenodd" d="M475.503 252.412C475.503 256.821 473.489 260.535 470.742 261.666C470.542 261.493 470.333 261.328 470.117 261.169C468.505 259.985 466.441 259.171 464.157 258.87C463.106 257.164 462.465 254.898 462.465 252.412C462.465 247.106 465.384 242.805 468.984 242.805C472.584 242.805 475.503 247.106 475.503 252.412ZM472.07 252.412C472.07 255.823 470.226 258.588 467.952 258.588C465.678 258.588 463.835 255.823 463.835 252.412C463.835 249.001 465.678 246.236 467.952 246.236C470.226 246.236 472.07 249.001 472.07 252.412Z" fill="#F5F378"/>
<path fill-rule="evenodd" clip-rule="evenodd" d="M449.426 252.413C449.426 256.618 451.26 260.193 453.813 261.494C453.95 261.383 454.09 261.274 454.233 261.169C455.991 259.879 458.284 259.028 460.814 258.801C461.84 257.104 462.464 254.865 462.464 252.413C462.464 247.107 459.545 242.805 455.945 242.805C452.345 242.805 449.426 247.107 449.426 252.413ZM461.091 252.412C461.091 255.823 459.094 258.588 456.631 258.588C454.167 258.588 452.17 255.823 452.17 252.412C452.17 249.001 454.167 246.236 456.631 246.236C459.094 246.236 461.091 249.001 461.091 252.412Z" fill="#F5F378"/>
<path d="M455.343 262.681C453.755 263.846 452.811 265.357 452.68 266.963C453.553 267.29 454.531 266.968 456.011 266.239C456.2 266.146 456.396 266.046 456.599 265.944C458.1 265.184 459.968 264.238 462.077 264.238C464.089 264.238 465.684 265.107 467.019 265.836L467.019 265.836L467.02 265.836C467.285 265.981 467.539 266.12 467.785 266.245C468.564 266.643 469.29 266.941 470.08 267.049C470.558 267.113 471.08 267.111 471.67 266.997C471.551 265.379 470.606 263.854 469.007 262.681C467.294 261.423 464.882 260.616 462.176 260.616C459.469 260.616 457.057 261.423 455.343 262.681Z" fill="#F5F378"/>
<path d="M455.34 272.015C454.158 271.148 453.334 270.089 452.936 268.942C454.328 269.1 455.677 268.494 456.839 267.921C457.05 267.818 457.258 267.713 457.464 267.61L457.465 267.61L457.668 267.508L460.451 268.52C461.505 268.903 462.66 268.903 463.713 268.52L466.295 267.581C466.501 267.691 466.713 267.803 466.933 267.915C467.781 268.348 468.728 268.758 469.828 268.907C470.334 268.976 470.861 268.988 471.414 268.93C471.017 270.081 470.191 271.145 469.004 272.015C467.291 273.273 464.878 274.08 462.172 274.08C459.465 274.08 457.053 273.273 455.34 272.015Z" fill="#F5F378"/>
<path fill-rule="evenodd" clip-rule="evenodd" d="M216.406 -64.5597C213.463 -67.2653 207.941 -66.0478 204.075 -61.8404C202.833 -60.4892 201.976 -58.936 201.462 -57.3788C199.902 -57.5473 198.317 -57.6338 196.713 -57.6338C172.569 -57.6338 152.996 -38.0612 152.996 -13.9172C152.996 10.2268 172.569 29.7994 196.713 29.7994C220.857 29.7994 240.429 10.2268 240.429 -13.9172C240.429 -31.2352 230.359 -46.2013 215.755 -53.2795C218.711 -57.2915 219.07 -62.1119 216.406 -64.5597Z" fill="#F5F378"/>
<path fill-rule="evenodd" clip-rule="evenodd" d="M216.406 -64.5597C213.463 -67.2653 207.941 -66.0478 204.075 -61.8404C202.833 -60.4892 201.976 -58.936 201.462 -57.3788C199.902 -57.5473 198.317 -57.6338 196.713 -57.6338C172.569 -57.6338 152.996 -38.0612 152.996 -13.9172C152.996 10.2268 172.569 29.7994 196.713 29.7994C220.857 29.7994 240.429 10.2268 240.429 -13.9172C240.429 -31.2352 230.359 -46.2013 215.755 -53.2795C218.711 -57.2915 219.07 -62.1119 216.406 -64.5597Z" fill="#DDCA21" fill-opacity="0.23"/>
<path d="M4.8047 32.596C20.2818 32.596 33.8804 24.5532 41.649 12.4191C50.555 8.31462 55.9716 -2.4747 54.0214 -13.2139C52.9371 -19.1843 49.7818 -24.0052 45.5609 -26.9672C39.2146 -43.2777 23.3596 -54.8374 4.8047 -54.8374C-13.3699 -54.8374 -28.9542 -43.7467 -35.5494 -27.9639C-40.5578 -25.1606 -44.3793 -19.9102 -45.5955 -13.2137C-47.6608 -1.84108 -41.4646 9.58769 -31.6117 13.0744C-23.7777 24.8419 -10.392 32.596 4.8047 32.596Z" fill="#F5F378"/>
<path d="M4.8047 32.596C20.2818 32.596 33.8804 24.5532 41.649 12.4191C50.555 8.31462 55.9716 -2.4747 54.0214 -13.2139C52.9371 -19.1843 49.7818 -24.0052 45.5609 -26.9672C39.2146 -43.2777 23.3596 -54.8374 4.8047 -54.8374C-13.3699 -54.8374 -28.9542 -43.7467 -35.5494 -27.9639C-40.5578 -25.1606 -44.3793 -19.9102 -45.5955 -13.2137C-47.6608 -1.84108 -41.4646 9.58769 -31.6117 13.0744C-23.7777 24.8419 -10.392 32.596 4.8047 32.596Z" fill="#DDCA21" fill-opacity="0.23"/>
</g>
<g opacity="0.96">
<path fill-rule="evenodd" clip-rule="evenodd" d="M74.4325 463.492C75.7032 455.794 67.9501 447.926 56.5987 444.674C62.8074 437.853 64.6902 429.717 60.5266 424.341C56.5061 419.151 48.0227 418.019 39.3342 420.853C36.9145 414.618 32.1262 410.015 26.0208 408.997C18.7718 407.782 11.6776 411.931 7.40628 418.982C1.06375 416.443 -5.65331 416.551 -10.705 419.877C-16.8686 423.936 -18.9051 431.693 -16.7574 439.625C-22.977 442.208 -27.4947 447.019 -28.4914 453.092C-29.9022 461.704 -23.8683 470.201 -14.2674 474.354C-17.4793 479.521 -18.1219 484.702 -15.3792 488.251C-11.9684 492.662 -4.29328 493.334 3.91691 490.579C6.43127 498.061 12.489 503.835 20.3032 505.146C29.6988 506.729 38.752 501.392 43.0081 492.623C48.5318 495.623 53.998 496.297 57.6617 493.876C62.4706 490.699 62.8624 483.129 59.2831 475.069C67.3921 473.689 73.4317 469.418 74.4042 463.487L74.4325 463.492Z" fill="#F5F378"/>
<path fill-rule="evenodd" clip-rule="evenodd" d="M74.4325 463.492C75.7032 455.794 67.9501 447.926 56.5987 444.674C62.8074 437.853 64.6902 429.717 60.5266 424.341C56.5061 419.151 48.0227 418.019 39.3342 420.853C36.9145 414.618 32.1262 410.015 26.0208 408.997C18.7718 407.782 11.6776 411.931 7.40628 418.982C1.06375 416.443 -5.65331 416.551 -10.705 419.877C-16.8686 423.936 -18.9051 431.693 -16.7574 439.625C-22.977 442.208 -27.4947 447.019 -28.4914 453.092C-29.9022 461.704 -23.8683 470.201 -14.2674 474.354C-17.4793 479.521 -18.1219 484.702 -15.3792 488.251C-11.9684 492.662 -4.29328 493.334 3.91691 490.579C6.43127 498.061 12.489 503.835 20.3032 505.146C29.6988 506.729 38.752 501.392 43.0081 492.623C48.5318 495.623 53.998 496.297 57.6617 493.876C62.4706 490.699 62.8624 483.129 59.2831 475.069C67.3921 473.689 73.4317 469.418 74.4042 463.487L74.4325 463.492Z" fill="#DDCA21" fill-opacity="0.23"/>
<path fill-rule="evenodd" clip-rule="evenodd" d="M35.4329 442.198C35.4329 446.607 33.4182 450.321 30.6718 451.452C30.4717 451.28 30.2632 451.114 30.0471 450.955C28.435 449.771 26.3706 448.957 24.0868 448.656C23.0354 446.95 22.3946 444.685 22.3946 442.198C22.3946 436.893 25.3133 432.591 28.9137 432.591C32.5141 432.591 35.4329 436.893 35.4329 442.198ZM31.9995 442.198C31.9995 445.609 30.1561 448.374 27.8821 448.374C25.6082 448.374 23.7648 445.609 23.7648 442.198C23.7648 438.788 25.6082 436.022 27.8821 436.022C30.1561 436.022 31.9995 438.788 31.9995 442.198Z" fill="#F5F378"/>
<path fill-rule="evenodd" clip-rule="evenodd" d="M9.35547 442.199C9.35547 446.404 11.1893 449.979 13.7428 451.28C13.8794 451.169 14.0196 451.06 14.1631 450.955C15.9203 449.665 18.2141 448.814 20.7434 448.588C21.77 446.89 22.3938 444.652 22.3938 442.199C22.3938 436.893 19.475 432.592 15.8746 432.592C12.2742 432.592 9.35547 436.893 9.35547 442.199ZM21.021 442.198C21.021 445.609 19.024 448.374 16.5605 448.374C14.0971 448.374 12.1001 445.609 12.1001 442.198C12.1001 438.788 14.0971 436.022 16.5605 436.022C19.024 436.022 21.021 438.788 21.021 442.198Z" fill="#F5F378"/>
<path d="M15.2724 452.467C13.6844 453.632 12.7406 455.144 12.6097 456.749C13.483 457.076 14.4609 456.754 15.9404 456.025C16.1298 455.932 16.3261 455.832 16.5292 455.73C18.0298 454.97 19.8977 454.024 22.0068 454.024C24.0189 454.024 25.6133 454.893 26.9484 455.622L26.9488 455.622L26.9492 455.622C27.2143 455.767 27.4692 455.906 27.715 456.031C28.4938 456.429 29.2197 456.727 30.0096 456.835C30.4873 456.9 31.0096 456.897 31.5997 456.784C31.4805 455.165 30.5355 453.641 28.9368 452.467C27.2237 451.209 24.8114 450.402 22.1052 450.402C19.3991 450.402 16.9863 451.209 15.2724 452.467Z" fill="#F5F378"/>
<path d="M15.2697 461.801C14.0881 460.934 13.2637 459.875 12.8657 458.728C14.2582 458.886 15.6069 458.28 16.7689 457.708C16.9794 457.604 17.1875 457.5 17.3937 457.396L17.3943 457.396L17.5977 457.294L20.381 458.306C21.4345 458.689 22.5893 458.689 23.6429 458.306L26.2249 457.367C26.4309 457.477 26.6427 457.589 26.8625 457.702C27.7104 458.134 28.6577 458.544 29.7574 458.693C30.2636 458.762 30.7903 458.774 31.344 458.716C30.9469 459.867 30.1202 460.931 28.9341 461.801C27.2202 463.059 24.8075 463.866 22.1013 463.866C19.3951 463.866 16.9828 463.059 15.2697 461.801Z" fill="#F5F378"/>
<path fill-rule="evenodd" clip-rule="evenodd" d="M205.406 287.44C202.463 284.735 196.941 285.952 193.075 290.16C191.833 291.51 190.976 293.063 190.462 294.62C188.903 294.452 187.32 294.366 185.717 294.366C161.573 294.366 142 313.938 142 338.082C142 362.226 161.573 381.799 185.717 381.799C209.861 381.799 229.433 362.226 229.433 338.082C229.433 320.763 219.362 305.796 204.757 298.719C207.712 294.707 208.07 289.888 205.406 287.44Z" fill="#F5F378"/>
<path fill-rule="evenodd" clip-rule="evenodd" d="M205.406 287.44C202.463 284.735 196.941 285.952 193.075 290.16C191.833 291.51 190.976 293.063 190.462 294.62C188.903 294.452 187.32 294.366 185.717 294.366C161.573 294.366 142 313.938 142 338.082C142 362.226 161.573 381.799 185.717 381.799C209.861 381.799 229.433 362.226 229.433 338.082C229.433 320.763 219.362 305.796 204.757 298.719C207.712 294.707 208.07 289.888 205.406 287.44Z" fill="#DDCA21" fill-opacity="0.23"/>
<path fill-rule="evenodd" clip-rule="evenodd" d="M186.129 318.144H198.293C197.349 314.551 194.982 312.002 192.211 312.002C189.44 312.002 187.072 314.551 186.129 318.144Z" fill="#353538"/>
<path fill-rule="evenodd" clip-rule="evenodd" d="M173.086 318.139H185.247C184.303 314.548 181.937 312.002 179.167 312.002C176.397 312.002 174.03 314.548 173.086 318.139Z" fill="#353538"/>
<path fill-rule="evenodd" clip-rule="evenodd" d="M185.711 321.614C185.711 324.067 185.087 326.305 184.06 328.003C181.533 328.23 179.241 329.081 177.485 330.37C177.341 330.476 177.2 330.585 177.063 330.697C174.809 329.55 173.115 326.632 172.747 323.071L168.52 321.533C168.033 321.356 167.782 320.818 167.959 320.331C168.136 319.844 168.674 319.593 169.161 319.771L172.684 321.053C172.71 320.381 172.783 319.727 172.898 319.099L170.478 316.215C170.145 315.819 170.197 315.227 170.594 314.894C170.99 314.561 171.582 314.613 171.915 315.01L173.507 316.907C174.624 313.982 176.752 312.006 179.192 312.006C182.792 312.006 185.711 316.308 185.711 321.614ZM175.749 318.142H183.129C183.616 319.131 183.9 320.326 183.9 321.613C183.9 325.024 181.903 327.789 179.439 327.789C176.976 327.789 174.979 325.024 174.979 321.613C174.979 320.326 175.263 319.131 175.749 318.142Z" fill="#F5F378"/>
<path fill-rule="evenodd" clip-rule="evenodd" d="M193.369 330.37C193.585 330.528 193.793 330.694 193.993 330.866C196.433 329.859 198.295 326.812 198.677 323.051L202.85 321.533C203.337 321.356 203.588 320.818 203.41 320.331C203.233 319.844 202.695 319.593 202.209 319.771L198.738 321.034C198.711 320.35 198.635 319.685 198.515 319.048L200.891 316.215C201.224 315.819 201.173 315.227 200.776 314.894C200.379 314.561 199.788 314.613 199.455 315.01L197.899 316.864C196.777 313.963 194.659 312.006 192.231 312.006C188.63 312.006 185.712 316.308 185.712 321.614C185.712 324.099 186.352 326.364 187.403 328.07C189.689 328.371 191.756 329.185 193.369 330.37ZM195.396 318.142H188.016C187.53 319.131 187.246 320.326 187.246 321.613C187.246 325.024 189.243 327.789 191.706 327.789C194.17 327.789 196.167 325.024 196.167 321.613C196.167 320.326 195.882 319.131 195.396 318.142Z" fill="#F5F378"/>
<path d="M178.595 331.882C177.007 333.047 176.063 334.558 175.932 336.164C176.805 336.491 177.783 336.169 179.263 335.44C179.452 335.347 179.648 335.248 179.851 335.145L179.852 335.144C181.352 334.384 183.22 333.439 185.329 333.439C187.341 333.439 188.936 334.308 190.271 335.037C190.536 335.181 190.791 335.32 191.037 335.446C191.816 335.844 192.542 336.142 193.332 336.25C193.81 336.314 194.332 336.312 194.922 336.198C194.803 334.58 193.858 333.055 192.259 331.882C190.546 330.624 188.134 329.817 185.428 329.817C182.721 329.817 180.309 330.624 178.595 331.882Z" fill="#F5F378"/>
<path d="M178.592 341.216C177.41 340.349 176.586 339.29 176.188 338.143C177.58 338.301 178.929 337.695 180.091 337.122C180.302 337.019 180.51 336.914 180.716 336.811L180.717 336.811L180.919 336.709L183.699 337.72C184.753 338.103 185.908 338.103 186.961 337.72L189.545 336.781C189.752 336.891 189.964 337.004 190.185 337.116C191.033 337.549 191.98 337.959 193.08 338.108C193.586 338.177 194.113 338.189 194.666 338.131C194.269 339.282 193.443 340.346 192.256 341.216C190.543 342.474 188.13 343.281 185.424 343.281C182.717 343.281 180.305 342.474 178.592 341.216Z" fill="#F5F378"/>
<path d="M381.797 138.433C397.274 138.433 410.873 130.391 418.641 118.257C427.547 114.152 432.964 103.363 431.014 92.6235C429.929 86.6531 426.774 81.8322 422.553 78.8702C416.207 62.5597 400.352 51 381.797 51C363.622 51 348.038 62.0907 341.443 77.8735C336.434 80.6768 332.613 85.9272 331.397 92.6237C329.331 103.996 335.528 115.425 345.38 118.912C353.214 130.679 366.6 138.433 381.797 138.433Z" fill="#F5F378"/>
<path d="M381.797 138.433C397.274 138.433 410.873 130.391 418.641 118.257C427.547 114.152 432.964 103.363 431.014 92.6235C429.929 86.6531 426.774 81.8322 422.553 78.8702C416.207 62.5597 400.352 51 381.797 51C363.622 51 348.038 62.0907 341.443 77.8735C336.434 80.6768 332.613 85.9272 331.397 92.6237C329.331 103.996 335.528 115.425 345.38 118.912C353.214 130.679 366.6 138.433 381.797 138.433Z" fill="#DDCA21" fill-opacity="0.23"/>
<path fill-rule="evenodd" clip-rule="evenodd" d="M381.163 78.2463C381.163 80.6991 380.54 82.9372 379.513 84.6349C376.985 84.8621 374.693 85.713 372.937 87.0021C372.792 87.108 372.652 87.217 372.514 87.3291C369.96 86.0284 368.125 82.4531 368.125 78.2463C368.125 72.9404 371.044 68.6392 374.644 68.6392C378.245 68.6392 381.163 72.9404 381.163 78.2463ZM371.64 74.7753H379.02C379.506 75.7645 379.791 76.9594 379.791 78.2463C379.791 81.6572 377.794 84.4223 375.33 84.4223C372.867 84.4223 370.87 81.6572 370.87 78.2463C370.87 76.9594 371.154 75.7645 371.64 74.7753Z" fill="#F5F378"/>
<path d="M375.135 87.8267C375.845 87.4427 376.636 87.1263 377.487 86.894C377.487 86.8941 377.488 86.8939 377.487 86.894C378.537 86.6078 379.679 86.4494 380.879 86.4494C382.575 86.4494 384.156 86.7663 385.521 87.3126C385.521 87.3124 385.52 87.3122 385.52 87.3119C385.733 87.397 385.94 87.4876 386.142 87.5834C386.141 87.5832 386.141 87.583 386.14 87.5829C386.711 87.8538 387.237 88.1667 387.71 88.5139C389.309 89.6879 390.254 91.2123 390.373 92.8307C389.783 92.9441 389.261 92.9467 388.783 92.8819C387.993 92.7747 387.267 92.4759 386.489 92.0784C386.243 91.9529 385.988 91.8138 385.722 91.6691L385.722 91.6689C384.387 90.9407 382.792 90.0711 380.78 90.0711C378.671 90.0711 376.804 91.0168 375.303 91.7768L375.302 91.7774C375.099 91.8801 374.903 91.9793 374.714 92.0724C373.234 92.8009 372.256 93.1237 371.383 92.7964C371.514 91.1908 372.458 89.6796 374.046 88.5139C374.383 88.2665 374.747 88.0365 375.135 87.8267C375.135 87.8267 375.135 87.8267 375.135 87.8267Z" fill="#F5F378"/>
<path fill-rule="evenodd" clip-rule="evenodd" d="M388.821 87.0021C389.037 87.1606 389.245 87.3263 389.445 87.4987C392.189 86.3662 394.202 82.6527 394.202 78.2463C394.202 72.9404 391.284 68.6392 387.683 68.6392C384.083 68.6392 381.164 72.9404 381.164 78.2463C381.164 80.7317 381.805 82.9966 382.855 84.7023C385.141 85.0029 387.207 85.8175 388.821 87.0021ZM383.245 74.7755H390.058C390.507 75.7647 390.769 76.9595 390.769 78.2463C390.769 81.6572 388.926 84.4223 386.652 84.4223C384.378 84.4223 382.534 81.6572 382.534 78.2463C382.534 76.9595 382.797 75.7647 383.245 74.7755Z" fill="#F5F378"/>
<path d="M374.043 97.8487C372.862 96.9811 372.037 95.9219 371.639 94.7749C373.032 94.9336 374.38 94.327 375.542 93.7548C375.753 93.6511 375.961 93.5466 376.168 93.4431L376.369 93.342L378.946 94.2791C380.133 94.7107 381.434 94.7107 382.621 94.2791L384.999 93.4144C385.205 93.5247 385.416 93.6367 385.636 93.7488C386.484 94.1816 387.431 94.591 388.531 94.7402C389.037 94.8089 389.564 94.8211 390.117 94.7631C389.72 95.9146 388.894 96.9781 387.708 97.8487C385.994 99.1067 383.581 99.9132 380.875 99.9132C378.169 99.9132 375.756 99.1067 374.043 97.8487Z" fill="#F5F378"/>
</g>
<g opacity="0.96">
<path d="M577.832 322.491C575.899 319.748 572.894 318.292 570.064 319.05C566.177 320.092 564.093 324.916 565.408 329.826L565.416 329.853C547.596 335.373 534.652 351.984 534.652 371.619C534.652 395.763 554.225 415.335 578.369 415.335C602.513 415.335 622.086 395.763 622.086 371.619C622.086 352.107 609.304 335.582 591.657 329.958C593.069 324.633 590.804 319.409 586.589 318.279C583.355 317.413 579.91 319.207 577.832 322.491Z" fill="#F5F378"/>
<path d="M577.832 322.491C575.899 319.748 572.894 318.292 570.064 319.05C566.177 320.092 564.093 324.916 565.408 329.826L565.416 329.853C547.596 335.373 534.652 351.984 534.652 371.619C534.652 395.763 554.225 415.335 578.369 415.335C602.513 415.335 622.086 395.763 622.086 371.619C622.086 352.107 609.304 335.582 591.657 329.958C593.069 324.633 590.804 319.409 586.589 318.279C583.355 317.413 579.91 319.207 577.832 322.491Z" fill="#DDCA21" fill-opacity="0.23"/>
<path fill-rule="evenodd" clip-rule="evenodd" d="M565.16 338.77C565.16 338.252 565.58 337.833 566.098 337.833C566.616 337.833 567.036 338.252 567.036 338.77C567.036 340.295 567.582 341.302 568.215 341.937C569.254 340.906 570.505 340.304 571.852 340.304C575.452 340.304 578.371 344.605 578.371 349.911C578.371 352.364 577.747 354.603 576.72 356.301C574.192 356.527 571.898 357.379 570.141 358.668C569.998 358.773 569.858 358.882 569.721 358.993C567.167 357.692 565.333 354.117 565.333 349.911C565.333 348.721 565.48 347.582 565.748 346.531C565.31 346.435 564.832 346.262 564.375 345.938C563.454 345.284 562.787 344.148 562.468 342.338C562.378 341.828 562.718 341.342 563.228 341.252C563.738 341.162 564.224 341.502 564.314 342.012C564.581 343.525 565.074 344.135 565.46 344.409C565.728 344.599 566.024 344.688 566.359 344.735C566.563 344.266 566.794 343.824 567.049 343.415C566.028 342.476 565.16 340.983 565.16 338.77ZM576.998 349.911C576.998 353.322 575.001 356.087 572.538 356.087C570.074 356.087 568.077 353.322 568.077 349.911C568.077 346.5 570.074 343.735 572.538 343.735C575.001 343.735 576.998 346.5 576.998 349.911Z" fill="#F5F378"/>
<path fill-rule="evenodd" clip-rule="evenodd" d="M586.025 358.668C586.241 358.827 586.45 358.992 586.65 359.165C589.396 358.034 591.41 354.319 591.41 349.911C591.41 348.756 591.272 347.648 591.018 346.622C592.596 346.399 595.162 345.131 595.788 341.572C595.878 341.062 595.537 340.575 595.027 340.485C594.517 340.395 594.031 340.735 593.941 341.245C593.449 344.045 591.405 344.745 590.572 344.782C590.517 344.784 590.464 344.791 590.413 344.802C590.269 344.465 590.111 344.142 589.941 343.835C591.164 342.949 592.337 341.348 592.337 338.77C592.337 338.252 591.918 337.833 591.4 337.833C590.882 337.833 590.462 338.252 590.462 338.77C590.462 340.627 589.656 341.717 588.869 342.3C587.769 341.048 586.389 340.304 584.891 340.304C581.29 340.304 578.372 344.605 578.372 349.911C578.372 352.397 579.013 354.663 580.064 356.369C582.348 356.67 584.413 357.484 586.025 358.668ZM587.977 349.911C587.977 353.322 586.133 356.087 583.859 356.087C581.585 356.087 579.742 353.322 579.742 349.911C579.742 346.5 581.585 343.735 583.859 343.735C586.133 343.735 587.977 346.5 587.977 349.911Z" fill="#F5F378"/>
<path d="M571.251 360.18C569.663 361.345 568.719 362.857 568.588 364.462C569.461 364.789 570.439 364.467 571.919 363.738C572.108 363.645 572.304 363.546 572.507 363.443L572.508 363.443C574.008 362.683 575.876 361.737 577.985 361.737C579.997 361.737 581.592 362.607 582.927 363.335C583.192 363.48 583.447 363.619 583.693 363.744C584.472 364.142 585.198 364.44 585.988 364.548C586.466 364.612 586.988 364.61 587.578 364.496C587.459 362.878 586.514 361.354 584.915 360.18C583.202 358.922 580.79 358.115 578.084 358.115C575.377 358.115 572.965 358.922 571.251 360.18Z" fill="#F5F378"/>
<path d="M571.248 369.514C570.067 368.647 569.242 367.588 568.844 366.441C570.237 366.599 571.585 365.993 572.747 365.421C572.958 365.317 573.166 365.213 573.372 365.109L573.373 365.109L573.575 365.008L576.355 366.019C577.409 366.402 578.563 366.402 579.617 366.019L582.201 365.079C582.408 365.19 582.62 365.302 582.841 365.415C583.689 365.847 584.636 366.257 585.736 366.406C586.242 366.475 586.769 366.487 587.322 366.429C586.925 367.58 586.099 368.644 584.912 369.514C583.199 370.772 580.786 371.579 578.08 371.579C575.373 371.579 572.961 370.772 571.248 369.514Z" fill="#F5F378"/>
<path d="M383.797 442.433C399.274 442.433 412.873 434.391 420.641 422.257C429.547 418.152 434.964 407.363 433.014 396.623C431.929 390.653 428.774 385.832 424.553 382.87C418.207 366.56 402.352 355 383.797 355C365.622 355 350.038 366.091 343.443 381.873C338.434 384.677 334.613 389.927 333.397 396.624C331.331 407.996 337.528 419.425 347.38 422.912C355.214 434.679 368.6 442.433 383.797 442.433Z" fill="#F5F378"/>
<path d="M383.797 442.433C399.274 442.433 412.873 434.391 420.641 422.257C429.547 418.152 434.964 407.363 433.014 396.623C431.929 390.653 428.774 385.832 424.553 382.87C418.207 366.56 402.352 355 383.797 355C365.622 355 350.038 366.091 343.443 381.873C338.434 384.677 334.613 389.927 333.397 396.624C331.331 407.996 337.528 419.425 347.38 422.912C355.214 434.679 368.6 442.433 383.797 442.433Z" fill="#DDCA21" fill-opacity="0.23"/>
<path fill-rule="evenodd" clip-rule="evenodd" d="M383.159 382.249C383.159 384.702 382.536 386.94 381.509 388.638C378.981 388.865 376.689 389.716 374.933 391.005C374.789 391.111 374.648 391.22 374.51 391.332C371.956 390.031 370.121 386.456 370.121 382.249C370.121 376.943 373.04 372.642 376.64 372.642C380.241 372.642 383.159 376.943 383.159 382.249ZM373.636 378.778H381.016C381.502 379.767 381.787 380.962 381.787 382.249C381.787 385.66 379.79 388.425 377.326 388.425C374.863 388.425 372.866 385.66 372.866 382.249C372.866 380.962 373.15 379.767 373.636 378.778Z" fill="#F5F378"/>
<path d="M377.131 391.83C377.842 391.446 378.632 391.129 379.484 390.897C379.484 390.897 379.484 390.897 379.484 390.897C380.533 390.611 381.675 390.452 382.875 390.452C384.571 390.452 386.152 390.769 387.517 391.316C387.517 391.315 387.517 391.315 387.516 391.315C387.729 391.4 387.936 391.49 388.138 391.586C388.137 391.586 388.137 391.586 388.136 391.586C388.707 391.857 389.234 392.17 389.706 392.517C391.305 393.691 392.25 395.215 392.369 396.834C391.779 396.947 391.257 396.95 390.779 396.885C389.989 396.778 389.263 396.479 388.485 396.081C388.239 395.956 387.984 395.817 387.718 395.672L387.718 395.672C386.383 394.944 384.788 394.074 382.776 394.074C380.667 394.074 378.8 395.02 377.299 395.78L377.298 395.78C377.095 395.883 376.899 395.982 376.71 396.075C375.23 396.804 374.253 397.127 373.379 396.799C373.51 395.194 374.454 393.682 376.042 392.517C376.379 392.269 376.743 392.039 377.131 391.83C377.131 391.83 377.131 391.83 377.131 391.83Z" fill="#F5F378"/>
<path fill-rule="evenodd" clip-rule="evenodd" d="M390.817 391.005C391.033 391.164 391.241 391.329 391.441 391.502C394.186 390.369 396.199 386.656 396.199 382.249C396.199 376.943 393.28 372.642 389.679 372.642C386.079 372.642 383.16 376.943 383.16 382.249C383.16 384.735 383.801 387 384.852 388.705C387.137 389.006 389.204 389.82 390.817 391.005ZM385.242 378.778H392.054C392.503 379.768 392.765 380.962 392.765 382.249C392.765 385.66 390.922 388.425 388.648 388.425C386.374 388.425 384.53 385.66 384.53 382.249C384.53 380.962 384.793 379.768 385.242 378.778Z" fill="#F5F378"/>
<path d="M376.039 401.852C374.858 400.984 374.033 399.925 373.635 398.778C375.028 398.937 376.376 398.33 377.538 397.758C377.749 397.654 377.957 397.55 378.164 397.446L378.365 397.345L380.942 398.282C382.129 398.714 383.43 398.714 384.617 398.282L386.995 397.417C387.201 397.528 387.412 397.64 387.632 397.752C388.48 398.185 389.427 398.594 390.527 398.743C391.033 398.812 391.56 398.824 392.114 398.766C391.717 399.918 390.89 400.981 389.704 401.852C387.99 403.11 385.577 403.916 382.871 403.916C380.165 403.916 377.752 403.11 376.039 401.852Z" fill="#F5F378"/>
<path d="M652.328 217.126C667.805 217.126 681.404 209.083 689.172 196.949C698.078 192.844 703.495 182.055 701.545 171.316C700.461 165.345 697.305 160.525 693.084 157.563C686.738 141.252 670.883 129.692 652.328 129.692C634.153 129.692 618.569 140.783 611.974 156.566C606.966 159.369 603.144 164.62 601.928 171.316C599.863 182.689 606.059 194.117 615.912 197.604C623.746 209.372 637.131 217.126 652.328 217.126Z" fill="#F5F378"/>
<path d="M652.328 217.126C667.805 217.126 681.404 209.083 689.172 196.949C698.078 192.844 703.495 182.055 701.545 171.316C700.461 165.345 697.305 160.525 693.084 157.563C686.738 141.252 670.883 129.692 652.328 129.692C634.153 129.692 618.569 140.783 611.974 156.566C606.966 159.369 603.144 164.62 601.928 171.316C599.863 182.689 606.059 194.117 615.912 197.604C623.746 209.372 637.131 217.126 652.328 217.126Z" fill="#DDCA21" fill-opacity="0.23"/>
</g>
<g opacity="0.96">
<path d="M543.502 64.1941C558.979 64.1941 572.578 56.1513 580.346 44.0172C589.252 39.9128 594.669 29.1234 592.719 18.3842C591.634 12.4138 588.479 7.59291 584.258 4.63094C577.912 -11.6796 562.057 -23.2393 543.502 -23.2393C525.327 -23.2393 509.743 -12.1485 503.148 3.63424C498.139 6.43751 494.318 11.6879 493.102 18.3845C491.036 29.7571 497.233 41.1858 507.086 44.6726C514.92 56.4401 528.305 64.1941 543.502 64.1941Z" fill="#F5F378"/>
<path d="M543.502 64.1941C558.979 64.1941 572.578 56.1513 580.346 44.0172C589.252 39.9128 594.669 29.1234 592.719 18.3842C591.634 12.4138 588.479 7.59291 584.258 4.63094C577.912 -11.6796 562.057 -23.2393 543.502 -23.2393C525.327 -23.2393 509.743 -12.1485 503.148 3.63424C498.139 6.43751 494.318 11.6879 493.102 18.3845C491.036 29.7571 497.233 41.1858 507.086 44.6726C514.92 56.4401 528.305 64.1941 543.502 64.1941Z" fill="#DDCA21" fill-opacity="0.23"/>
<path fill-rule="evenodd" clip-rule="evenodd" d="M542.87 4.00806C542.87 6.4608 542.247 8.69888 541.22 10.3966C538.692 10.6238 536.4 11.4747 534.644 12.7638C534.499 12.8697 534.359 12.9787 534.221 13.0908C531.667 11.7901 529.832 8.21484 529.832 4.00806C529.832 -1.29784 532.751 -5.59912 536.351 -5.59912C539.952 -5.59912 542.87 -1.29784 542.87 4.00806ZM533.347 0.537005H540.727C541.213 1.52621 541.498 2.72113 541.498 4.00799C541.498 7.41892 539.501 10.184 537.037 10.184C534.574 10.184 532.577 7.41892 532.577 4.00799C532.577 2.72113 532.861 1.52621 533.347 0.537005Z" fill="#F5F378"/>
<path d="M536.842 13.5884C537.552 13.2044 538.343 12.888 539.195 12.6557C539.194 12.6558 539.195 12.6557 539.195 12.6557C540.244 12.3695 541.386 12.2111 542.586 12.2111C544.282 12.2111 545.863 12.528 547.228 13.0744C547.228 13.0741 547.227 13.0739 547.227 13.0736C547.44 13.1587 547.647 13.2493 547.849 13.3451C547.848 13.3449 547.848 13.3448 547.847 13.3446C548.418 13.6156 548.944 13.9284 549.417 14.2757C551.016 15.4496 551.961 16.9741 552.08 18.5925C551.49 18.7058 550.968 18.7085 550.49 18.6436C549.7 18.5365 548.974 18.2376 548.196 17.8401C547.95 17.7146 547.695 17.5755 547.429 17.4309L547.429 17.4306C546.094 16.7024 544.499 15.8328 542.487 15.8328C540.378 15.8328 538.511 16.7786 537.01 17.5385L537.009 17.5392C536.806 17.6418 536.61 17.7411 536.421 17.8341C534.941 18.5626 533.963 18.8854 533.09 18.5581C533.221 16.9525 534.165 15.4413 535.753 14.2757C536.09 14.0282 536.454 13.7982 536.842 13.5884C536.842 13.5884 536.842 13.5884 536.842 13.5884Z" fill="#F5F378"/>
<path fill-rule="evenodd" clip-rule="evenodd" d="M550.528 12.7638C550.744 12.9223 550.952 13.088 551.152 13.2604C553.896 12.1279 555.909 8.41441 555.909 4.00806C555.909 -1.29784 552.991 -5.59912 549.39 -5.59912C545.79 -5.59912 542.871 -1.29784 542.871 4.00806C542.871 6.49342 543.512 8.75837 544.562 10.4641C546.848 10.7646 548.914 11.5792 550.528 12.7638ZM544.952 0.537212H551.765C552.214 1.52637 552.476 2.72122 552.476 4.00799C552.476 7.41892 550.633 10.184 548.359 10.184C546.085 10.184 544.241 7.41892 544.241 4.00799C544.241 2.72122 544.504 1.52637 544.952 0.537212Z" fill="#F5F378"/>
<path d="M535.75 23.6104C534.569 22.7428 533.744 21.6837 533.346 20.5367C534.739 20.6953 536.087 20.0887 537.249 19.5165C537.46 19.4128 537.668 19.3084 537.875 19.2048L538.076 19.1037L540.653 20.0408C541.84 20.4724 543.141 20.4724 544.328 20.0408L546.706 19.1761C546.912 19.2864 547.123 19.3984 547.343 19.5105C548.191 19.9433 549.138 20.3527 550.238 20.502C550.744 20.5707 551.271 20.5828 551.825 20.5248C551.427 21.6764 550.601 22.7398 549.415 23.6104C547.701 24.8684 545.288 25.6749 542.582 25.6749C539.876 25.6749 537.463 24.8684 535.75 23.6104Z" fill="#F5F378"/>
</g>
<path fill-rule="evenodd" clip-rule="evenodd" d="M164.264 176.705C165.535 169.007 157.782 161.139 146.431 157.887C152.639 151.066 154.522 142.931 150.359 137.555C146.338 132.365 137.855 131.232 129.166 134.066C126.747 127.831 121.958 123.228 115.853 122.21C108.604 120.996 101.51 125.144 97.2383 132.195C90.8958 129.656 84.1787 129.764 79.127 133.09C72.9635 137.149 70.9269 144.906 73.0746 152.839C66.8551 155.422 62.3374 160.232 61.3407 166.306C59.9298 174.918 65.9638 183.414 75.5646 187.568C72.3527 192.734 71.7101 197.916 74.4528 201.464C77.8637 205.876 85.5388 206.547 93.7489 203.793C96.2633 211.275 102.321 217.049 110.135 218.36C119.531 219.942 128.584 214.606 132.84 205.837C138.364 208.837 143.83 209.51 147.494 207.089C152.303 203.913 152.694 196.342 149.115 188.282C157.224 186.902 163.264 182.631 164.236 176.7L164.264 176.705Z" fill="#F5F378"/>
<path fill-rule="evenodd" clip-rule="evenodd" d="M164.264 176.705C165.535 169.007 157.782 161.139 146.431 157.887C152.639 151.066 154.522 142.931 150.359 137.555C146.338 132.365 137.855 131.232 129.166 134.066C126.747 127.831 121.958 123.228 115.853 122.21C108.604 120.996 101.51 125.144 97.2383 132.195C90.8958 129.656 84.1787 129.764 79.127 133.09C72.9635 137.149 70.9269 144.906 73.0746 152.839C66.8551 155.422 62.3374 160.232 61.3407 166.306C59.9298 174.918 65.9638 183.414 75.5646 187.568C72.3527 192.734 71.7101 197.916 74.4528 201.464C77.8637 205.876 85.5388 206.547 93.7489 203.793C96.2633 211.275 102.321 217.049 110.135 218.36C119.531 219.942 128.584 214.606 132.84 205.837C138.364 208.837 143.83 209.51 147.494 207.089C152.303 203.913 152.694 196.342 149.115 188.282C157.224 186.902 163.264 182.631 164.236 176.7L164.264 176.705Z" fill="#DDCA21" fill-opacity="0.23"/>
<path fill-rule="evenodd" clip-rule="evenodd" d="M125.503 155.411C125.503 159.82 123.489 163.534 120.742 164.665C120.542 164.492 120.333 164.327 120.117 164.168C118.505 162.984 116.441 162.17 114.157 161.869C113.106 160.163 112.465 157.897 112.465 155.411C112.465 150.105 115.384 145.804 118.984 145.804C122.584 145.804 125.503 150.105 125.503 155.411ZM122.07 155.411C122.07 158.822 120.226 161.587 117.952 161.587C115.678 161.587 113.835 158.822 113.835 155.411C113.835 152 115.678 149.235 117.952 149.235C120.226 149.235 122.07 152 122.07 155.411Z" fill="#F5F378"/>
<path fill-rule="evenodd" clip-rule="evenodd" d="M99.4258 155.412C99.4258 159.617 101.26 163.192 103.813 164.493C103.95 164.382 104.09 164.273 104.233 164.168C105.991 162.878 108.284 162.027 110.814 161.8C111.84 160.103 112.464 157.864 112.464 155.412C112.464 150.106 109.545 145.804 105.945 145.804C102.345 145.804 99.4258 150.106 99.4258 155.412ZM111.091 155.411C111.091 158.822 109.094 161.587 106.631 161.587C104.167 161.587 102.17 158.822 102.17 155.411C102.17 152 104.167 149.235 106.631 149.235C109.094 149.235 111.091 152 111.091 155.411Z" fill="#F5F378"/>
<path d="M105.343 165.68C103.755 166.845 102.811 168.356 102.68 169.962C103.553 170.289 104.531 169.967 106.011 169.238C106.2 169.145 106.396 169.045 106.599 168.943C108.1 168.183 109.968 167.237 112.077 167.237C114.089 167.237 115.684 168.106 117.019 168.835L117.019 168.835L117.02 168.835C117.285 168.98 117.539 169.119 117.785 169.244C118.564 169.642 119.29 169.94 120.08 170.048C120.558 170.112 121.08 170.11 121.67 169.996C121.551 168.378 120.606 166.854 119.007 165.68C117.294 164.422 114.882 163.615 112.176 163.615C109.469 163.615 107.057 164.422 105.343 165.68Z" fill="#F5F378"/>
<path d="M105.34 175.014C104.158 174.147 103.334 173.088 102.936 171.941C104.328 172.099 105.677 171.493 106.839 170.92C107.05 170.817 107.258 170.712 107.464 170.609L107.465 170.609L107.668 170.507L110.451 171.519C111.505 171.902 112.66 171.902 113.713 171.519L116.295 170.58C116.501 170.69 116.713 170.802 116.933 170.914C117.781 171.347 118.728 171.757 119.828 171.906C120.334 171.975 120.861 171.987 121.414 171.929C121.017 173.08 120.191 174.144 119.004 175.014C117.291 176.272 114.878 177.079 112.172 177.079C109.465 177.079 107.053 176.272 105.34 175.014Z" fill="#F5F378"/>
</g>
<defs>
<clipPath id="clip0_5603_179598">
<rect width="600" height="473" fill="white"/>
</clipPath>
</defs>
</svg>
