<svg width="21" height="20" viewBox="0 0 21 20" fill="none" xmlns="http://www.w3.org/2000/svg">
<g clip-path="url(#clip0_6372_143549)">
<path d="M10.8565 1.28378C12.9281 1.22761 18.976 10.0366 16.6397 15.2233C16.6397 15.2233 14.8174 19.0164 10.1124 19.1593C5.40739 19.3021 3.93011 15.6522 3.93011 15.6522C1.97074 11.565 5.29839 5.83393 6.33419 5.80584C6.90625 5.79033 6.88384 6.82601 7.3419 6.81359C7.79997 6.80117 7.90887 6.18363 8.4339 4.71385C8.80726 3.66866 10.0278 1.30624 10.8565 1.28378Z" fill="#FF5E5E"/>
<path d="M10.6365 10.2425C10.3524 9.9784 9.92493 9.9784 9.64089 10.2425C8.73024 11.0891 6.88867 13.0494 6.88867 15.0568C6.88867 16.8068 8.30534 18.3068 10.1387 18.3068C11.972 18.3068 13.3887 16.8901 13.3887 15.0568C13.3887 13.0494 11.5471 11.0891 10.6365 10.2425Z" fill="#FFA3A3"/>
</g>
<defs>
<clipPath id="clip0_6372_143549">
<rect width="20" height="20" fill="white" transform="matrix(-1 -8.74228e-08 -8.74228e-08 1 20.5 0)"/>
</clipPath>
</defs>
</svg>
