<svg width="375" height="371" viewBox="0 0 375 371" fill="none" xmlns="http://www.w3.org/2000/svg">
<path d="M183.408 55.6311C181.823 53.382 179.358 52.1881 177.038 52.8098C173.851 53.6639 172.141 57.62 173.22 61.646L173.226 61.6682C158.614 66.1951 148 79.8162 148 95.9164C148 115.715 164.05 131.764 183.848 131.764C203.646 131.764 219.696 115.715 219.696 95.9164C219.696 79.9171 209.215 66.3659 194.744 61.7544C195.902 57.3882 194.045 53.1042 190.588 52.1779C187.936 51.4674 185.112 52.9388 183.408 55.6311Z" fill="#3F3F43"/>
<path fill-rule="evenodd" clip-rule="evenodd" d="M173.017 68.9808C173.017 68.5562 173.361 68.2119 173.786 68.2119C174.21 68.2119 174.555 68.5562 174.555 68.9808C174.555 70.2309 175.003 71.0573 175.521 71.5778C176.373 70.7322 177.4 70.2386 178.504 70.2386C181.456 70.2386 183.85 73.7657 183.85 78.1166C183.85 80.1282 183.338 81.9637 182.496 83.3559C180.423 83.5419 178.542 84.2398 177.101 85.2972C176.984 85.3836 176.869 85.4726 176.757 85.5641C174.662 84.4971 173.158 81.5657 173.158 78.1166C173.158 77.1409 173.279 76.2067 173.499 75.3444C173.14 75.2662 172.748 75.1243 172.373 74.8587C171.617 74.3225 171.07 73.3907 170.809 71.9063C170.735 71.4881 171.014 71.0893 171.432 71.0156C171.851 70.9419 172.249 71.2211 172.323 71.6393C172.542 72.8801 172.946 73.3798 173.263 73.6044C173.483 73.7601 173.725 73.8338 174 73.8721C174.167 73.4871 174.357 73.125 174.566 72.7897C173.728 72.0198 173.017 70.7953 173.017 68.9808ZM182.724 78.1166C182.724 80.9135 181.086 83.181 179.066 83.181C177.046 83.181 175.409 80.9135 175.409 78.1166C175.409 75.3196 177.046 73.0522 179.066 73.0522C181.086 73.0522 182.724 75.3196 182.724 78.1166Z" fill="#515155"/>
<path fill-rule="evenodd" clip-rule="evenodd" d="M190.126 85.2972C190.303 85.4272 190.474 85.5631 190.638 85.7045C192.89 84.7769 194.542 81.731 194.542 78.1166C194.542 77.169 194.428 76.2605 194.22 75.419C195.515 75.2365 197.619 74.197 198.132 71.2782C198.205 70.86 197.926 70.4609 197.508 70.387C197.089 70.313 196.691 70.5921 196.617 71.0103C196.214 73.3066 194.538 73.88 193.854 73.9103C193.81 73.9123 193.766 73.918 193.724 73.9272C193.606 73.6509 193.477 73.386 193.337 73.1342C194.34 72.4076 195.302 71.0942 195.302 68.9808C195.302 68.5562 194.958 68.2119 194.533 68.2119C194.109 68.2119 193.764 68.5562 193.764 68.9808C193.764 70.5032 193.103 71.3968 192.458 71.8752C191.556 70.849 190.424 70.2386 189.196 70.2386C186.244 70.2386 183.85 73.7657 183.85 78.1166C183.85 80.1552 184.376 82.013 185.238 83.4118C187.111 83.6586 188.804 84.3264 190.126 85.2972ZM191.726 78.1166C191.726 80.9135 190.215 83.181 188.35 83.181C186.485 83.181 184.974 80.9135 184.974 78.1166C184.974 75.3196 186.485 73.0522 188.35 73.0522C190.215 73.0522 191.726 75.3196 191.726 78.1166Z" fill="#515155"/>
<path d="M178.011 86.5368C176.709 87.4926 175.935 88.7318 175.828 90.0484C176.544 90.3168 177.346 90.0521 178.559 89.4547C178.714 89.3783 178.875 89.2968 179.041 89.2125L179.042 89.2123C180.272 88.5892 181.804 87.8136 183.533 87.8136C185.183 87.8136 186.491 88.5269 187.586 89.124C187.803 89.2426 188.012 89.3567 188.214 89.4597C188.853 89.7856 189.448 90.0306 190.096 90.1185C190.487 90.1717 190.916 90.1695 191.4 90.0766C191.302 88.7495 190.527 87.4994 189.216 86.5368C187.811 85.5052 185.833 84.8438 183.614 84.8438C181.395 84.8438 179.416 85.5052 178.011 86.5368Z" fill="#515155"/>
<path d="M178.009 94.1913C177.04 93.4799 176.364 92.6114 176.038 91.6708C177.179 91.8009 178.285 91.3035 179.238 90.8343C179.411 90.7493 179.581 90.6638 179.75 90.5789L179.751 90.5787L179.917 90.4957L182.197 91.3247C183.06 91.6389 184.007 91.6389 184.871 91.3247L186.991 90.5541C187.16 90.6449 187.334 90.7371 187.515 90.8294C188.21 91.1843 188.987 91.52 189.889 91.6424C190.304 91.6987 190.736 91.7087 191.19 91.6611C190.864 92.6054 190.186 93.4774 189.214 94.1913C187.808 95.2229 185.83 95.8842 183.611 95.8842C181.392 95.8842 179.414 95.2229 178.009 94.1913Z" fill="#515155"/>
<path fill-rule="evenodd" clip-rule="evenodd" d="M340.791 327.859C341.836 321.546 335.461 315.095 326.128 312.428C331.233 306.834 332.781 300.163 329.358 295.755C326.052 291.499 319.077 290.57 311.933 292.894C309.944 287.782 306.007 284.007 300.987 283.172C295.027 282.176 289.194 285.578 285.683 291.36C280.468 289.278 274.945 289.367 270.792 292.094C265.724 295.422 264.049 301.783 265.815 308.288C260.702 310.406 256.987 314.35 256.168 319.331C255.008 326.393 259.969 333.36 267.863 336.766C265.222 341.003 264.693 345.251 266.948 348.161C269.753 351.779 276.063 352.329 282.814 350.07C284.881 356.206 289.862 360.941 296.286 362.016C304.011 363.313 311.455 358.937 314.954 351.747C319.496 354.207 323.99 354.759 327.002 352.774C330.956 350.169 331.278 343.961 328.335 337.352C335.003 336.22 339.968 332.718 340.768 327.854L340.791 327.859Z" fill="#3F3F43"/>
<path fill-rule="evenodd" clip-rule="evenodd" d="M308.895 310.398C308.895 314.013 307.243 317.059 304.991 317.987C304.827 317.845 304.656 317.709 304.479 317.579C303.157 316.608 301.464 315.941 299.592 315.694C298.729 314.295 298.204 312.437 298.204 310.398C298.204 306.048 300.597 302.521 303.55 302.521C306.502 302.521 308.895 306.048 308.895 310.398ZM306.08 310.398C306.08 313.195 304.568 315.463 302.704 315.463C300.839 315.463 299.327 313.195 299.327 310.398C299.327 307.601 300.839 305.334 302.704 305.334C304.568 305.334 306.08 307.601 306.08 310.398Z" fill="#515155"/>
<path fill-rule="evenodd" clip-rule="evenodd" d="M287.512 310.399C287.512 313.847 289.015 316.778 291.109 317.846C291.221 317.754 291.336 317.665 291.454 317.579C292.895 316.521 294.776 315.823 296.85 315.638C297.692 314.245 298.203 312.41 298.203 310.399C298.203 306.048 295.81 302.521 292.857 302.521C289.905 302.521 287.512 306.048 287.512 310.399ZM297.078 310.398C297.078 313.195 295.44 315.463 293.42 315.463C291.4 315.463 289.762 313.195 289.762 310.398C289.762 307.601 291.4 305.334 293.42 305.334C295.44 305.334 297.078 307.601 297.078 310.398Z" fill="#515155"/>
<path d="M292.364 318.818C291.061 319.774 290.288 321.014 290.18 322.33C290.896 322.599 291.698 322.334 292.911 321.736C293.067 321.66 293.228 321.578 293.394 321.494C294.625 320.871 296.156 320.095 297.886 320.095C299.536 320.095 300.843 320.808 301.938 321.406L301.938 321.406L301.939 321.406C302.156 321.524 302.365 321.638 302.567 321.741C303.205 322.067 303.801 322.312 304.448 322.4C304.84 322.453 305.268 322.451 305.752 322.358C305.654 321.031 304.88 319.781 303.569 318.818C302.164 317.787 300.186 317.126 297.967 317.126C295.748 317.126 293.769 317.787 292.364 318.818Z" fill="#515155"/>
<path d="M292.361 326.473C291.393 325.762 290.716 324.893 290.39 323.953C291.532 324.083 292.638 323.585 293.591 323.116C293.763 323.031 293.934 322.945 294.103 322.861L294.104 322.86L294.27 322.777L296.553 323.607C297.417 323.921 298.364 323.921 299.228 323.607L301.345 322.837C301.514 322.927 301.687 323.019 301.868 323.111C302.563 323.466 303.34 323.802 304.241 323.924C304.657 323.98 305.088 323.99 305.542 323.943C305.217 324.887 304.539 325.759 303.566 326.473C302.161 327.505 300.182 328.166 297.963 328.166C295.744 328.166 293.766 327.505 292.361 326.473Z" fill="#515155"/>
<path fill-rule="evenodd" clip-rule="evenodd" d="M45.7911 335.859C46.8359 329.546 40.4613 323.095 31.1282 320.428C36.233 314.834 37.781 308.163 34.3578 303.755C31.0521 299.499 24.0771 298.57 16.9334 300.894C14.944 295.782 11.0071 292.007 5.98726 291.172C0.0271568 290.176 -5.80559 293.578 -9.31748 299.36C-14.5323 297.278 -20.055 297.367 -24.2085 300.094C-29.2761 303.422 -30.9506 309.783 -29.1847 316.288C-34.2984 318.406 -38.0128 322.35 -38.8323 327.331C-39.9923 334.393 -35.0312 341.36 -27.1375 344.766C-29.7783 349.003 -30.3066 353.251 -28.0516 356.161C-25.2472 359.779 -18.9368 360.329 -12.1864 358.07C-10.1191 364.206 -5.13845 368.941 1.2863 370.016C9.01133 371.313 16.4548 366.937 19.9541 359.747C24.4957 362.207 28.99 362.759 32.0022 360.774C35.9561 358.169 36.2783 351.961 33.3354 345.352C40.0025 344.22 44.9682 340.718 45.7678 335.854L45.7911 335.859Z" fill="#3F3F43"/>
<path fill-rule="evenodd" clip-rule="evenodd" d="M13.8954 318.398C13.8954 322.013 12.2434 325.059 9.99131 325.987C9.82716 325.845 9.65618 325.709 9.47899 325.579C8.15708 324.608 6.46429 323.941 4.59154 323.694C3.72934 322.295 3.20389 320.437 3.20389 318.398C3.20389 314.048 5.59726 310.521 8.54964 310.521C11.502 310.521 13.8954 314.048 13.8954 318.398ZM11.08 318.398C11.08 321.195 9.56837 323.463 7.70371 323.463C5.83905 323.463 4.32745 321.195 4.32745 318.398C4.32745 315.601 5.83905 313.334 7.70371 313.334C9.56837 313.334 11.08 315.601 11.08 318.398Z" fill="#515155"/>
<path fill-rule="evenodd" clip-rule="evenodd" d="M-7.48828 318.399C-7.48828 321.847 -5.98456 324.778 -3.89064 325.846C-3.77863 325.754 -3.66369 325.665 -3.54603 325.579C-2.1051 324.521 -0.2241 323.823 1.84993 323.638C2.69171 322.245 3.20321 320.41 3.20321 318.399C3.20321 314.048 0.80984 310.521 -2.14253 310.521C-5.09491 310.521 -7.48828 314.048 -7.48828 318.399ZM2.07754 318.398C2.07754 321.195 0.439967 323.463 -1.58008 323.463C-3.60012 323.463 -5.23769 321.195 -5.23769 318.398C-5.23769 315.601 -3.60012 313.334 -1.58008 313.334C0.439967 313.334 2.07754 315.601 2.07754 318.398Z" fill="#515155"/>
<path d="M-2.63632 326.818C-3.93853 327.774 -4.71244 329.014 -4.81977 330.33C-4.10368 330.599 -3.30176 330.334 -2.08855 329.736C-1.93331 329.66 -1.7723 329.578 -1.60579 329.494C-0.375233 328.871 1.15642 328.095 2.88591 328.095C4.53586 328.095 5.8433 328.808 6.93808 329.406L6.93841 329.406L6.93872 329.406C7.15609 329.524 7.36508 329.638 7.5667 329.741C8.2053 330.067 8.80055 330.312 9.44827 330.4C9.83997 330.453 10.2682 330.451 10.7521 330.358C10.6544 329.031 9.87951 327.781 8.56859 326.818C7.1638 325.787 5.18574 325.126 2.96664 325.126C0.747537 325.126 -1.23092 325.787 -2.63632 326.818Z" fill="#515155"/>
<path d="M-2.63858 334.473C-3.60746 333.762 -4.28354 332.893 -4.60984 331.953C-3.46804 332.083 -2.36205 331.585 -1.40921 331.116C-1.23659 331.031 -1.06597 330.945 -0.896844 330.861L-0.896413 330.86L-0.729549 330.777L1.55272 331.607C2.41665 331.921 3.36359 331.921 4.22752 331.607L6.34477 330.837C6.51369 330.927 6.68739 331.019 6.86758 331.111C7.56293 331.466 8.33968 331.802 9.24148 331.924C9.65657 331.98 10.0884 331.99 10.5425 331.943C10.2169 332.887 9.53897 333.759 8.56633 334.473C7.16093 335.505 5.18248 336.166 2.96338 336.166C0.744275 336.166 -1.23379 335.505 -2.63858 334.473Z" fill="#515155"/>
<path fill-rule="evenodd" clip-rule="evenodd" d="M28.5411 90.6858C29.5859 84.3735 23.2113 77.9217 13.8782 75.2551C18.983 69.6614 20.531 62.9904 17.1078 58.5822C13.8021 54.3264 6.82713 53.3975 -0.316555 55.7214C-2.30596 50.6088 -6.24292 46.8341 -11.2627 45.9993C-17.2228 45.0036 -23.0556 48.4052 -26.5675 54.1873C-31.7823 52.1051 -37.305 52.194 -41.4585 54.9213C-46.5261 58.2494 -48.2006 64.6103 -46.4347 71.115C-51.5484 73.2333 -55.2628 77.1776 -56.0823 82.1582C-57.2423 89.22 -52.2812 96.1871 -44.3875 99.5932C-47.0283 103.83 -47.5566 108.078 -45.3016 110.989C-42.4972 114.606 -36.1868 115.157 -29.4364 112.898C-27.3691 119.033 -22.3885 123.768 -15.9637 124.843C-8.23867 126.14 -0.795197 121.765 2.70413 114.574C7.24573 117.034 11.74 117.586 14.7522 115.601C18.7061 112.996 19.0283 106.789 16.0854 100.179C22.7525 99.0475 27.7182 95.5454 28.5178 90.6816L28.5411 90.6858Z" fill="#3F3F43"/>
<path fill-rule="evenodd" clip-rule="evenodd" d="M367.275 109.16C364.861 106.941 360.334 107.94 357.163 111.39C356.145 112.498 355.442 113.772 355.02 115.049C353.742 114.911 352.444 114.84 351.129 114.84C331.331 114.84 315.281 130.89 315.281 150.688C315.281 170.486 331.331 186.536 351.129 186.536C370.927 186.536 386.977 170.486 386.977 150.688C386.977 136.486 378.719 124.213 366.742 118.409C369.165 115.12 369.459 111.167 367.275 109.16Z" fill="#3F3F43"/>
<path fill-rule="evenodd" clip-rule="evenodd" d="M351.463 134.337H361.438C360.664 131.391 358.723 129.301 356.45 129.301C354.178 129.301 352.236 131.391 351.463 134.337Z" fill="#353538"/>
<path fill-rule="evenodd" clip-rule="evenodd" d="M340.777 134.333H350.75C349.976 131.389 348.035 129.301 345.764 129.301C343.492 129.301 341.552 131.389 340.777 134.333Z" fill="#353538"/>
<path fill-rule="evenodd" clip-rule="evenodd" d="M351.127 137.184C351.127 139.196 350.615 141.031 349.773 142.423C347.701 142.61 345.821 143.308 344.382 144.364C344.263 144.451 344.148 144.541 344.035 144.633C342.187 143.692 340.798 141.299 340.496 138.38L337.03 137.118C336.631 136.973 336.425 136.531 336.57 136.132C336.715 135.733 337.156 135.528 337.556 135.673L340.444 136.724C340.466 136.173 340.526 135.637 340.62 135.122L338.636 132.758C338.363 132.432 338.405 131.947 338.73 131.674C339.056 131.401 339.541 131.444 339.814 131.769L341.119 133.325C342.036 130.926 343.78 129.306 345.781 129.306C348.733 129.306 351.127 132.833 351.127 137.184ZM342.958 134.337H349.01C349.408 135.149 349.641 136.129 349.641 137.184C349.641 139.981 348.004 142.248 345.984 142.248C343.964 142.248 342.326 139.981 342.326 137.184C342.326 136.129 342.559 135.149 342.958 134.337Z" fill="#515155"/>
<path fill-rule="evenodd" clip-rule="evenodd" d="M357.407 144.364C357.583 144.494 357.754 144.63 357.918 144.771C359.919 143.945 361.445 141.447 361.759 138.363L365.181 137.118C365.58 136.973 365.786 136.531 365.64 136.132C365.495 135.733 365.054 135.528 364.655 135.673L361.809 136.709C361.787 136.148 361.724 135.603 361.626 135.08L363.575 132.758C363.848 132.432 363.805 131.947 363.48 131.674C363.155 131.401 362.67 131.444 362.397 131.769L361.121 133.29C360.201 130.91 358.464 129.306 356.473 129.306C353.521 129.306 351.127 132.833 351.127 137.184C351.127 139.222 351.653 141.08 352.514 142.479C354.389 142.725 356.084 143.393 357.407 144.364ZM359.068 134.338H353.017C352.618 135.149 352.385 136.129 352.385 137.184C352.385 139.981 354.023 142.248 356.043 142.248C358.063 142.248 359.7 139.981 359.7 137.184C359.7 136.129 359.467 135.149 359.068 134.338Z" fill="#515155"/>
<path d="M345.291 145.604C343.989 146.56 343.215 147.799 343.108 149.116C343.824 149.384 344.626 149.119 345.839 148.522C345.994 148.446 346.155 148.364 346.321 148.28L346.322 148.28C347.553 147.656 349.084 146.881 350.814 146.881C352.463 146.881 353.771 147.594 354.866 148.191C355.083 148.31 355.293 148.424 355.494 148.527C356.133 148.853 356.728 149.098 357.376 149.186C357.768 149.239 358.196 149.237 358.68 149.144C358.582 147.817 357.807 146.567 356.496 145.604C355.091 144.572 353.113 143.911 350.894 143.911C348.675 143.911 346.697 144.572 345.291 145.604Z" fill="#515155"/>
<path d="M345.289 153.259C344.32 152.547 343.644 151.679 343.318 150.738C344.46 150.868 345.566 150.371 346.518 149.902C346.691 149.817 346.862 149.731 347.031 149.646L347.031 149.646L347.197 149.563L349.477 150.392C350.341 150.706 351.288 150.706 352.152 150.392L354.271 149.621C354.44 149.712 354.614 149.804 354.795 149.897C355.491 150.251 356.267 150.587 357.169 150.71C357.584 150.766 358.016 150.776 358.47 150.728C358.145 151.673 357.467 152.545 356.494 153.259C355.089 154.29 353.11 154.951 350.891 154.951C348.672 154.951 346.694 154.29 345.289 153.259Z" fill="#515155"/>
<path d="M64.6539 264.696C77.3452 264.696 88.4961 258.101 94.8664 248.151C102.169 244.785 106.611 235.938 105.012 227.132C104.123 222.236 101.535 218.283 98.0742 215.854C92.8702 202.479 79.869 193 64.6539 193C49.7505 193 36.9713 202.094 31.5632 215.036C27.4562 217.335 24.3226 221.641 23.3253 227.132C21.6318 236.457 26.7127 245.829 34.7921 248.688C41.216 258.338 52.1924 264.696 64.6539 264.696Z" fill="#3F3F43"/>
<path fill-rule="evenodd" clip-rule="evenodd" d="M64.129 215.342C64.129 217.353 63.6176 219.188 62.7759 220.58C60.7031 220.767 58.8233 221.465 57.3831 222.522C57.2648 222.608 57.1493 222.698 57.0368 222.79C54.942 221.723 53.4375 218.791 53.4375 215.342C53.4375 210.991 55.8309 207.464 58.7833 207.464C61.7356 207.464 64.129 210.991 64.129 215.342ZM56.3199 212.496H62.3715C62.7703 213.307 63.0033 214.287 63.0033 215.342C63.0033 218.139 61.3658 220.406 59.3457 220.406C57.3257 220.406 55.6881 218.139 55.6881 215.342C55.6881 214.287 55.9212 213.307 56.3199 212.496Z" fill="#515155"/>
<path d="M59.1859 223.198C59.7683 222.883 60.4164 222.623 61.1148 222.433C61.1148 222.433 61.1149 222.433 61.1148 222.433C61.9752 222.198 62.9117 222.068 63.8957 222.068C65.2866 222.068 66.5829 222.328 67.7027 222.776C67.7023 222.776 67.7019 222.776 67.7015 222.776C67.8759 222.845 68.046 222.92 68.2115 222.998C68.2111 222.998 68.2106 222.998 68.2102 222.998C68.6784 223.22 69.1098 223.477 69.4976 223.761C70.8085 224.724 71.5834 225.974 71.6812 227.301C71.1973 227.394 70.769 227.396 70.3773 227.343C69.7296 227.255 69.1343 227.01 68.4957 226.684C68.294 226.581 68.0849 226.467 67.8674 226.349L67.8671 226.348C66.7723 225.751 65.4649 225.038 63.8149 225.038C62.0854 225.038 60.554 225.814 59.3234 226.437L59.3224 226.437C59.1562 226.522 58.9954 226.603 58.8405 226.679C57.6272 227.277 56.8253 227.541 56.1092 227.273C56.2166 225.956 56.9905 224.717 58.2927 223.761C58.5692 223.558 58.8676 223.37 59.1859 223.198C59.186 223.198 59.1859 223.198 59.1859 223.198Z" fill="#515155"/>
<path fill-rule="evenodd" clip-rule="evenodd" d="M70.4081 222.522C70.5851 222.652 70.7559 222.787 70.9199 222.929C73.1705 222 74.8212 218.955 74.8212 215.342C74.8212 210.991 72.4278 207.464 69.4754 207.464C66.5231 207.464 64.1297 210.991 64.1297 215.342C64.1297 217.38 64.6548 219.237 65.5166 220.636C67.3909 220.882 69.0852 221.55 70.4081 222.522ZM65.8364 212.496H71.4226C71.7906 213.307 72.0058 214.287 72.0058 215.342C72.0058 218.139 70.4942 220.406 68.6295 220.406C66.7648 220.406 65.2532 218.139 65.2532 215.342C65.2532 214.287 65.4684 213.307 65.8364 212.496Z" fill="#515155"/>
<path d="M58.2904 231.416C57.3215 230.704 56.6455 229.836 56.3192 228.895C57.461 229.026 58.567 228.528 59.5198 228.059C59.6926 227.974 59.8633 227.888 60.0325 227.803L60.1979 227.72L62.3111 228.489C63.2844 228.843 64.3511 228.843 65.3244 228.489L67.2742 227.78C67.443 227.87 67.6165 227.962 67.7966 228.054C68.492 228.409 69.2687 228.745 70.1705 228.867C70.5856 228.923 71.0175 228.933 71.4715 228.886C71.1459 229.83 70.468 230.702 69.4954 231.416C68.09 232.447 66.1115 233.109 63.8924 233.109C61.6733 233.109 59.6952 232.447 58.2904 231.416Z" fill="#515155"/>
<path d="M303.466 71.6882C316.158 71.6882 327.309 65.0931 333.679 55.143C340.982 51.7773 345.424 42.93 343.824 34.1238C342.935 29.228 340.348 25.2748 336.887 22.846C331.683 9.4712 318.681 -0.0078125 303.466 -0.0078125C288.563 -0.0078125 275.784 9.08668 270.376 22.0287C266.269 24.3274 263.135 28.6327 262.138 34.124C260.444 43.4496 265.525 52.8213 273.605 55.6804C280.029 65.3298 291.005 71.6882 303.466 71.6882Z" fill="#3F3F43"/>
<path fill-rule="evenodd" clip-rule="evenodd" d="M302.938 22.336C302.938 24.3472 302.426 26.1825 301.584 27.5746C299.512 27.7609 297.632 28.4587 296.192 29.5158C296.073 29.6026 295.958 29.692 295.845 29.7839C293.751 28.7173 292.246 25.7856 292.246 22.336C292.246 17.9851 294.639 14.458 297.592 14.458C300.544 14.458 302.938 17.9851 302.938 22.336ZM295.129 19.4897H301.18C301.579 20.3008 301.812 21.2807 301.812 22.3359C301.812 25.1329 300.174 27.4003 298.154 27.4003C296.134 27.4003 294.497 25.1329 294.497 22.3359C294.497 21.2807 294.73 20.3008 295.129 19.4897Z" fill="#515155"/>
<path d="M297.995 30.1919C298.577 29.8771 299.225 29.6176 299.923 29.4271C299.923 29.4272 299.923 29.4271 299.923 29.4271C300.784 29.1924 301.72 29.0625 302.704 29.0625C304.095 29.0625 305.392 29.3224 306.511 29.7704C306.511 29.7702 306.51 29.77 306.51 29.7698C306.684 29.8395 306.855 29.9138 307.02 29.9924C307.02 29.9923 307.019 29.9921 307.019 29.992C307.487 30.2142 307.918 30.4707 308.306 30.7555C309.617 31.7181 310.392 32.9682 310.49 34.2953C310.006 34.3883 309.578 34.3904 309.186 34.3373C308.538 34.2494 307.943 34.0043 307.304 33.6784C307.103 33.5754 306.894 33.4614 306.676 33.3428L306.676 33.3426C305.581 32.7455 304.273 32.0323 302.624 32.0323C300.894 32.0323 299.363 32.8079 298.132 33.431L298.131 33.4316C297.965 33.5157 297.804 33.5971 297.649 33.6734C296.436 34.2708 295.634 34.5355 294.918 34.2671C295.025 32.9505 295.799 31.7113 297.101 30.7555C297.378 30.5526 297.676 30.364 297.995 30.1919C297.995 30.1919 297.994 30.1919 297.995 30.1919Z" fill="#515155"/>
<path fill-rule="evenodd" clip-rule="evenodd" d="M309.217 29.5158C309.394 29.6457 309.565 29.7816 309.728 29.923C311.979 28.9943 313.63 25.9492 313.63 22.336C313.63 17.9851 311.236 14.458 308.284 14.458C305.332 14.458 302.938 17.9851 302.938 22.336C302.938 24.374 303.463 26.2313 304.325 27.6299C306.2 27.8764 307.894 28.5444 309.217 29.5158ZM304.645 19.4898H310.231C310.599 20.301 310.814 21.2808 310.814 22.3359C310.814 25.1329 309.303 27.4003 307.438 27.4003C305.573 27.4003 304.062 25.1329 304.062 22.3359C304.062 21.2808 304.277 20.301 304.645 19.4898Z" fill="#515155"/>
<path d="M297.099 38.41C296.13 37.6986 295.454 36.8301 295.128 35.8895C296.27 36.0196 297.376 35.5222 298.328 35.053C298.501 34.968 298.672 34.8823 298.841 34.7974L299.006 34.7145L301.12 35.4829C302.093 35.8368 303.16 35.8368 304.133 35.4829L306.083 34.7739C306.252 34.8643 306.425 34.9562 306.605 35.0481C307.301 35.403 308.077 35.7387 308.979 35.8611C309.394 35.9174 309.826 35.9274 310.28 35.8798C309.955 36.8241 309.277 37.6961 308.304 38.41C306.899 39.4416 304.92 40.103 302.701 40.103C300.482 40.103 298.504 39.4416 297.099 38.41Z" fill="#515155"/>
</svg>
