<svg width="128" height="120" viewBox="0 0 128 120" fill="none" xmlns="http://www.w3.org/2000/svg">
<path d="M72.0159 119.815C102.905 119.815 127.946 113.538 127.946 105.795C127.946 98.0523 102.905 91.7754 72.0159 91.7754C41.1267 91.7754 16.0859 98.0523 16.0859 105.795C16.0859 113.538 41.1267 119.815 72.0159 119.815Z" fill="#8C8C8E"/>
<path d="M99.5693 84.7818C99.8289 81.3839 99.0995 77.4786 97.4839 73.4782C105.623 71.7874 111.986 67.3049 113.192 60.7838L113.225 60.7401L113.265 60.499C114.013 55.9869 112.088 51.5347 108.527 47.8301C105.252 44.4231 100.534 41.5762 94.9744 39.7604C100.939 32.5754 102.845 23.956 98.1983 17.9722C93.6574 12.1221 84.4817 10.9172 75.326 13.6387C72.5386 7.17304 67.3359 2.34164 60.6728 1.23918C52.6662 -0.10332 44.9525 4.29559 40.1974 11.6386C33.4192 9.1624 26.1922 9.35293 20.6861 13.032C13.8651 17.516 11.5716 25.879 13.5888 34.3461C7.10724 37.27 2.32719 42.4893 1.23186 49.1227L1.23174 49.1235C-0.324568 58.5953 6.05604 67.7165 15.9967 72.4158C12.9601 77.7734 12.328 83.3304 15.445 87.3942L15.4487 87.3989C17.4906 90.0283 20.7432 91.4653 24.5194 91.8845C28.0374 92.275 32.0863 91.7948 36.2526 90.5136C39.2248 98.3683 45.7964 104.379 54.2328 105.792C64.3919 107.499 74.2049 101.961 79.1011 92.7981C84.8423 95.6689 90.7314 96.3631 94.8883 93.6209C97.7894 91.7112 99.284 88.5171 99.5693 84.7818Z" fill="#353538" stroke="#242427" stroke-width="2" stroke-miterlimit="10" stroke-linecap="round"/>
<path d="M77.3548 49.467C81.1893 49.2955 84.0929 44.572 83.84 38.9168C83.5872 33.2615 80.2737 28.816 76.4392 28.9874C72.6046 29.1589 69.7011 33.8824 69.9539 39.5376C70.2068 45.1929 73.5203 49.6384 77.3548 49.467Z" fill="#8C8C8E"/>
<path d="M72.6301 63.5058C66.5101 64.1158 61.1801 60.9558 60.7401 56.5058C60.3001 52.0558 64.8901 47.8758 71.0201 47.2658C77.1501 46.6558 82.4701 49.8158 82.9101 54.2658C83.3501 58.7158 78.7601 62.8758 72.6301 63.5058Z" fill="#515155" stroke="#242427" stroke-width="2" stroke-miterlimit="10"/>
<path d="M82.9306 54.4355C79.9306 56.8155 76.2006 52.5855 71.7006 53.0255C67.2006 53.4655 65.6406 58.2355 60.1406 56.6855" stroke="#242427" stroke-width="2"/>
<path d="M73.3484 55.5062L76.3484 54.0762L67.3984 54.9662L70.5984 55.7862C71.5199 56.0131 72.4916 55.9142 73.3484 55.5062Z" fill="#242427" stroke="#242427" stroke-width="2" stroke-linecap="round" stroke-linejoin="round"/>
<path d="M82.5592 88.1954L88.1192 82.3954L99.3792 103.395C99.879 104.635 100.644 105.751 101.619 106.665C102.595 107.579 103.759 108.268 105.029 108.685C111.159 110.395 118.309 104.025 121.029 94.4354C123.749 84.8454 120.919 75.6954 114.789 73.9754C108.659 72.2554 101.499 78.6354 98.7892 88.2154L91.5492 77.8954C91.1828 77.3709 90.6992 76.9389 90.1368 76.6337C89.5744 76.3286 88.9487 76.1586 88.3092 76.1372C87.6698 76.1159 87.0341 76.2438 86.4526 76.5107C85.8711 76.7777 85.3598 77.1765 84.9592 77.6754L78.1992 86.0654" fill="#515155"/>
<path d="M82.5592 88.1954L88.1192 82.3954L99.3792 103.395C99.879 104.635 100.644 105.751 101.619 106.665C102.595 107.579 103.759 108.268 105.029 108.685C111.159 110.395 118.309 104.025 121.029 94.4354C123.749 84.8454 120.919 75.6954 114.789 73.9754C108.659 72.2554 101.499 78.6354 98.7892 88.2154L91.5492 77.8954C91.1828 77.3709 90.6992 76.9389 90.1368 76.6337C89.5744 76.3286 88.9487 76.1586 88.3092 76.1372C87.6698 76.1159 87.0341 76.2438 86.4526 76.5107C85.8711 76.7777 85.3598 77.1765 84.9592 77.6754L78.1992 86.0654" stroke="#242427" stroke-width="2" stroke-linecap="round" stroke-linejoin="round"/>
<path d="M102.771 101.436C100.861 93.7358 104.681 79.7058 113.241 77.2158" stroke="#242427" stroke-width="2" stroke-linecap="round" stroke-linejoin="round"/>
<path d="M87.1875 80.7959L89.1575 84.4259" stroke="#242427" stroke-width="2" stroke-linecap="round" stroke-linejoin="round"/>
<path fill-rule="evenodd" clip-rule="evenodd" d="M98.3993 94.3163C98.3993 94.3163 97.8293 93.0463 98.4493 89.2363L98.3993 94.3163Z" fill="#515155"/>
<path d="M98.3993 94.3163C98.3993 94.3163 97.8293 93.0463 98.4493 89.2363" stroke="#242427" stroke-width="2" stroke-linecap="round" stroke-linejoin="round"/>
<path d="M60.6662 89.9962L65.5062 83.9962C65.9078 83.4972 66.42 83.0984 67.0023 82.8315C67.5845 82.5645 68.2209 82.4366 68.8611 82.458C69.5013 82.4793 70.1278 82.6493 70.691 82.9544C71.2542 83.2596 71.7387 83.6915 72.1062 84.2162L79.3362 94.5062C82.0262 84.9262 89.1662 78.5062 95.3362 80.2662C101.506 82.0262 104.266 91.1462 101.586 100.726C98.9062 110.306 91.7462 116.726 85.5862 114.976C84.316 114.559 83.1523 113.869 82.1764 112.956C81.2005 112.042 80.4359 110.926 79.9362 109.686L68.6762 88.6862L64.3862 93.1562C64.0204 93.5396 63.541 93.7952 63.0188 93.8852C62.4966 93.9752 61.9592 93.8949 61.4862 93.6562C61.1727 93.4878 60.8992 93.254 60.6841 92.9706C60.469 92.6872 60.3175 92.3608 60.2397 92.0136C60.1619 91.6664 60.1597 91.3066 60.2333 90.9585C60.3069 90.6104 60.4545 90.2822 60.6662 89.9962Z" fill="#515155" stroke="#242427" stroke-width="2" stroke-linecap="round" stroke-linejoin="round"/>
<path d="M83.3806 107.836C81.4706 100.136 85.2906 86.1062 93.8506 83.6162" stroke="#242427" stroke-width="2" stroke-linecap="round" stroke-linejoin="round"/>
<path d="M67.7969 87.1963L69.7669 90.8263" stroke="#242427" stroke-width="2" stroke-linecap="round" stroke-linejoin="round"/>
<path fill-rule="evenodd" clip-rule="evenodd" d="M79.0195 100.716C79.0195 100.716 78.4395 99.4457 79.0195 95.6357V100.716Z" fill="#515155"/>
<path d="M79.0195 100.716C79.0195 100.716 78.4395 99.4457 79.0195 95.6357" stroke="#242427" stroke-width="2" stroke-linecap="round" stroke-linejoin="round"/>
<path d="M85.4269 41.1857C79.7402 44.9791 74.1969 44.5457 68.7969 39.8857" stroke="#353538" stroke-width="2" stroke-miterlimit="10"/>
<path d="M63.4564 50.0871C67.2909 49.9156 70.1944 45.1922 69.9416 39.5369C69.6888 33.8816 66.3753 29.4361 62.5407 29.6075C58.7062 29.779 55.8026 34.5025 56.0555 40.1577C56.3083 45.813 59.6218 50.2585 63.4564 50.0871Z" fill="#8C8C8E"/>
<path d="M54.3672 42.1758C60.2139 45.7291 65.7305 45.0624 70.9172 40.1758" stroke="#353538" stroke-width="2" stroke-miterlimit="10"/>
<path d="M71.8249 63.8977C78.19 63.7099 83.2399 59.8298 83.1042 55.2313C82.9685 50.6327 77.6987 47.0571 71.3336 47.2449C64.9685 47.4327 59.9186 51.3128 60.0543 55.9113C60.1899 60.5099 65.4598 64.0855 71.8249 63.8977Z" fill="#8C8C8E" stroke="#353538" stroke-width="2" stroke-miterlimit="10"/>
<path d="M61.3594 59.6061C62.8091 58.227 64.3861 56.9881 66.0694 55.9061C67.8537 54.5502 69.9459 53.657 72.1594 53.3061C75.3494 53.0061 78.4594 54.6461 81.1594 56.5061C81.6913 56.8571 82.1931 57.2518 82.6594 57.6861" stroke="#353538" stroke-width="2" stroke-miterlimit="10"/>
</svg>
