<svg width="24" height="24" viewBox="0 0 24 24" fill="none" xmlns="http://www.w3.org/2000/svg">
<g clip-path="url(#clip0_5603_198286)">
<path d="M9.22402 10.6598C8.94946 10.8623 8.59906 10.9641 8.17282 10.9641L5.7517 10.966V8.42202H7.98946C8.19682 8.42106 8.40322 8.4393 8.60674 8.47482C8.80449 8.51034 8.97922 8.5737 9.13186 8.6649C9.2845 8.7561 9.40642 8.88378 9.49762 9.04602C9.58882 9.20826 9.6349 9.41658 9.6349 9.67002C9.63586 10.127 9.49858 10.4563 9.22402 10.6598Z" fill="#7B7B7E"/>
<path d="M8.98018 15.5107C8.76033 15.5567 8.5357 15.5798 8.3101 15.5788L5.7517 15.5798V12.5942H8.35618C8.87362 12.5942 9.29025 12.7132 9.60513 12.9523C9.92002 13.1903 10.0775 13.5897 10.0775 14.1475C10.0775 14.4316 10.0285 14.6659 9.9325 14.8483C9.83554 15.0307 9.70594 15.1756 9.5437 15.2822C9.38146 15.3887 9.1933 15.4646 8.98018 15.5107Z" fill="#7B7B7E"/>
<path d="M16.7418 10.7817C17.2698 10.7817 17.6634 10.9238 17.9226 11.2079C18.1808 11.4921 18.3613 11.9087 18.464 12.4559H14.9456C14.9552 12.3043 14.9888 12.1315 15.0445 11.9385C15.1002 11.7455 15.1962 11.5631 15.3335 11.3903C15.4707 11.2175 15.6531 11.0735 15.8816 10.9564C16.1091 10.8403 16.3962 10.7817 16.7418 10.7817Z" fill="#7B7B7E"/>
<path fill-rule="evenodd" clip-rule="evenodd" d="M24 12C24 18.6274 18.6274 24 12 24C5.37258 24 0 18.6274 0 12C0 5.37258 5.37258 0 12 0C18.6274 0 24 5.37258 24 12ZM9.89409 6.69978C9.4669 6.60858 8.99458 6.5625 8.47713 6.5625H3.35938V17.4383H8.63074C9.11073 17.4393 9.58978 17.3779 10.0544 17.2559C10.5162 17.134 10.9271 16.9468 11.288 16.6924C11.649 16.439 11.936 16.1116 12.1491 15.7103C12.3623 15.3091 12.4688 14.8339 12.4688 14.2857C12.4688 13.6051 12.3037 13.0233 11.9735 12.5414C11.6432 12.0595 11.1431 11.7215 10.473 11.5286C10.9597 11.2953 11.3283 10.9958 11.577 10.63C11.8256 10.2643 11.9504 9.8073 11.9504 9.25914C11.9504 8.7513 11.8669 8.32506 11.6989 7.97946C11.5309 7.63386 11.2947 7.35738 10.9904 7.14906C10.6861 6.94074 10.3213 6.79098 9.89409 6.69978ZM16.8791 15.8227C16.2695 15.8227 15.8019 15.6652 15.4775 15.3503C15.153 15.0364 14.9754 14.5286 14.9456 13.8307H20.6269C20.6672 13.2211 20.6163 12.6374 20.4743 12.0787C20.3322 11.5199 20.1008 11.0227 19.7811 10.5859C19.4615 10.1491 19.0525 9.80154 18.5552 9.54234C18.057 9.28314 17.4733 9.15354 16.8032 9.15354C16.2042 9.15354 15.6579 9.2601 15.1655 9.47322C14.673 9.68634 14.2487 9.97818 13.8935 10.3487C13.5383 10.7193 13.2637 11.158 13.0707 11.6659C12.8778 12.1737 12.7818 12.7017 12.7818 13.3103C12.7818 13.919 12.8759 14.4777 13.0631 14.9855C13.2503 15.4934 13.5171 15.9292 13.8627 16.295C14.2083 16.6607 14.6298 16.943 15.1271 17.1407C15.6243 17.3385 16.1831 17.4374 16.8023 17.4374C17.696 17.4374 18.4573 17.2339 19.0871 16.8278C19.7168 16.4217 20.1843 15.7468 20.4887 14.8022H18.585C18.5139 15.046 18.321 15.2774 18.0061 15.4953C17.6912 15.7132 17.3159 15.8227 16.8791 15.8227ZM18.9709 7.1145H14.5751V8.3337H18.9709V7.1145Z" fill="#7B7B7E"/>
</g>
<defs>
<clipPath id="clip0_5603_198286">
<rect width="24" height="24" fill="white"/>
</clipPath>
</defs>
</svg>
