<svg width="71" height="24" viewBox="0 0 71 24" fill="none" xmlns="http://www.w3.org/2000/svg">
<g clip-path="url(#clip0_5660_2258)" fill="current">
<path d="M0.985077 22.2975C0.444782 21.5957 0.178672 20.7211 0.236527 19.8373V4.1327C0.177745 3.24879 0.443952 2.37385 0.985077 1.67247C1.26374 1.3756 1.60475 1.1442 1.98356 0.994923C2.36237 0.845642 2.76956 0.782193 3.17583 0.809141H10.327C12.7922 0.809141 14.7983 1.27823 16.3453 2.21641C17.0894 2.65217 17.6988 3.28481 18.1065 4.04466C18.5142 4.80452 18.7043 5.66213 18.6558 6.52307C18.693 7.6745 18.3079 8.79977 17.5729 9.68694C16.7826 10.5765 15.7369 11.2004 14.5787 11.4735C15.8754 11.6738 17.0745 12.2821 18.0021 13.2101C18.4421 13.6632 18.7864 14.2003 19.0145 14.7893C19.2425 15.3783 19.3497 16.0072 19.3295 16.6385C19.373 17.9357 18.9754 19.2093 18.2017 20.2515C17.3638 21.2896 16.2339 22.0527 14.958 22.4422C13.3447 22.9515 11.6591 23.1942 9.96767 23.1608H3.17583C2.76956 23.1878 2.36237 23.1243 1.98356 22.9751C1.60475 22.8258 1.26374 22.5944 0.985077 22.2975ZM11.4648 9.32265C11.8361 9.20426 12.1597 8.96988 12.388 8.65394C12.6119 8.31767 12.7253 7.91992 12.7124 7.51615C12.7325 7.22937 12.6804 6.94212 12.561 6.68061C12.4416 6.41911 12.2586 6.19167 12.0287 6.01905C11.387 5.64103 10.6456 5.46699 9.9028 5.52001H5.95046V9.51228H9.90779C10.4333 9.53132 10.9582 9.46044 11.4598 9.30268L11.4648 9.32265ZM12.5028 17.8611C12.7593 17.667 12.9634 17.4121 13.0967 17.1194C13.23 16.8266 13.2883 16.5053 13.2663 16.1844C13.2954 15.862 13.2419 15.5376 13.111 15.2416C12.98 14.9456 12.7759 14.6879 12.5177 14.4926C11.7883 14.1021 10.9622 13.9289 10.1373 13.9936H5.95046V18.4001H10.1324C10.9595 18.4615 11.7856 18.2663 12.4978 17.8411L12.5028 17.8611Z" fill="current"/>
<path d="M21.4348 5.12095C21.1636 4.88074 20.9465 4.58572 20.7978 4.25538C20.6491 3.92504 20.5723 3.56691 20.5723 3.20466C20.5723 2.84241 20.6491 2.48427 20.7978 2.15394C20.9465 1.8236 21.1636 1.52858 21.4348 1.28837C22.0361 0.769116 22.8115 0.49638 23.6056 0.524851C24.3799 0.497297 25.1347 0.770977 25.7115 1.28837C25.9764 1.53234 26.1879 1.82859 26.3325 2.15842C26.4772 2.48826 26.5519 2.8445 26.5519 3.20466C26.5519 3.56482 26.4772 3.92106 26.3325 4.2509C26.1879 4.58073 25.9764 4.87698 25.7115 5.12095C25.128 5.63703 24.3691 5.91022 23.5906 5.88447C22.8011 5.91312 22.0303 5.64012 21.4348 5.12095ZM21.5146 22.9015C20.9959 22.2283 20.7404 21.3891 20.796 20.5411V10.0614C20.7398 9.21942 20.9956 8.38625 21.5146 7.72091C22.0683 7.20742 22.7955 6.92209 23.5507 6.92209C24.3058 6.92209 25.033 7.20742 25.5867 7.72091C26.0983 8.39688 26.3466 9.23582 26.2854 10.0813V20.561C26.3394 21.4058 26.0918 22.2422 25.5867 22.9215C25.0435 23.4554 24.3123 23.7546 23.5507 23.7546C22.789 23.7546 22.0578 23.4554 21.5146 22.9215V22.9015Z" fill="current"/>
<path d="M35.7212 23.096C34.9774 22.6788 34.347 22.086 33.8848 21.3693C33.7794 22.1352 33.3848 22.8316 32.7819 23.3156C32.3361 23.6021 31.8146 23.7481 31.2848 23.7347C30.9037 23.7592 30.522 23.6969 30.1685 23.5526C29.815 23.4082 29.4988 23.1856 29.2437 22.9014C28.7291 22.2019 28.4798 21.3423 28.5401 20.4761V3.42909C28.485 2.58192 28.7345 1.74295 29.2437 1.06367C29.4931 0.784785 29.8019 0.565534 30.1475 0.422142C30.493 0.278749 30.8663 0.214886 31.2399 0.235277C31.6208 0.207953 32.0029 0.268432 32.3568 0.412052C32.7106 0.555673 33.0268 0.778604 33.2809 1.06367C33.7902 1.74295 34.0397 2.58192 33.9846 3.42909V8.37451C33.9853 8.51479 33.9752 8.65493 33.9546 8.79369C33.9546 8.91845 33.9097 9.06816 33.8897 9.23783C34.42 8.49182 35.1246 7.88675 35.9422 7.47535C36.7598 7.06394 37.6656 6.85867 38.5807 6.87741C39.7663 6.87526 40.9286 7.20734 41.9342 7.83555C43.0245 8.53216 43.8909 9.52845 44.4293 10.705C45.093 12.1459 45.4157 13.7203 45.3725 15.3061C45.4133 16.8849 45.1084 18.4536 44.4792 19.9022C43.9783 21.0685 43.141 22.0589 42.0743 22.747C41.0076 23.435 39.7599 23.7893 38.4908 23.7647C37.5251 23.7869 36.5704 23.5563 35.7212 23.096ZM38.3062 19.0089C38.7877 18.6126 39.1561 18.0961 39.3741 17.5118C39.6447 16.8156 39.7753 16.0728 39.7584 15.326C39.7777 14.5531 39.6473 13.7837 39.3741 13.0604C39.1638 12.4804 38.7935 11.9717 38.3062 11.5933C37.8391 11.2527 37.2721 11.0771 36.6943 11.0942C36.1263 11.0808 35.5699 11.2563 35.1124 11.5933C34.6266 11.9732 34.2567 12.4814 34.0444 13.0604C33.7761 13.7882 33.6491 14.5606 33.6702 15.336C33.6557 16.0826 33.7862 16.8249 34.0544 17.5218C34.2741 18.1052 34.6422 18.6213 35.1224 19.0189C35.5714 19.3768 36.1301 19.5689 36.7043 19.5628C37.286 19.5674 37.8516 19.3719 38.3062 19.0089Z" fill="current"/>
<path d="M53.7572 23.0957C53.0148 22.6785 52.386 22.0856 51.9258 21.369C51.9001 21.6466 51.824 21.9172 51.7012 22.1675C51.5456 22.6379 51.2363 23.0422 50.8229 23.3153C50.3769 23.6013 49.8555 23.7472 49.3258 23.7344C48.9445 23.7612 48.5621 23.6999 48.2083 23.5554C47.8544 23.4109 47.5384 23.187 47.2848 22.9011C46.7701 22.2016 46.5208 21.342 46.5811 20.4758V3.42879C46.526 2.58163 46.7755 1.74266 47.2848 1.06338C47.5341 0.78449 47.843 0.565239 48.1885 0.421847C48.534 0.278454 48.9074 0.214591 49.2809 0.234981C49.6616 0.209533 50.0432 0.270872 50.3967 0.414372C50.7503 0.557872 51.0666 0.779787 51.3219 1.06338C51.8312 1.74266 52.0807 2.58163 52.0256 3.42879V8.37421C52.0272 8.51473 52.0155 8.65509 51.9906 8.7934C51.9906 8.91816 51.9507 9.06787 51.9308 9.23754C52.4275 8.53069 53.0841 7.95107 53.847 7.54582C54.7003 7.08657 55.6579 6.85619 56.6267 6.87711C57.8123 6.87497 58.9746 7.20704 59.9802 7.83526C61.0692 8.53337 61.9352 9.52923 62.4753 10.7047C63.139 12.1456 63.4618 13.72 63.4185 15.3058C63.4593 16.8846 63.1544 18.4533 62.5252 19.9019C62.0243 21.0682 61.187 22.0586 60.1203 22.7467C59.0536 23.4347 57.8059 23.789 56.5368 23.7644C55.5678 23.7879 54.6095 23.5573 53.7572 23.0957ZM56.3472 19.0086C56.8274 18.611 57.1955 18.0949 57.4151 17.5115C57.6834 16.8146 57.8139 16.0723 57.7994 15.3257C57.816 14.553 57.6856 13.7842 57.4151 13.0601C57.2029 12.4811 56.833 11.9729 56.3472 11.593C55.8798 11.2531 55.313 11.0776 54.7353 11.0939C54.1672 11.0797 53.6105 11.2553 53.1534 11.593C52.6661 11.9714 52.2958 12.4801 52.0855 13.0601C51.8123 13.7834 51.6818 14.5528 51.7012 15.3257C51.6843 16.0725 51.8149 16.8153 52.0855 17.5115C52.3035 18.0958 52.6719 18.6123 53.1534 19.0086C53.6024 19.3666 54.1611 19.5587 54.7353 19.5526C55.3191 19.5615 55.8882 19.3694 56.3472 19.0086Z" fill="current"/>
<path d="M65.3 5.12079C65.0288 4.88058 64.8117 4.58556 64.6631 4.25522C64.5144 3.92489 64.4375 3.56676 64.4375 3.2045C64.4375 2.84225 64.5144 2.48412 64.6631 2.15378C64.8117 1.82344 65.0288 1.52842 65.3 1.28821C65.9014 0.768958 66.6768 0.496222 67.4708 0.524693C68.2536 0.490573 69.0186 0.764689 69.6017 1.28821C69.8696 1.53345 70.0807 1.83421 70.2204 2.16951C70.36 2.5048 70.4248 2.86654 70.4101 3.22945C70.4161 3.59128 70.3433 3.95008 70.1969 4.28098C70.0504 4.61188 69.8337 4.90695 69.5617 5.14574C68.9783 5.66182 68.2194 5.93501 67.4409 5.90926C66.6531 5.92723 65.8879 5.64541 65.3 5.12079ZM65.3798 22.9013C64.8612 22.2281 64.6057 21.3889 64.6612 20.5409V10.0612C64.605 9.21926 64.8608 8.38609 65.3798 7.72075C65.9335 7.20726 66.6608 6.92193 67.4159 6.92193C68.171 6.92193 68.8983 7.20726 69.452 7.72075C69.9653 8.39603 70.2154 9.23503 70.1556 10.0812V20.5609C70.2109 21.4065 69.9612 22.244 69.452 22.9213C68.9088 23.4553 68.1776 23.7545 67.4159 23.7545C66.6542 23.7545 65.923 23.4553 65.3798 22.9213V22.9013Z" fill="current"/>
</g>
<defs>
<clipPath id="clip0_5660_2258">
<rect width="70.5882" height="24"/>
</clipPath>
</defs>
</svg>
