<svg width="99" height="99" viewBox="0 0 99 99" fill="none" xmlns="http://www.w3.org/2000/svg">
<path d="M14.481 88.4345C13.4429 87.086 12.9316 85.4055 13.0427 83.7073V53.5315C12.9298 51.8331 13.4413 50.1519 14.481 48.8042C15.0165 48.2338 15.6717 47.7892 16.3996 47.5024C17.1275 47.2155 17.9099 47.0936 18.6905 47.1454H32.4312C37.168 47.1454 41.0227 48.0467 43.9952 49.8494C45.425 50.6867 46.596 51.9023 47.3793 53.3623C48.1626 54.8224 48.5278 56.4702 48.4348 58.1245C48.5062 60.3369 47.7662 62.4991 46.354 64.2038C44.8355 65.9131 42.8262 67.1119 40.6008 67.6365C43.0923 68.0215 45.3964 69.1903 47.1787 70.9734C48.0241 71.8441 48.6857 72.876 49.1239 74.0078C49.5621 75.1395 49.768 76.3479 49.7293 77.5609C49.8128 80.0535 49.0488 82.5007 47.5622 84.5031C45.9522 86.4979 43.7812 87.9641 41.3295 88.7126C38.2296 89.6911 34.9909 90.1575 31.7408 90.0934H18.6905C17.9099 90.1452 17.1275 90.0233 16.3996 89.7364C15.6717 89.4496 15.0165 89.0049 14.481 88.4345ZM34.6174 63.5038C35.331 63.2763 35.9527 62.826 36.3913 62.2189C36.8215 61.5728 37.0394 60.8085 37.0146 60.0327C37.0532 59.4816 36.9532 58.9297 36.7238 58.4272C36.4943 57.9247 36.1427 57.4877 35.7009 57.156C34.468 56.4297 33.0435 56.0953 31.6161 56.1972H24.0219V63.8682H31.6257C32.6354 63.9048 33.644 63.7686 34.6078 63.4654L34.6174 63.5038ZM36.6119 79.9101C37.1048 79.5372 37.497 79.0474 37.7532 78.4849C38.0093 77.9224 38.1213 77.3049 38.079 76.6883C38.1349 76.069 38.0322 75.4456 37.7805 74.8769C37.5289 74.3082 37.1366 73.8129 36.6406 73.4377C35.2391 72.6874 33.6517 72.3546 32.0668 72.4789H24.0219V80.9457H32.0572C33.6466 81.0638 35.2338 80.6887 36.6023 79.8718L36.6119 79.9101Z" fill="#242427"/>
<path d="M66.1766 89.5814C64.7474 88.7797 63.536 87.6407 62.6479 86.2637C62.4455 87.7353 61.6872 89.0734 60.5288 90.0033C59.6723 90.5539 58.6701 90.8345 57.6522 90.8088C56.9199 90.8558 56.1866 90.7361 55.5073 90.4587C54.828 90.1813 54.2204 89.7535 53.7304 89.2074C52.7415 87.8634 52.2624 86.2118 52.3784 84.5473V51.7922C52.2724 50.1643 52.7519 48.5523 53.7304 47.2471C54.2095 46.7112 54.8029 46.2899 55.4668 46.0144C56.1308 45.7389 56.8481 45.6162 57.5659 45.6554C58.2978 45.6029 59.032 45.7191 59.7119 45.995C60.3919 46.271 60.9994 46.6993 61.4877 47.2471C62.4661 48.5523 62.9457 50.1643 62.8397 51.7922V61.2946C62.841 61.5642 62.8218 61.8334 62.7821 62.1001C62.7821 62.3398 62.6959 62.6274 62.6575 62.9535C63.6764 61.52 65.0302 60.3574 66.6012 59.5669C68.1722 58.7764 69.9126 58.382 71.6709 58.418C73.9491 58.4139 76.1824 59.0519 78.1146 60.259C80.2097 61.5975 81.8743 63.5119 82.9089 65.7725C84.1842 68.5411 84.8043 71.5663 84.7212 74.6134C84.7996 77.647 84.2138 80.6611 83.0048 83.4446C82.0423 85.6856 80.4334 87.5887 78.3837 88.9107C76.3341 90.2328 73.9369 90.9136 71.4983 90.8663C69.6428 90.9089 67.8083 90.466 66.1766 89.5814ZM71.1435 81.7282C72.0688 80.9666 72.7766 79.9743 73.1955 78.8516C73.7154 77.5138 73.9663 76.0866 73.9339 74.6517C73.9711 73.1666 73.7204 71.6883 73.1955 70.2984C72.7913 69.1839 72.0799 68.2065 71.1435 67.4793C70.2461 66.8249 69.1565 66.4876 68.0464 66.5205C66.9549 66.4946 65.8858 66.8319 65.0067 67.4793C64.0734 68.2094 63.3626 69.1859 62.9547 70.2984C62.4391 71.6969 62.195 73.1809 62.2356 74.6709C62.2078 76.1054 62.4585 77.5317 62.9739 78.8708C63.396 79.9918 64.1033 80.9834 65.0259 81.7474C65.8887 82.4352 66.9623 82.8043 68.0655 82.7926C69.1833 82.8014 70.27 82.4256 71.1435 81.7282Z" fill="#242427"/>
<path d="M56.4563 28.2322L57.2966 21.25L59.6187 22.6517L61.2851 26.4618L56.4563 28.2322Z" fill="white" stroke="#242427" stroke-width="1.62184" stroke-linecap="round" stroke-linejoin="round"/>
<path d="M83.0949 10.2155L51.0511 16.9262L59.4947 22.2678L63.6717 31.9439L83.0949 10.2155Z" fill="white" stroke="#242427" stroke-width="1.62184" stroke-linecap="round" stroke-linejoin="round"/>
<path d="M59.4969 22.2679C61.1219 21.1475 64.6236 19.0875 66.2574 18.3286" stroke="#242427" stroke-width="1.62184" stroke-linecap="round" stroke-linejoin="round"/>
<path d="M68.596 16.8834C71.7424 15.4059 78.5037 11.7993 82.7723 10.207" stroke="#242427" stroke-width="1.62184" stroke-linecap="round" stroke-linejoin="round"/>
<path d="M80.9407 26.7323C81.2506 25.8523 82.5056 25.8829 82.7722 26.7771L83.2559 28.3996L84.9485 28.441C85.8813 28.4638 86.2399 29.6668 85.4719 30.1967L84.0782 31.1581L84.5619 32.7807C84.8285 33.6748 83.7952 34.3877 83.0539 33.821L81.7089 32.7926L80.3152 33.754M80.9407 26.7323L80.3152 33.754M80.9407 26.7323L80.3783 28.3293L78.6857 28.288C77.753 28.2652 77.336 29.4493 78.0772 30.016L79.4222 31.0443L78.8598 32.6413C78.5499 33.5214 79.5472 34.2839 80.3152 33.754M80.9407 26.7323L80.3152 33.754M83.6843 31.4299L83.6847 31.4296C83.6846 31.4297 83.6845 31.4298 83.6843 31.4299L83.3103 30.8877L83.6843 31.4299Z" fill="#D9D9D9" stroke="#242427" stroke-width="1.62184"/>
<path d="M69.3519 36.5558L71.6822 37.3669M71.6822 37.3669L70.2062 39.554M71.6822 37.3669L73.2637 39.643M71.6822 37.3669L74.0557 36.6927M71.6822 37.3669L71.7543 34.8912" stroke="#242427" stroke-width="1.62184" stroke-linecap="round" stroke-linejoin="round"/>
<path d="M47.6444 41.7201C43.5995 37.42 48.3691 30.5649 52.3591 31.9779C54.0464 32.5755 53.2411 34.7615 51.3122 34.7054C49.0723 34.6402 47.3367 28.7458 52.6862 27.447" stroke="#242427" stroke-width="1.62184" stroke-linecap="round" stroke-linejoin="round"/>
</svg>
