<svg width="282" height="259" viewBox="0 0 282 259" fill="none" xmlns="http://www.w3.org/2000/svg">
<path fill-rule="evenodd" clip-rule="evenodd" d="M271.638 211.242C274.973 191.055 254.605 170.448 224.775 161.916C241.087 143.892 246.044 122.864 235.109 108.625C224.535 95.0463 202.245 92.0723 179.414 99.6124C173.046 83.2704 160.459 71.1942 144.417 68.5507C125.372 65.3664 106.717 76.241 95.5118 94.7158C78.7793 88.0769 61.1456 88.2271 47.8377 97.089C31.646 107.723 26.2988 128.061 31.9464 148.849C15.6045 155.608 3.73853 168.195 1.09498 184.146C-2.59998 206.706 13.1111 228.996 38.4652 239.871C30.0539 253.419 28.3416 266.907 35.4611 276.31C44.4732 287.845 64.5702 289.618 86.1692 282.318C89.1933 291.999 94.7992 300.672 102.384 307.404C109.969 314.137 119.246 318.675 129.217 320.529C153.91 324.675 177.702 310.706 188.907 287.695C203.417 295.566 217.776 297.308 227.389 290.969C240.036 282.648 241.057 262.822 231.655 241.673C252.953 238.068 268.845 226.863 271.398 211.332L271.638 211.242Z" fill="#242427"/>
<path d="M184.523 184.567C193.955 184.147 201.075 172.551 200.444 158.643C199.813 144.734 191.702 133.829 182.42 134.25C173.137 134.67 165.868 146.266 166.468 160.175C167.069 174.083 175.09 184.988 184.523 184.567Z" fill="white"/>
<path d="M151.475 186.099C160.878 185.679 168.027 174.083 167.396 160.175C166.765 146.266 158.625 135.331 149.372 135.752C140.12 136.172 132.79 147.768 133.421 161.677C134.052 175.585 142.162 186.52 151.475 186.099Z" fill="white"/>
<path d="M179.991 175.347C186.449 175.077 191.376 167.597 190.955 158.645C190.535 149.693 184.947 142.694 178.549 142.994C172.15 143.294 167.194 150.744 167.584 159.696C167.975 168.648 173.562 175.648 179.991 175.347Z" fill="#242427"/>
<path d="M148.963 176.876C154.971 176.606 159.417 169.156 159.026 160.234C158.636 151.312 153.469 144.252 147.521 144.523C141.573 144.793 137.067 152.243 137.457 161.195C137.848 170.147 143.015 177.146 148.963 176.876Z" fill="#242427"/>
<path d="M147.334 164.749C150.029 164.744 152.219 161.697 152.226 157.944C152.233 154.19 150.054 151.152 147.36 151.157C144.665 151.162 142.475 154.209 142.468 157.962C142.461 161.715 144.64 164.754 147.334 164.749Z" fill="white"/>
<path d="M153.771 170.396C155.001 170.394 156.001 169 156.004 167.283C156.008 165.566 155.013 164.176 153.782 164.178C152.552 164.18 151.552 165.574 151.549 167.291C151.546 169.008 152.54 170.398 153.771 170.396Z" fill="white"/>
<path d="M177.373 164.749C180.068 164.744 182.258 161.697 182.265 157.944C182.272 154.19 180.094 151.152 177.399 151.157C174.704 151.162 172.514 154.209 172.507 157.962C172.5 161.715 174.679 164.754 177.373 164.749Z" fill="white"/>
<path d="M183.806 170.396C185.036 170.394 186.036 169 186.04 167.283C186.043 165.566 185.048 164.176 183.818 164.178C182.587 164.18 181.587 165.574 181.584 167.291C181.581 169.008 182.576 170.398 183.806 170.396Z" fill="white"/>
<path d="M174.137 218.965C159.116 220.467 145.989 212.686 144.907 201.661C143.826 190.636 155.151 180.453 170.171 178.951C185.191 177.449 198.319 185.229 199.401 196.254C200.482 207.279 189.187 217.463 174.137 218.965Z" fill="white" stroke="#242427" stroke-width="3.20018" stroke-miterlimit="10"/>
<path d="M199.549 196.702C192.309 202.71 182.996 192.166 171.942 193.278C160.887 194.389 156.921 206.075 143.523 202.29" stroke="#242427" stroke-width="3.20018"/>
<path d="M175.908 199.378L183.208 195.864L171.748 193.166L161.219 198.057L169.089 200.069C171.373 200.644 173.786 200.4 175.908 199.378Z" fill="#242427" stroke="#242427" stroke-width="3.20018" stroke-linecap="round" stroke-linejoin="round"/>
<path fill-rule="evenodd" clip-rule="evenodd" d="M76.5837 148.812L61.7738 121.776C60.8813 121.464 59.9349 121.336 58.9917 121.4C58.0484 121.464 57.128 121.719 56.2858 122.148C55.4436 122.578 54.6971 123.174 54.0915 123.899C53.4858 124.625 53.0334 125.466 52.7617 126.372L65.619 152.717L76.5837 148.812Z" fill="#EFEFEF" stroke="#242427" stroke-width="3.20018" stroke-linecap="round" stroke-linejoin="round"/>
<path fill-rule="evenodd" clip-rule="evenodd" d="M78.5378 239.446C79.1502 239.817 79.8825 239.935 80.5806 239.777C82.9956 239.896 85.4162 239.825 87.8203 239.566C92.7463 239.153 97.3364 236.901 100.678 233.258C106.956 226.258 112.934 214.873 113.745 208.535C114.857 199.523 84.0953 150.497 78.7781 145.72C75.7741 143.137 62.0156 145.3 62.0156 145.3L78.5378 239.446Z" fill="#D9D9D9" stroke="#242427" stroke-width="3.20018" stroke-miterlimit="10" stroke-linecap="round"/>
<path fill-rule="evenodd" clip-rule="evenodd" d="M46.2954 175.217C45.5669 169.344 46.3742 163.382 48.6386 157.914C49.3016 156.232 50.1693 154.637 51.222 153.167C54.2261 148.932 62.4271 141.782 67.7743 146.589C73.1215 151.395 103.823 200.481 102.741 209.403C101.66 218.325 84.3265 243.228 78.5287 239.443C76.0926 237.318 74.1105 234.722 72.7009 231.813C63.5579 217.461 55.7162 202.321 49.2694 186.572C47.771 182.938 46.7706 179.119 46.2954 175.217Z" fill="#D9D9D9" stroke="#242427" stroke-width="3.20018" stroke-miterlimit="10" stroke-linecap="round"/>
<path d="M222.875 42.1617L224.229 27.2629L229.254 30.0998L233.033 38.0984L222.875 42.1617Z" fill="white" stroke="#242427" stroke-width="2.86018" stroke-linecap="round" stroke-linejoin="round"/>
<path d="M278.401 2.20483L210.68 18.458L228.965 29.2935L238.446 49.61L278.401 2.20483Z" fill="white" stroke="#242427" stroke-width="2.86018" stroke-linecap="round" stroke-linejoin="round"/>
<path d="M228.961 29.2914C232.347 26.8083 239.665 22.2113 243.092 20.4963" stroke="#242427" stroke-width="2.86018" stroke-linecap="round" stroke-linejoin="round"/>
<path d="M247.986 17.2789C254.585 13.9422 268.739 5.85462 277.717 2.20459" stroke="#242427" stroke-width="2.86018" stroke-linecap="round" stroke-linejoin="round"/>
<path d="M274.911 49.9207L275.746 48.7598L274.911 49.9207C276.41 50.9995 278.414 49.5292 277.835 47.7752L277.22 45.9107L278.803 44.7493C280.292 43.6565 279.513 41.2965 277.666 41.3051L275.702 41.3143L275.087 39.4498C274.508 37.6958 272.023 37.7074 271.46 39.4668L270.862 41.3369L268.899 41.3461C267.051 41.3547 266.294 43.722 267.794 44.8007L269.388 45.9473L268.79 47.8175L270.152 48.253L268.79 47.8175C268.227 49.5769 270.245 51.0283 271.734 49.9356L273.317 48.7741L274.911 49.9207Z" fill="#D9D9D9" stroke="#242427" stroke-width="2.86018"/>
<path d="M252.336 58.8512L257.341 60.4318M257.341 60.4318L254.338 65.1737M257.341 60.4318L260.845 65.1737M257.341 60.4318L262.347 58.8512M257.341 60.4318V55.1631" stroke="#242427" stroke-width="2.86018" stroke-linecap="round" stroke-linejoin="round"/>
<path d="M198.144 74.1602C199.11 65.7127 205.838 47.6282 214.41 50.3857C218.035 51.5518 216.458 56.2501 212.353 56.2501C207.586 56.2501 207.471 46.472 218.766 43.3791" stroke="#242427" stroke-width="2.86018" stroke-linecap="round" stroke-linejoin="round"/>
</svg>
