<svg width="24" height="24" viewBox="0 0 24 24" fill="none" xmlns="http://www.w3.org/2000/svg">
<g clip-path="url(#clip0_5603_198288)">
<path fill-rule="evenodd" clip-rule="evenodd" d="M12.0086 0C5.36884 0 0 5.40817 0 12.0996C0 17.4487 3.43911 21.9744 8.21059 23.5772C8.80795 23.6976 9.02673 23.3166 9.02673 22.997C9.02673 22.7168 9.00707 21.7556 9.00707 20.7526C5.66629 21.4729 4.9706 19.3096 4.9706 19.3096C4.4347 17.9084 3.63823 17.5471 3.63823 17.5471C2.5443 16.8071 3.71689 16.8071 3.71689 16.8071C4.92881 16.8883 5.5655 18.0486 5.5655 18.0486C6.63976 19.8922 8.36792 19.3711 9.06607 19.0491C9.1644 18.2673 9.48397 17.7265 9.82075 17.4266C7.156 17.1464 4.35358 16.1041 4.35358 11.458C4.35358 10.1354 4.83048 9.05378 5.58517 8.21305C5.46471 7.91314 5.04927 6.67172 5.70562 5.00748C5.70562 5.00748 6.71843 4.6879 9.00707 6.2489C9.98546 5.98341 10.9958 5.8482 12.0086 5.8482C13.0214 5.8482 14.0563 5.98832 15.0101 6.2489C17.2963 4.68545 18.3116 5.00748 18.3116 5.00748C18.9679 6.66926 18.55 7.91314 18.432 8.21305C19.2064 9.05378 19.6636 10.1354 19.6636 11.458C19.6636 16.1065 16.8612 17.1267 14.1768 17.4266C14.6144 17.8076 14.9929 18.5279 14.9929 19.671C14.9929 21.2935 14.9733 22.5963 14.9733 22.997C14.9733 23.3166 15.1921 23.6976 15.7894 23.5772C20.5609 21.9744 24 17.4487 24 12.0996C24.0197 5.40817 18.6312 0 12.0111 0L12.0086 0Z" fill="#7B7B7E"/>
</g>
<defs>
<clipPath id="clip0_5603_198288">
<rect width="24" height="23.5993" fill="white"/>
</clipPath>
</defs>
</svg>
