<svg width="24" height="24" viewBox="0 0 24 24" fill="none" xmlns="http://www.w3.org/2000/svg">
<g clip-path="url(#clip0_5603_198282)">
<path d="M17.3766 0H6.6231C2.9712 0 0 2.9712 0 6.6231V17.3769C0 21.0288 2.9712 24 6.6231 24H17.3769C21.0291 24 24 21.0288 24 17.3769V6.6231C24 2.9712 21.0288 0 17.3769 0H17.3766ZM21.8706 17.3769C21.8706 19.8549 19.8546 21.8706 17.3766 21.8706H6.6231C4.1454 21.8706 2.1294 19.8549 2.1294 17.3769V6.6231C2.1294 4.1454 4.1451 2.1294 6.6231 2.1294H17.3769C19.8549 2.1294 21.8709 4.1454 21.8709 6.6231V17.3769H21.8706Z" fill="#7B7B7E"/>
<path d="M12.0006 5.81592C8.59051 5.81592 5.81641 8.59002 5.81641 12.0001C5.81641 15.4102 8.59051 18.184 12.0006 18.184C15.4107 18.184 18.1848 15.4099 18.1848 12.0001C18.1848 8.59032 15.4107 5.81592 12.0006 5.81592ZM12.0006 16.0543C9.76501 16.0543 7.94581 14.2354 7.94581 11.9998C7.94581 9.76422 9.76471 7.94502 12.0006 7.94502C14.2365 7.94502 16.0554 9.76392 16.0554 11.9998C16.0554 14.2354 14.2362 16.0543 12.0006 16.0543Z" fill="#7B7B7E"/>
<path d="M18.4424 4.01025C18.032 4.01025 17.6291 4.17645 17.3393 4.46745C17.048 4.75695 16.8809 5.16015 16.8809 5.57175C16.8809 5.98335 17.0483 6.38505 17.3393 6.67605C17.6288 6.96555 18.032 7.13325 18.4424 7.13325C18.8528 7.13325 19.2557 6.96585 19.5467 6.67605C19.8377 6.38505 20.0039 5.98185 20.0039 5.57175C20.0039 5.16165 19.8377 4.75695 19.5467 4.46745C19.2572 4.17645 18.854 4.01025 18.4424 4.01025Z" fill="#7B7B7E"/>
</g>
<defs>
<clipPath id="clip0_5603_198282">
<rect width="24" height="24" fill="white"/>
</clipPath>
</defs>
</svg>
