<svg width="315" height="223" viewBox="0 0 315 223" fill="none" xmlns="http://www.w3.org/2000/svg">
<g clip-path="url(#clip0_5603_168460)">
<rect width="315" height="222.453" rx="16.9811" fill="#8CD5FE"/>
<path fill-rule="evenodd" clip-rule="evenodd" d="M253.524 207.228C255.886 192.97 241.489 178.399 220.405 172.372C231.937 159.746 235.427 144.671 227.699 134.72C220.231 125.116 204.479 123.014 188.345 128.259C183.847 116.71 174.954 108.182 163.614 106.307C150.154 104.066 136.972 111.743 129.053 124.803C117.278 120.096 104.808 120.305 95.4121 126.453C83.9671 133.973 80.181 148.336 84.1755 163.028C72.6262 167.804 64.2378 176.714 62.3795 187.968C59.757 203.911 70.9589 219.663 88.7952 227.357C82.8382 236.926 81.6398 246.531 86.7285 253.095C93.0675 261.258 107.309 262.508 122.557 257.402C127.229 271.262 138.483 281.96 152.985 284.391C170.439 287.326 187.251 277.444 195.153 261.189C205.417 266.746 215.559 267.997 222.367 263.516C231.294 257.628 232.023 243.613 225.372 228.677C240.429 226.124 251.649 218.204 253.455 207.228H253.507H253.524Z" fill="#242427" stroke="#242427" stroke-width="2.73968" stroke-miterlimit="10" stroke-linecap="round"/>
<path d="M143.691 184.026C150.358 184.026 155.762 176.056 155.762 166.225C155.762 156.393 150.358 148.423 143.691 148.423C137.025 148.423 131.621 156.393 131.621 166.225C131.621 176.056 137.025 184.026 143.691 184.026Z" fill="white"/>
<path d="M167.852 184.026C174.518 184.026 179.922 176.056 179.922 166.225C179.922 156.393 174.518 148.423 167.852 148.423C161.185 148.423 155.781 156.393 155.781 166.225C155.781 176.056 161.185 184.026 167.852 184.026Z" fill="white"/>
<path d="M144.958 177.671C149.524 177.671 153.225 172.547 153.225 166.226C153.225 159.905 149.524 154.781 144.958 154.781C140.393 154.781 136.691 159.905 136.691 166.226C136.691 172.547 140.393 177.671 144.958 177.671Z" fill="#242427"/>
<path d="M165.939 177.671C170.149 177.671 173.563 172.547 173.563 166.226C173.563 159.905 170.149 154.781 165.939 154.781C161.728 154.781 158.314 159.905 158.314 166.226C158.314 172.547 161.728 177.671 165.939 177.671Z" fill="#242427"/>
<path d="M155.877 188.153C155.877 188.153 155.851 188.153 155.826 188.153H155.902C155.902 188.153 155.877 188.153 155.851 188.153C164.876 188.179 168.851 196.333 174.132 193.23C174.132 192.974 174.184 192.743 174.184 192.487C174.184 184.487 166.005 178 155.902 178C145.8 178 137.621 184.487 137.621 192.487C137.621 192.743 137.647 192.999 137.672 193.256C142.903 196.23 146.877 188.153 155.851 188.128L155.877 188.153Z" fill="#F5F378"/>
<path d="M155.88 188.155C146.906 188.155 142.932 196.257 137.701 193.283C138.214 200.923 146.162 207 155.931 207C165.7 207 173.674 200.898 174.161 193.231C168.879 196.359 164.931 188.18 155.88 188.155Z" fill="#F5F378"/>
<path d="M155.88 188.155C146.906 188.155 142.932 196.257 137.701 193.283C138.214 200.923 146.162 207 155.931 207C165.7 207 173.674 200.898 174.161 193.231C168.879 196.359 164.931 188.18 155.88 188.155Z" fill="black" fill-opacity="0.2"/>
<path d="M148.236 190.206C148.134 190.488 148.082 190.795 148.185 191.103C149.082 194.206 152.159 196.308 155.851 196.308C159.543 196.308 162.62 194.231 163.518 191.103C163.62 190.77 163.569 190.462 163.441 190.154C161.338 189.052 158.902 188.155 155.902 188.155C152.851 188.155 150.39 189.103 148.262 190.206H148.236Z" fill="#4F4E17"/>
<path d="M156.123 72.5112C153.526 72.5112 151.27 70.7343 152.159 66.907C152.842 64.105 154.619 61.918 157.695 59.5259L160.087 57.6807C162.547 55.7671 163.572 53.6484 163.572 51.3931C163.572 47.5658 161.112 45.2422 157.148 45.2422C153.116 45.2422 150.655 47.3608 149.903 50.9147C149.357 53.7167 147.716 55.2203 145.324 55.2203C142.796 55.2203 139.515 53.3067 141.292 48.2493C143.206 42.3717 148.673 37.9294 157.285 37.9294C165.827 37.9294 172.252 42.9868 172.252 51.1197C172.252 56.0404 169.176 60.2777 166.238 62.4647L163.641 64.3783C161.727 65.7452 160.633 67.1804 160.087 69.1624C159.472 71.1443 158.378 72.5112 156.123 72.5112ZM149.698 81.8059C149.698 78.4571 152.364 75.7917 155.713 75.7917C159.061 75.7917 161.727 78.4571 161.727 81.8059C161.727 85.1547 159.061 87.8201 155.713 87.8201C152.364 87.8201 149.698 85.1547 149.698 81.8059Z" fill="#4882A3"/>
</g>
<defs>
<clipPath id="clip0_5603_168460">
<rect width="315" height="222.453" rx="16.9811" fill="white"/>
</clipPath>
</defs>
</svg>
