<svg width="315" height="223" viewBox="0 0 315 223" fill="none" xmlns="http://www.w3.org/2000/svg">
<g clip-path="url(#clip0_5603_167662)">
<rect width="315" height="222.453" rx="16.9811" fill="#DDC1FF"/>
<g filter="url(#filter0_d_5603_167662)">
<path fill-rule="evenodd" clip-rule="evenodd" d="M299.55 209.67C301.192 199.758 291.183 189.629 276.526 185.44C284.543 176.662 286.97 166.183 281.597 159.265C276.406 152.589 265.455 151.128 254.24 154.774C251.113 146.745 244.931 140.818 237.048 139.514C227.691 137.956 218.528 143.293 213.022 152.372C204.837 149.1 196.168 149.245 189.637 153.518C181.681 158.746 179.049 168.73 181.826 178.944C173.797 182.264 167.966 188.458 166.674 196.281C164.851 207.364 172.638 218.314 185.037 223.663C180.896 230.315 180.063 236.991 183.6 241.555C188.007 247.229 197.907 248.099 208.507 244.549C211.755 254.183 219.578 261.62 229.659 263.311C241.792 265.351 253.479 258.481 258.972 247.181C266.107 251.044 273.158 251.914 277.891 248.799C284.096 244.706 284.603 234.963 279.979 224.58C290.447 222.806 298.246 217.3 299.501 209.67H299.538H299.55Z" fill="#242427" stroke="#242427" stroke-width="2.41461" stroke-miterlimit="10" stroke-linecap="round"/>
<path d="M258.528 185.812L260.16 184.864C259.8 184.364 259.192 184.065 258.528 184.065C257.865 184.065 257.256 184.364 256.897 184.864L258.528 185.812ZM258.528 185.812C259.616 185.18 260.16 184.864 260.16 184.864L260.215 184.938C260.215 184.938 260.326 185.088 260.381 185.188C260.519 185.388 260.74 185.687 260.989 186.062C261.487 186.785 262.15 187.809 262.814 188.907C263.478 190.005 264.169 191.203 264.694 192.351C265.192 193.424 265.662 194.672 265.662 195.72C265.662 196.594 265.496 197.442 265.137 198.241C264.777 199.04 264.279 199.788 263.616 200.412C262.952 201.036 262.178 201.535 261.293 201.885C260.436 202.234 259.496 202.409 258.528 202.409C257.561 202.409 256.648 202.234 255.763 201.885C254.906 201.535 254.104 201.036 253.441 200.412C252.777 199.788 252.279 199.04 251.92 198.241C251.56 197.442 251.395 196.569 251.395 195.72C251.395 194.672 251.865 193.424 252.362 192.351C252.888 191.203 253.579 190.005 254.242 188.907C254.906 187.809 255.57 186.785 256.067 186.062C256.316 185.687 256.51 185.388 256.676 185.188C256.759 185.088 256.814 185.013 256.842 184.938L256.897 184.864C256.897 184.864 256.897 184.864 258.528 185.812Z" fill="#4FB4EC"/>
</g>
<path d="M222.837 194.847C227.767 194.847 231.763 189.079 231.763 181.964C231.763 174.848 227.767 169.08 222.837 169.08C217.907 169.08 213.91 174.848 213.91 181.964C213.91 189.079 217.907 194.847 222.837 194.847Z" fill="white"/>
<path d="M240.704 194.847C245.634 194.847 249.63 189.079 249.63 181.964C249.63 174.848 245.634 169.08 240.704 169.08C235.774 169.08 231.777 174.848 231.777 181.964C231.777 189.079 235.774 194.847 240.704 194.847Z" fill="white"/>
<path d="M241.324 188.743C239.109 188.719 236.733 187.797 235.435 185.95C234.626 184.797 234.275 183.618 234.264 182.469C234.26 182.105 234.291 181.753 234.373 181.42L248.5 183.335C247.981 186.583 244.592 188.767 241.324 188.743Z" fill="#222323"/>
<path d="M222.202 188.744C224.417 188.721 226.793 187.799 228.091 185.951C228.9 184.798 229.251 183.62 229.262 182.47C229.266 182.106 229.235 181.754 229.153 181.421L215.026 183.336C215.545 186.584 218.934 188.769 222.202 188.744Z" fill="#222323"/>
<path d="M231.746 194.511C231.746 194.511 231.728 194.511 231.709 194.511H231.764C231.764 194.511 231.746 194.511 231.728 194.511C238.18 194.529 241.021 200.358 244.796 198.14C244.796 197.957 244.833 197.792 244.833 197.609C244.833 191.89 238.986 187.253 231.764 187.253C224.542 187.253 218.695 191.89 218.695 197.609C218.695 197.792 218.714 197.975 218.732 198.159C222.471 200.285 225.312 194.511 231.728 194.493L231.746 194.511Z" fill="#F5F378"/>
<path d="M231.75 194.512C225.334 194.512 222.493 200.304 218.754 198.178C219.12 203.64 224.803 207.984 231.786 207.984C238.77 207.984 244.47 203.622 244.818 198.141C241.043 200.377 238.22 194.53 231.75 194.512Z" fill="#F5F378"/>
<path d="M231.75 194.512C225.334 194.512 222.493 200.304 218.754 198.178C219.12 203.64 224.803 207.984 231.786 207.984C238.77 207.984 244.47 203.622 244.818 198.141C241.043 200.377 238.22 194.53 231.75 194.512Z" fill="black" fill-opacity="0.2"/>
<path d="M226.284 195.978C226.21 196.18 226.174 196.4 226.247 196.62C226.889 198.838 229.088 200.341 231.728 200.341C234.367 200.341 236.566 198.856 237.208 196.62C237.281 196.382 237.245 196.162 237.153 195.942C235.65 195.153 233.909 194.512 231.764 194.512C229.583 194.512 227.823 195.19 226.302 195.978H226.284Z" fill="#4F4E17"/>
<rect x="22.9258" y="19.5664" width="179.578" height="98.1483" rx="19.9335" fill="black" fill-opacity="0.08"/>
<path d="M46.3763 45.7956H44.9357V34.0639H46.3763V45.7956ZM37.1752 42.5383C37.5861 42.5339 38.0295 42.5296 38.5054 42.5253C38.9812 42.5166 39.3987 42.508 39.7577 42.4993V41.4222C39.3165 41.353 38.9315 41.221 38.6027 41.0264C38.2783 40.8317 38.0252 40.5873 37.8435 40.2931C37.6662 39.9947 37.5775 39.6616 37.5775 39.2939C37.5775 38.857 37.6986 38.472 37.9409 38.1389C38.1831 37.8058 38.5205 37.5484 38.9531 37.3667C39.39 37.1807 39.8918 37.0877 40.4585 37.0877C41.0295 37.0877 41.5356 37.1807 41.9769 37.3667C42.4181 37.5484 42.762 37.8058 43.0086 38.1389C43.2552 38.472 43.3784 38.857 43.3784 39.2939C43.3784 39.6573 43.2876 39.986 43.1059 40.2802C42.9286 40.5743 42.6755 40.8209 42.3467 41.0199C42.018 41.2146 41.6351 41.3465 41.1982 41.4157V42.4474C42.2883 42.3998 43.3049 42.3133 44.2479 42.1879L44.3518 43.265C43.2054 43.4597 42.0288 43.5873 40.8219 43.6478C39.615 43.7041 38.2956 43.7322 36.8637 43.7322L36.6561 42.5383H37.1752ZM44.0403 36.5556H36.9027V35.4136H39.7577V34.1029H41.1982V35.4136H44.0403V36.5556ZM40.4585 38.1908C40.0043 38.1994 39.6388 38.3011 39.3619 38.4958C39.085 38.6904 38.9488 38.9565 38.9531 39.2939C38.9488 39.5145 39.0093 39.707 39.1348 39.8714C39.2646 40.0314 39.4441 40.1547 39.6734 40.2412C39.9026 40.3234 40.1643 40.3624 40.4585 40.358C40.9214 40.3667 41.2912 40.2758 41.5681 40.0855C41.8493 39.8908 41.9898 39.627 41.9898 39.2939C41.9898 38.9565 41.8514 38.6904 41.5746 38.4958C41.2977 38.3011 40.9257 38.1994 40.4585 38.1908ZM52.0042 36.8801C51.9999 37.5808 52.1102 38.2687 52.3351 38.9435C52.5644 39.614 52.8953 40.2153 53.3279 40.7474C53.7605 41.2794 54.2709 41.6861 54.8592 41.9673L53.9768 43.1223C53.3538 42.8065 52.8131 42.3566 52.3546 41.7726C51.9004 41.1886 51.5456 40.5138 51.2904 39.7481C51.0265 40.5657 50.6545 41.2881 50.1743 41.9153C49.6985 42.5383 49.1318 43.0141 48.4743 43.3429L47.5918 42.1879C48.2018 41.898 48.7295 41.4763 49.1751 40.9226C49.625 40.3645 49.9667 39.7351 50.2003 39.0343C50.4382 38.3292 50.5593 37.6111 50.5637 36.8801V35.0113H52.0042V36.8801ZM57.0005 38.658H58.8044V39.8908H57.0005V45.7956H55.56V34.0639H57.0005V38.658ZM62.6804 36.2442C62.6804 36.6767 62.7647 37.0963 62.9334 37.503C63.1021 37.9096 63.3574 38.2751 63.6991 38.5996C64.0452 38.924 64.4669 39.1814 64.9644 39.3717L64.1987 40.4748C63.6883 40.2802 63.2492 40.0055 62.8815 39.6508C62.5138 39.296 62.2218 38.8829 62.0055 38.4114C61.7806 38.9565 61.4735 39.4388 61.0841 39.8584C60.6991 40.278 60.2363 40.6003 59.6955 40.8252L58.9169 39.7221C59.4317 39.4929 59.8664 39.1901 60.2211 38.8137C60.5758 38.4374 60.8419 38.0286 61.0192 37.5873C61.1966 37.1418 61.2874 36.694 61.2918 36.2442V34.7907H62.6804V36.2442ZM69.0523 41.2665H67.6767V38.2167H66.5087V40.9031H65.1591V34.2975H66.5087V37.0358H67.6767V34.0769H69.0523V41.2665ZM65.0942 41.4611C65.9075 41.4611 66.6147 41.5476 67.216 41.7207C67.8216 41.8894 68.2888 42.136 68.6176 42.4604C68.9464 42.7848 69.1129 43.1698 69.1172 43.6154C69.1129 44.061 68.9464 44.446 68.6176 44.7704C68.2888 45.0992 67.8216 45.3501 67.216 45.5231C66.6147 45.6961 65.9075 45.7826 65.0942 45.7826C64.2723 45.7826 63.5585 45.6961 62.9529 45.5231C62.3473 45.3501 61.8823 45.0992 61.5578 44.7704C61.2334 44.446 61.0712 44.061 61.0712 43.6154C61.0712 43.1698 61.2334 42.7848 61.5578 42.4604C61.8823 42.136 62.3473 41.8894 62.9529 41.7207C63.5585 41.5476 64.2723 41.4611 65.0942 41.4611ZM65.0942 42.5512C64.2766 42.5512 63.6407 42.6442 63.1865 42.8303C62.7366 43.0119 62.5117 43.2737 62.5117 43.6154C62.5117 43.9615 62.7366 44.2253 63.1865 44.407C63.6364 44.5887 64.2723 44.6796 65.0942 44.6796C65.9075 44.6796 66.539 44.5887 66.9889 44.407C67.4388 44.2253 67.6637 43.9615 67.6637 43.6154C67.6637 43.2737 67.4366 43.0119 66.9824 42.8303C66.5325 42.6442 65.9031 42.5512 65.0942 42.5512ZM79.5209 36.919H81.1041V38.1259H79.5209V40.968H78.0804V34.0639H79.5209V36.919ZM79.5209 43.9658H73.1489V44.7185H79.9362V45.6918H71.7084V43.0703H78.0804V42.4085H71.6825V41.4352H79.5209V43.9658ZM70.1252 39.787C71.3883 39.787 72.3746 39.7762 73.084 39.7546V39.1706C72.4135 39.1014 71.8901 38.9348 71.5137 38.671C71.1417 38.4071 70.9557 38.061 70.9557 37.6328C70.9557 37.3213 71.0703 37.0531 71.2996 36.8281C71.5332 36.5989 71.862 36.4258 72.2859 36.309C72.7098 36.1879 73.2095 36.1274 73.7848 36.1274C74.3602 36.1274 74.8598 36.1879 75.2837 36.309C75.7077 36.4258 76.0343 36.5989 76.2635 36.8281C76.4971 37.0531 76.6139 37.3213 76.6139 37.6328C76.6139 38.0567 76.4301 38.4006 76.0624 38.6645C75.6947 38.924 75.1821 39.0906 74.5245 39.1641V39.7027C75.5584 39.6551 76.5404 39.5707 77.4704 39.4496L77.5872 40.358C76.4841 40.5484 75.3486 40.6695 74.1806 40.7214C73.017 40.7733 71.7171 40.7993 70.2809 40.7993L70.1252 39.787ZM77.159 35.8419H70.4236V34.8556H73.084V33.9731H74.5245V34.8556H77.159V35.8419ZM73.7848 37.0358C73.322 37.0444 72.9651 37.0985 72.7142 37.198C72.4633 37.2975 72.34 37.4424 72.3443 37.6328C72.34 37.8404 72.4633 38.0005 72.7142 38.1129C72.9694 38.2254 73.3263 38.2816 73.7848 38.2816C74.2434 38.2816 74.6002 38.2254 74.8555 38.1129C75.1107 38.0005 75.2383 37.8404 75.2383 37.6328C75.2383 37.4424 75.1107 37.2975 74.8555 37.198C74.6046 37.0985 74.2477 37.0444 73.7848 37.0358ZM92.1307 41.2794H81.4372V40.1244H92.1307V41.2794ZM90.9238 45.562H82.7609V42.1489H84.2015V44.3941H90.9238V45.562ZM86.771 34.4403C87.6189 34.4403 88.3608 34.5354 88.9967 34.7258C89.6326 34.9161 90.1235 35.1908 90.4696 35.5499C90.82 35.9046 90.9974 36.3263 91.0017 36.8152C90.9974 37.3083 90.82 37.7366 90.4696 38.0999C90.1235 38.459 89.6326 38.7358 88.9967 38.9305C88.3608 39.1208 87.6189 39.216 86.771 39.216C85.9231 39.216 85.1791 39.1208 84.5389 38.9305C83.903 38.7358 83.4098 38.459 83.0594 38.0999C82.7134 37.7366 82.5403 37.3083 82.5403 36.8152C82.5403 36.3263 82.7134 35.9046 83.0594 35.5499C83.4098 35.1908 83.903 34.9161 84.5389 34.7258C85.1791 34.5354 85.9231 34.4403 86.771 34.4403ZM86.771 35.5953C85.9145 35.5953 85.244 35.7034 84.7595 35.9197C84.2793 36.1317 84.0414 36.4302 84.0457 36.8152C84.0414 37.0747 84.1474 37.2975 84.3637 37.4835C84.5843 37.6695 84.8979 37.8101 85.3045 37.9053C85.7155 37.9961 86.2043 38.0394 86.771 38.0351C87.6319 38.0437 88.3024 37.9421 88.7825 37.7301C89.267 37.5138 89.5093 37.2088 89.5093 36.8152C89.5093 36.4258 89.267 36.1252 88.7825 35.9132C88.3024 35.7013 87.6319 35.5953 86.771 35.5953ZM105.255 35.6212H101.875C101.953 35.9457 102.158 36.2506 102.491 36.5362C102.824 36.8173 103.265 37.0574 103.815 37.2564C104.369 37.4554 105 37.5895 105.71 37.6587L105.19 38.7878C104.131 38.6796 103.222 38.4309 102.465 38.0415C101.708 37.6479 101.172 37.1526 100.856 36.5556C100.536 37.1526 99.9973 37.6479 99.2403 38.0415C98.4876 38.4309 97.5856 38.6796 96.5344 38.7878L96.0283 37.6587C96.7334 37.5895 97.3585 37.4576 97.9036 37.2629C98.453 37.0639 98.892 36.8238 99.2208 36.5426C99.5539 36.2571 99.7615 35.95 99.8437 35.6212H96.4955V34.4662H105.255V35.6212ZM101.57 39.6183H106.216V40.7733H95.5222V39.6183H100.142V38.1648H101.57V39.6183ZM104.918 45.6529H96.781V41.7856H104.918V45.6529ZM98.2085 44.4849H103.516V42.9276H98.2085V44.4849ZM112.813 34.9204C113.34 34.9204 113.816 35.061 114.24 35.3422C114.664 35.6234 115.01 36.0257 115.278 36.5491C115.547 37.0682 115.713 37.6803 115.778 38.3855H118.017V34.0639H119.444V45.8086H118.017V39.5534H115.797C115.746 40.2975 115.588 40.9464 115.324 41.5001C115.06 42.0494 114.712 42.4734 114.279 42.7719C113.846 43.066 113.358 43.2131 112.813 43.2131C112.224 43.2131 111.703 43.0444 111.249 42.707C110.795 42.3696 110.44 41.8872 110.185 41.26C109.929 40.6327 109.802 39.8995 109.802 39.0603C109.802 38.2297 109.929 37.503 110.185 36.8801C110.44 36.2528 110.795 35.7705 111.249 35.4331C111.707 35.0913 112.229 34.9204 112.813 34.9204ZM112.813 36.2182C112.488 36.2182 112.203 36.3328 111.956 36.5621C111.71 36.7871 111.519 37.1137 111.385 37.5419C111.251 37.9658 111.186 38.472 111.19 39.0603C111.186 39.6529 111.251 40.1634 111.385 40.5916C111.519 41.0199 111.71 41.3487 111.956 41.5779C112.203 41.8029 112.488 41.9153 112.813 41.9153C113.137 41.9153 113.42 41.8029 113.663 41.5779C113.909 41.3487 114.1 41.0199 114.234 40.5916C114.372 40.1634 114.443 39.6529 114.448 39.0603C114.443 38.472 114.372 37.9637 114.234 37.5354C114.1 37.1072 113.909 36.7806 113.663 36.5556C113.42 36.3307 113.137 36.2182 112.813 36.2182ZM124.099 36.348H122.541V41.6428C123.125 41.6212 123.645 41.5563 124.099 41.4482L124.254 42.6421C123.852 42.7243 123.463 42.7783 123.086 42.8043C122.714 42.8259 122.243 42.8367 121.672 42.8367H121.114V35.18H124.099V36.348ZM127.901 36.348H126.136V41.6493C126.582 41.6407 126.971 41.6212 127.304 41.5909C127.637 41.5563 127.97 41.5001 128.303 41.4222L128.42 42.5902C127.979 42.6983 127.546 42.7675 127.123 42.7978C126.699 42.8238 126.102 42.8367 125.332 42.8367H124.696V35.18H127.901V36.348ZM130.782 45.7956H129.342V39.3977H127.382V38.2297H129.342V34.0639H130.782V45.7956ZM141.809 45.7956H140.381V34.0639H141.809V45.7956ZM134.126 41.6169C135.947 41.5866 137.682 41.4092 139.33 41.0848L139.512 42.2917C138.538 42.495 137.574 42.6399 136.618 42.7264C135.666 42.8086 134.697 42.8497 133.711 42.8497H132.699V35.206H134.126V41.6169ZM145.218 41.7596C145.222 41.2275 145.274 40.7971 145.373 40.4683C145.473 40.1396 145.611 39.8779 145.789 39.6832C145.97 39.4842 146.212 39.2896 146.515 39.0992C146.822 38.9046 147.06 38.6926 147.229 38.4633C147.402 38.2297 147.489 37.9615 147.489 37.6587C147.489 37.4208 147.432 37.2131 147.32 37.0358C147.207 36.8541 147.054 36.7135 146.859 36.614C146.669 36.5145 146.455 36.4648 146.217 36.4648C145.992 36.4648 145.782 36.5124 145.587 36.6075C145.393 36.7027 145.233 36.8476 145.107 37.0423C144.986 37.2369 144.919 37.4727 144.906 37.7496H143.284C143.297 37.1872 143.435 36.7092 143.699 36.3155C143.963 35.9176 144.316 35.6191 144.757 35.4201C145.198 35.2168 145.689 35.1151 146.23 35.1151C146.809 35.1151 147.322 35.2189 147.768 35.4266C148.217 35.6299 148.566 35.9219 148.812 36.3026C149.063 36.6832 149.189 37.1266 149.189 37.6328C149.189 38.1346 149.07 38.5671 148.832 38.9305C148.598 39.2939 148.259 39.6097 147.813 39.8779C147.553 40.0336 147.346 40.1958 147.19 40.3645C147.039 40.5289 146.926 40.7214 146.853 40.942C146.779 41.1626 146.74 41.4352 146.736 41.7596V41.8764H145.218V41.7596ZM146.022 44.7444C145.84 44.7444 145.672 44.699 145.516 44.6082C145.36 44.5173 145.237 44.3941 145.146 44.2383C145.055 44.0826 145.01 43.9139 145.01 43.7322C145.01 43.5548 145.055 43.3905 145.146 43.2391C145.237 43.0833 145.36 42.96 145.516 42.8692C145.672 42.7783 145.84 42.7329 146.022 42.7329C146.195 42.7329 146.357 42.7783 146.509 42.8692C146.665 42.96 146.788 43.0833 146.879 43.2391C146.974 43.3905 147.021 43.5548 147.021 43.7322C147.021 43.9139 146.974 44.0826 146.879 44.2383C146.788 44.3941 146.665 44.5173 146.509 44.6082C146.357 44.699 146.195 44.7444 146.022 44.7444ZM40.7959 55.8801C40.7916 56.5808 40.9019 57.2687 41.1268 57.9435C41.3561 58.614 41.687 59.2153 42.1196 59.7474C42.5522 60.2794 43.0627 60.6861 43.651 60.9673L42.7685 62.1223C42.1456 61.8065 41.6048 61.3566 41.1463 60.7726C40.6921 60.1886 40.3374 59.5138 40.0822 58.7481C39.8183 59.5657 39.4463 60.2881 38.9661 60.9153C38.4902 61.5383 37.9236 62.0141 37.266 62.3429L36.3836 61.1879C36.9935 60.898 37.5212 60.4763 37.9668 59.9226C38.4167 59.3645 38.7584 58.7351 38.992 58.0343C39.23 57.3292 39.3511 56.6111 39.3554 55.8801V54.0113H40.7959V55.8801ZM45.7923 57.658H47.5961V58.8908H45.7923V64.7956H44.3518V53.0639H45.7923V57.658ZM57.5845 64.7956H56.144V53.0639H57.5845V64.7956ZM48.3834 61.5383C48.7944 61.5339 49.2378 61.5296 49.7136 61.5253C50.1895 61.5166 50.6069 61.508 50.966 61.4993V60.4222C50.5247 60.353 50.1397 60.221 49.811 60.0264C49.4865 59.8317 49.2335 59.5873 49.0518 59.2931C48.8744 58.9947 48.7858 58.6616 48.7858 58.2939C48.7858 57.857 48.9069 57.472 49.1491 57.1389C49.3914 56.8058 49.7288 56.5484 50.1614 56.3667C50.5983 56.1807 51.1001 56.0877 51.6668 56.0877C52.2378 56.0877 52.7439 56.1807 53.1851 56.3667C53.6264 56.5484 53.9703 56.8058 54.2169 57.1389C54.4634 57.472 54.5867 57.857 54.5867 58.2939C54.5867 58.6573 54.4959 58.986 54.3142 59.2802C54.1368 59.5743 53.8838 59.8209 53.555 60.0199C53.2262 60.2146 52.8434 60.3465 52.4065 60.4157V61.4474C53.4966 61.3998 54.5132 61.3133 55.4562 61.1879L55.56 62.265C54.4137 62.4597 53.237 62.5873 52.0301 62.6478C50.8232 62.7041 49.5038 62.7322 48.072 62.7322L47.8643 61.5383H48.3834ZM55.2486 55.5556H48.1109V54.4136H50.966V53.1029H52.4065V54.4136H55.2486V55.5556ZM51.6668 57.1908C51.2126 57.1994 50.847 57.3011 50.5702 57.4958C50.2933 57.6904 50.157 57.9565 50.1614 58.2939C50.157 58.5145 50.2176 58.707 50.3431 58.8714C50.4728 59.0314 50.6524 59.1547 50.8816 59.2412C51.1109 59.3234 51.3726 59.3624 51.6668 59.358C52.1296 59.3667 52.4995 59.2758 52.7763 59.0855C53.0575 58.8908 53.1981 58.627 53.1981 58.2939C53.1981 57.9565 53.0597 57.6904 52.7828 57.4958C52.506 57.3011 52.134 57.1994 51.6668 57.1908ZM62.6804 55.2442C62.6804 55.6767 62.7647 56.0963 62.9334 56.503C63.1021 56.9096 63.3574 57.2751 63.6991 57.5996C64.0452 57.924 64.4669 58.1814 64.9644 58.3717L64.1987 59.4748C63.6883 59.2802 63.2492 59.0055 62.8815 58.6508C62.5138 58.296 62.2218 57.8829 62.0055 57.4114C61.7806 57.9565 61.4735 58.4388 61.0841 58.8584C60.6991 59.278 60.2363 59.6003 59.6955 59.8252L58.9169 58.7221C59.4317 58.4929 59.8664 58.1901 60.2211 57.8137C60.5758 57.4374 60.8419 57.0286 61.0192 56.5873C61.1966 56.1418 61.2874 55.694 61.2918 55.2442V53.7907H62.6804V55.2442ZM69.0523 60.2665H67.6767V57.2167H66.5087V59.9031H65.1591V53.2975H66.5087V56.0358H67.6767V53.0769H69.0523V60.2665ZM65.0942 60.4611C65.9075 60.4611 66.6147 60.5476 67.216 60.7207C67.8216 60.8894 68.2888 61.136 68.6176 61.4604C68.9464 61.7848 69.1129 62.1698 69.1172 62.6154C69.1129 63.061 68.9464 63.446 68.6176 63.7704C68.2888 64.0992 67.8216 64.3501 67.216 64.5231C66.6147 64.6961 65.9075 64.7826 65.0942 64.7826C64.2723 64.7826 63.5585 64.6961 62.9529 64.5231C62.3473 64.3501 61.8823 64.0992 61.5578 63.7704C61.2334 63.446 61.0712 63.061 61.0712 62.6154C61.0712 62.1698 61.2334 61.7848 61.5578 61.4604C61.8823 61.136 62.3473 60.8894 62.9529 60.7207C63.5585 60.5476 64.2723 60.4611 65.0942 60.4611ZM65.0942 61.5512C64.2766 61.5512 63.6407 61.6442 63.1865 61.8303C62.7366 62.0119 62.5117 62.2737 62.5117 62.6154C62.5117 62.9615 62.7366 63.2253 63.1865 63.407C63.6364 63.5887 64.2723 63.6796 65.0942 63.6796C65.9075 63.6796 66.539 63.5887 66.9889 63.407C67.4388 63.2253 67.6637 62.9615 67.6637 62.6154C67.6637 62.2737 67.4366 62.0119 66.9824 61.8303C66.5325 61.6442 65.9031 61.5512 65.0942 61.5512ZM79.5209 55.919H81.1041V57.1259H79.5209V59.968H78.0804V53.0639H79.5209V55.919ZM79.5209 62.9658H73.1489V63.7185H79.9362V64.6918H71.7084V62.0703H78.0804V61.4085H71.6825V60.4352H79.5209V62.9658ZM70.1252 58.787C71.3883 58.787 72.3746 58.7762 73.084 58.7546V58.1706C72.4135 58.1014 71.8901 57.9348 71.5137 57.671C71.1417 57.4071 70.9557 57.061 70.9557 56.6328C70.9557 56.3213 71.0703 56.0531 71.2996 55.8281C71.5332 55.5989 71.862 55.4258 72.2859 55.309C72.7098 55.1879 73.2095 55.1274 73.7848 55.1274C74.3602 55.1274 74.8598 55.1879 75.2837 55.309C75.7077 55.4258 76.0343 55.5989 76.2635 55.8281C76.4971 56.0531 76.6139 56.3213 76.6139 56.6328C76.6139 57.0567 76.4301 57.4006 76.0624 57.6645C75.6947 57.924 75.1821 58.0906 74.5245 58.1641V58.7027C75.5584 58.6551 76.5404 58.5707 77.4704 58.4496L77.5872 59.358C76.4841 59.5484 75.3486 59.6695 74.1806 59.7214C73.017 59.7733 71.7171 59.7993 70.2809 59.7993L70.1252 58.787ZM77.159 54.8419H70.4236V53.8556H73.084V52.9731H74.5245V53.8556H77.159V54.8419ZM73.7848 56.0358C73.322 56.0444 72.9651 56.0985 72.7142 56.198C72.4633 56.2975 72.34 56.4424 72.3443 56.6328C72.34 56.8404 72.4633 57.0005 72.7142 57.1129C72.9694 57.2254 73.3263 57.2816 73.7848 57.2816C74.2434 57.2816 74.6002 57.2254 74.8555 57.1129C75.1107 57.0005 75.2383 56.8404 75.2383 56.6328C75.2383 56.4424 75.1107 56.2975 74.8555 56.198C74.6046 56.0985 74.2477 56.0444 73.7848 56.0358ZM93.5669 55.6854H95.2151V56.8534H93.5669V59.4359H92.1264V53.038H93.5669V55.6854ZM93.5669 62.7841H87.3377V63.6147H93.9303V64.6918H85.9102V61.7848H92.1264V61.0062H85.8972V59.955H93.5669V62.7841ZM91.2829 55.1144H84.3269V54.0113H87.0911V52.9731H88.5316V54.0113H91.2829V55.1144ZM87.8049 55.4778C88.3802 55.4821 88.882 55.5643 89.3103 55.7243C89.7429 55.8801 90.076 56.1028 90.3096 56.3927C90.5475 56.6782 90.6686 57.0134 90.6729 57.3984C90.6686 57.7964 90.5475 58.1403 90.3096 58.4301C90.076 58.7156 89.745 58.9363 89.3168 59.092C88.8885 59.2434 88.3845 59.3191 87.8049 59.3191C87.2252 59.3191 86.7191 59.2434 86.2865 59.092C85.8539 58.9363 85.5187 58.7156 85.2808 58.4301C85.0428 58.1403 84.9239 57.7964 84.9239 57.3984C84.9239 57.0134 85.0428 56.6782 85.2808 56.3927C85.5187 56.1028 85.8539 55.8801 86.2865 55.7243C86.7234 55.5643 87.2295 55.4821 87.8049 55.4778ZM87.8049 56.516C87.3463 56.516 86.9851 56.5938 86.7213 56.7496C86.4574 56.9053 86.3254 57.1216 86.3254 57.3984C86.3254 57.6796 86.4574 57.8981 86.7213 58.0538C86.9851 58.2052 87.3463 58.2809 87.8049 58.2809C88.2678 58.2809 88.6311 58.2052 88.895 58.0538C89.1632 57.8981 89.2973 57.6796 89.2973 57.3984C89.2973 57.1216 89.1632 56.9053 88.895 56.7496C88.6268 56.5938 88.2634 56.516 87.8049 56.516ZM106.224 57.6969H107.288V53.0639H108.651V64.7956H107.288V58.8779H106.224V64.2376H104.901V53.2845H106.224V57.6969ZM101.163 55.6594H99.9692V60.6558C100.371 60.6255 100.778 60.5606 101.189 60.4611L101.306 61.668C100.908 61.7546 100.542 61.8108 100.209 61.8367C99.8762 61.8627 99.5236 61.8757 99.1516 61.8757H98.6455V54.4915H101.163V55.6594ZM104.226 55.6594H102.941V60.6688C103.438 60.6471 103.923 60.5736 104.395 60.4482L104.498 61.6551C104.092 61.7502 103.711 61.8108 103.356 61.8367C103.002 61.8627 102.599 61.8757 102.149 61.8757H101.643V54.4915H104.226V55.6594ZM119.107 57.5282H110.983V53.4922H112.41V56.3862H119.107V57.5282ZM120.314 60.0329H109.594V58.8908H120.314V60.0329ZM119.185 64.5231H110.879V61.0711H112.319V63.3551H119.185V64.5231ZM133.451 64.8086H131.998V53.0639H133.451V64.8086ZM127.131 53.9204C127.719 53.9204 128.243 54.0913 128.701 54.4331C129.164 54.7705 129.528 55.2528 129.792 55.8801C130.055 56.503 130.19 57.2297 130.194 58.0603C130.19 58.8952 130.055 59.6262 129.792 60.2535C129.532 60.8807 129.171 61.3652 128.708 61.707C128.245 62.0444 127.719 62.2131 127.131 62.2131C126.539 62.2131 126.011 62.0444 125.548 61.707C125.085 61.3652 124.722 60.8807 124.458 60.2535C124.198 59.6262 124.068 58.8952 124.068 58.0603C124.068 57.2297 124.198 56.503 124.458 55.8801C124.722 55.2528 125.085 54.7705 125.548 54.4331C126.011 54.0913 126.539 53.9204 127.131 53.9204ZM127.131 55.2182C126.798 55.2182 126.504 55.3307 126.249 55.5556C125.998 55.7806 125.803 56.1072 125.665 56.5354C125.526 56.9637 125.457 57.472 125.457 58.0603C125.457 58.6529 125.526 59.1634 125.665 59.5916C125.803 60.0199 125.998 60.3487 126.249 60.5779C126.504 60.8029 126.798 60.9153 127.131 60.9153C127.46 60.9153 127.75 60.8029 128.001 60.5779C128.252 60.3487 128.446 60.0199 128.585 59.5916C128.723 59.1634 128.792 58.6529 128.792 58.0603C128.792 57.472 128.723 56.9658 128.585 56.5419C128.446 56.1137 128.252 55.7871 128.001 55.5621C127.75 55.3328 127.46 55.2182 127.131 55.2182ZM139.676 58.6313H136.639V60.9153C137.327 60.9067 137.954 60.8851 138.521 60.8505C139.088 60.8115 139.672 60.7423 140.273 60.6428L140.377 61.8108C139.637 61.9319 138.934 62.0141 138.268 62.0574C137.602 62.1006 136.864 62.1223 136.055 62.1223H135.251V57.4633H138.288V55.4258H135.238V54.2579H139.676V58.6313ZM144.997 64.7956H143.621V58.7351H142.298V64.1987H140.974V53.2845H142.298V57.5671H143.621V53.0639H144.997V64.7956ZM149.262 53.9204C149.85 53.9204 150.374 54.0913 150.832 54.4331C151.291 54.7705 151.65 55.2528 151.91 55.8801C152.173 56.503 152.308 57.2297 152.312 58.0603C152.308 58.8995 152.173 59.6327 151.91 60.26C151.65 60.8872 151.291 61.3696 150.832 61.707C150.374 62.0444 149.85 62.2131 149.262 62.2131C148.67 62.2131 148.142 62.0444 147.679 61.707C147.216 61.3652 146.855 60.8807 146.595 60.2535C146.336 59.6262 146.208 58.8952 146.212 58.0603C146.208 57.234 146.336 56.5073 146.595 55.8801C146.855 55.2528 147.216 54.7705 147.679 54.4331C148.142 54.0913 148.67 53.9204 149.262 53.9204ZM149.262 55.2182C148.933 55.2182 148.644 55.3328 148.393 55.5621C148.142 55.7871 147.947 56.1137 147.809 56.5419C147.67 56.9658 147.601 57.472 147.601 58.0603C147.601 58.6529 147.67 59.1634 147.809 59.5916C147.947 60.0199 148.142 60.3487 148.393 60.5779C148.644 60.8029 148.933 60.9153 149.262 60.9153C149.595 60.9153 149.887 60.8029 150.138 60.5779C150.389 60.3487 150.582 60.0199 150.716 59.5916C150.854 59.1634 150.923 58.6529 150.923 58.0603C150.923 57.472 150.854 56.9637 150.716 56.5354C150.582 56.1072 150.389 55.7806 150.138 55.5556C149.887 55.3307 149.595 55.2182 149.262 55.2182ZM157.036 57.074H155.297V59.3321H157.036V60.513H155.297V64.7956H153.856V53.0639H155.297V55.8671H157.036V57.074ZM169.382 57.7358H171.186V58.9298H169.382V64.7956H167.954V53.0639H169.382V57.7358ZM167.046 56.0228H160.129V54.8678H162.906V53.2326H164.346V54.8678H167.046V56.0228ZM163.633 56.7885C164.191 56.7885 164.692 56.9074 165.138 57.1454C165.588 57.379 165.94 57.7056 166.196 58.1252C166.451 58.5448 166.579 59.0206 166.579 59.5527C166.579 60.0848 166.451 60.5606 166.196 60.9802C165.94 61.3955 165.588 61.7199 165.138 61.9535C164.692 62.1871 164.191 62.3039 163.633 62.3039C163.066 62.3039 162.558 62.1871 162.108 61.9535C161.658 61.7199 161.305 61.3955 161.05 60.9802C160.795 60.5606 160.669 60.0848 160.674 59.5527C160.669 59.0206 160.795 58.5448 161.05 58.1252C161.305 57.7056 161.658 57.379 162.108 57.1454C162.558 56.9074 163.066 56.7885 163.633 56.7885ZM163.633 57.9694C163.326 57.9694 163.051 58.0343 162.809 58.1641C162.571 58.2939 162.385 58.4799 162.251 58.7221C162.116 58.9601 162.049 59.2369 162.049 59.5527C162.049 59.8685 162.116 60.1453 162.251 60.3833C162.385 60.6169 162.571 60.7985 162.809 60.9283C163.051 61.0538 163.326 61.1143 163.633 61.11C163.931 61.1143 164.197 61.0538 164.431 60.9283C164.669 60.7985 164.855 60.6169 164.989 60.3833C165.127 60.1453 165.199 59.8685 165.203 59.5527C165.199 59.2369 165.127 58.9601 164.989 58.7221C164.855 58.4842 164.669 58.3004 164.431 58.1706C164.197 58.0365 163.931 57.9694 163.633 57.9694ZM180.979 55.2701V55.4129C180.975 56.0617 180.962 56.6263 180.94 57.1064C180.923 57.5823 180.882 58.136 180.817 58.7676C180.752 59.3948 180.651 60.0761 180.512 60.8115L179.059 60.6558C179.197 59.9723 179.299 59.3278 179.364 58.7221C179.428 58.1122 179.47 57.5715 179.487 57.0999C179.509 56.6284 179.521 56.0747 179.526 55.4388V55.2961H172.518V54.1411H180.979V55.2701ZM182.095 63.2773H171.402V62.0963H175.347V58.0214H176.775V62.0963H182.095V63.2773ZM184.038 63.7444C183.856 63.7444 183.687 63.699 183.532 63.6082C183.376 63.5173 183.253 63.3941 183.162 63.2383C183.071 63.0826 183.025 62.9139 183.025 62.7322C183.025 62.5548 183.071 62.3905 183.162 62.2391C183.253 62.0833 183.376 61.96 183.532 61.8692C183.687 61.7783 183.856 61.7329 184.038 61.7329C184.211 61.7329 184.373 61.7783 184.524 61.8692C184.68 61.96 184.803 62.0833 184.894 62.2391C184.989 62.3905 185.037 62.5548 185.037 62.7322C185.037 62.9139 184.989 63.0826 184.894 63.2383C184.803 63.3941 184.68 63.5173 184.524 63.6082C184.373 63.699 184.211 63.7444 184.038 63.7444ZM187.382 63.7444C187.2 63.7444 187.031 63.699 186.875 63.6082C186.72 63.5173 186.596 63.3941 186.506 63.2383C186.415 63.0826 186.369 62.9139 186.369 62.7322C186.369 62.5548 186.415 62.3905 186.506 62.2391C186.596 62.0833 186.72 61.96 186.875 61.8692C187.031 61.7783 187.2 61.7329 187.382 61.7329C187.555 61.7329 187.717 61.7783 187.868 61.8692C188.024 61.96 188.147 62.0833 188.238 62.2391C188.333 62.3905 188.381 62.5548 188.381 62.7322C188.381 62.9139 188.333 63.0826 188.238 63.2383C188.147 63.3941 188.024 63.5173 187.868 63.6082C187.717 63.699 187.555 63.7444 187.382 63.7444ZM45.7923 76.5671H47.5961V77.774H45.7923V83.8086H44.3647V72.0639H45.7923V76.5671ZM42.47 77.5145H38.5248V79.8505C39.5198 79.8418 40.3979 79.8115 41.1593 79.7596C41.9206 79.7034 42.6906 79.6082 43.4693 79.4741L43.5991 80.6421C42.7425 80.7978 41.8882 80.9038 41.036 80.96C40.1881 81.0163 39.1954 81.0444 38.0577 81.0444H37.0973V76.3595H41.0295V74.2571H37.0714V73.0892H42.47V77.5145ZM55.7936 83.2246H54.4699V77.5534H53.0554V76.3595H54.4699V72.2845H55.7936V83.2246ZM50.5118 74.6465H49.3827V79.6623C49.772 79.6407 50.1743 79.5823 50.5896 79.4871L50.6805 80.681C50.2868 80.7675 49.9278 80.8238 49.6033 80.8497C49.2832 80.8757 48.9415 80.8887 48.5781 80.8887H48.059V73.4785H50.5118V74.6465ZM53.6523 74.6465H52.3027V79.6623C52.8391 79.632 53.3582 79.5606 53.86 79.4482L53.9638 80.6291C53.5442 80.7286 53.1505 80.7935 52.7828 80.8238C52.4151 80.8497 51.9955 80.8627 51.524 80.8627H50.9919V73.4785H53.6523V74.6465ZM58.0647 83.7956H56.7021V72.0639H58.0647V83.7956ZM68.5203 76.5282H60.3963V72.4922H61.8239V75.3862H68.5203V76.5282ZM69.7272 79.0329H59.0077V77.8908H69.7272V79.0329ZM68.5981 83.5231H60.2925V80.0711H61.733V82.3551H68.5981V83.5231ZM82.8648 83.8086H81.4113V72.0639H82.8648V83.8086ZM76.5447 72.9204C77.133 72.9204 77.6565 73.0913 78.115 73.4331C78.5779 73.7705 78.9412 74.2528 79.2051 74.8801C79.469 75.503 79.6031 76.2297 79.6074 77.0603C79.6031 77.8952 79.469 78.6262 79.2051 79.2535C78.9456 79.8807 78.5843 80.3652 78.1215 80.707C77.6586 81.0444 77.133 81.2131 76.5447 81.2131C75.9521 81.2131 75.4243 81.0444 74.9614 80.707C74.4986 80.3652 74.1352 79.8807 73.8713 79.2535C73.6118 78.6262 73.482 77.8952 73.482 77.0603C73.482 76.2297 73.6118 75.503 73.8713 74.8801C74.1352 74.2528 74.4986 73.7705 74.9614 73.4331C75.4243 73.0913 75.9521 72.9204 76.5447 72.9204ZM76.5447 74.2182C76.2116 74.2182 75.9175 74.3307 75.6622 74.5556C75.4113 74.7806 75.2167 75.1072 75.0782 75.5354C74.9398 75.9637 74.8706 76.472 74.8706 77.0603C74.8706 77.6529 74.9398 78.1634 75.0782 78.5916C75.2167 79.0199 75.4113 79.3487 75.6622 79.5779C75.9175 79.8029 76.2116 79.9153 76.5447 79.9153C76.8735 79.9153 77.1633 79.8029 77.4142 79.5779C77.6651 79.3487 77.8598 79.0199 77.9982 78.5916C78.1366 78.1634 78.2058 77.6529 78.2058 77.0603C78.2058 76.472 78.1366 75.9658 77.9982 75.5419C77.8598 75.1137 77.6651 74.7871 77.4142 74.5621C77.1633 74.3328 76.8735 74.2182 76.5447 74.2182ZM94.3456 79.0199H92.9699V76.1519H91.7501V78.929H90.4004V72.2975H91.7501V74.9839H92.9699V72.0769H94.3456V79.0199ZM88.6744 79.7726C88.6657 80.2744 88.7804 80.7546 89.0183 81.2131C89.2562 81.6673 89.6153 82.048 90.0954 82.3551C90.5713 82.0307 90.9325 81.6349 91.179 81.1677C91.4299 80.7005 91.5597 80.2355 91.5684 79.7726V79.4092H92.9959V79.7726C92.9959 80.1835 93.0803 80.5729 93.249 80.9406C93.4177 81.3083 93.6707 81.6349 94.0082 81.9204C94.3499 82.2016 94.7695 82.4157 95.267 82.5628L94.5662 83.6399C94.0082 83.4539 93.5366 83.1835 93.1516 82.8288C92.7666 82.4741 92.4703 82.0545 92.2627 81.57C92.068 82.0545 91.7912 82.4849 91.4321 82.8612C91.0731 83.2376 90.634 83.5274 90.1149 83.7307C89.5871 83.5404 89.1437 83.2657 88.7847 82.9067C88.4256 82.5476 88.1488 82.128 87.9541 81.6478C87.7335 82.1064 87.435 82.5065 87.0587 82.8483C86.6823 83.1943 86.2303 83.4582 85.7025 83.6399L84.9888 82.5757C85.4776 82.407 85.8929 82.1778 86.2346 81.8879C86.5763 81.5938 86.8316 81.2672 87.0003 80.9081C87.1733 80.5448 87.2598 80.1749 87.2598 79.7985V79.4092H88.6744V79.7726ZM89.2584 76.2038H86.2086V77.4237C86.9484 77.415 87.5908 77.389 88.1358 77.3458C88.6852 77.3025 89.2411 77.2247 89.8034 77.1122L89.9332 78.2542C89.3362 78.3667 88.7501 78.4424 88.1747 78.4813C87.5994 78.5203 86.9224 78.5397 86.1438 78.5397H85.6117H84.8071V75.1396H87.8698V73.9716H84.7941V72.8426H89.2584V76.2038ZM105.022 76.5282H96.8978V72.4922H98.3253V75.3862H105.022V76.5282ZM106.229 79.0329H95.5092V77.8908H106.229V79.0329ZM105.1 83.5231H96.794V80.0711H98.2345V82.3551H105.1V83.5231ZM116.853 83.7956H115.451V72.0639H116.853V83.7956ZM114.387 83.2246H113.038V77.5924H110.779V76.4114H113.038V72.2975H114.387V83.2246ZM111.584 74.5946H108.534V79.9024C109.283 79.8937 109.921 79.8678 110.449 79.8245C110.981 79.7812 111.519 79.7034 112.064 79.5909L112.181 80.7719C111.558 80.9016 110.933 80.9882 110.306 81.0314C109.683 81.0747 108.885 81.1006 107.911 81.1093H107.12V73.4396H111.584V74.5946ZM47.3236 101.368H36.6042V100.187H39.0829V97.2218C38.607 96.9449 38.2372 96.601 37.9733 96.1901C37.7137 95.7791 37.5861 95.3162 37.5905 94.8015C37.5861 94.1915 37.77 93.6508 38.142 93.1793C38.514 92.7078 39.031 92.3444 39.6928 92.0892C40.3547 91.8296 41.103 91.6998 41.9379 91.6998C42.7772 91.6998 43.5277 91.8296 44.1895 92.0892C44.8557 92.3444 45.3748 92.7078 45.7468 93.1793C46.1232 93.6465 46.3114 94.1872 46.3114 94.8015C46.3114 95.3033 46.1838 95.7596 45.9285 96.1706C45.6776 96.5772 45.3208 96.9168 44.8579 97.1893V100.187H47.3236V101.368ZM41.9379 92.8419C41.3539 92.8419 40.8392 92.9219 40.3936 93.0819C39.9524 93.2377 39.6085 93.4626 39.3619 93.7568C39.1196 94.0509 39.0007 94.3992 39.005 94.8015C39.0007 95.1994 39.1196 95.5455 39.3619 95.8397C39.6085 96.1338 39.9545 96.3609 40.4001 96.521C40.8457 96.681 41.3583 96.7611 41.9379 96.7611C42.5176 96.7611 43.0302 96.681 43.4758 96.521C43.9257 96.3609 44.2739 96.1338 44.5205 95.8397C44.7714 95.5455 44.8968 95.1994 44.8968 94.8015C44.8968 94.4035 44.7714 94.0574 44.5205 93.7633C44.2739 93.4648 43.9278 93.2377 43.4823 93.0819C43.0367 92.9219 42.5219 92.8419 41.9379 92.8419ZM43.3914 100.187V97.7409C42.9329 97.8404 42.4484 97.8901 41.9379 97.8901C41.4491 97.8901 40.9733 97.8425 40.5104 97.7474V100.187H43.3914ZM57.5456 92.6991H54.152C54.2169 93.0322 54.4137 93.3458 54.7424 93.64C55.0712 93.9341 55.5146 94.1829 56.0726 94.3862C56.6307 94.5895 57.2731 94.7236 57.9998 94.7885L57.4937 95.9175C56.4425 95.8137 55.5362 95.565 54.7749 95.1713C54.0135 94.7733 53.4706 94.2759 53.1462 93.6789C52.8304 94.2802 52.294 94.7777 51.537 95.1713C50.7843 95.565 49.8802 95.8137 48.8247 95.9175L48.3315 94.7885C49.0453 94.7236 49.6769 94.5895 50.2263 94.3862C50.78 94.1829 51.2212 93.9341 51.55 93.64C51.8787 93.3458 52.0777 93.0322 52.1469 92.6991H48.7858V91.5571H57.5456V92.6991ZM57.2082 102.653H49.0713V98.6039H57.2082V102.653ZM50.4988 101.485H55.8066V99.7459H50.4988V101.485ZM58.5059 97.5916H47.8124V96.4626H58.5059V97.5916ZM64.5448 91.9594C65.0596 91.9594 65.5116 92.1281 65.901 92.4655C66.2903 92.8029 66.5909 93.2874 66.8029 93.919C67.0149 94.5462 67.123 95.286 67.1273 96.1381C67.123 96.9903 67.0127 97.7344 66.7964 98.3703C66.5844 99.0019 66.2838 99.4885 65.8945 99.8303C65.5095 100.168 65.0596 100.334 64.5448 100.33C64.0387 100.334 63.5931 100.168 63.2081 99.8303C62.8274 99.4885 62.5333 99.0019 62.3257 98.3703C62.118 97.7344 62.0142 96.9903 62.0142 96.1381C62.0142 95.286 62.118 94.5462 62.3257 93.919C62.5333 93.2874 62.8274 92.8029 63.2081 92.4655C63.5931 92.1281 64.0387 91.9594 64.5448 91.9594ZM64.5448 93.322C64.2982 93.3177 64.0841 93.4237 63.9024 93.64C63.7207 93.8563 63.5823 94.1764 63.4871 94.6003C63.392 95.0242 63.3466 95.5369 63.3509 96.1381C63.3466 96.7394 63.392 97.2521 63.4871 97.676C63.5823 98.0999 63.7207 98.42 63.9024 98.6363C64.0841 98.8526 64.2982 98.9586 64.5448 98.9543C64.9385 98.9629 65.2434 98.7228 65.4597 98.234C65.6803 97.7452 65.7907 97.0466 65.7907 96.1381C65.7907 95.2297 65.6803 94.5311 65.4597 94.0423C65.2434 93.5535 64.9385 93.3134 64.5448 93.322ZM72.0199 102.796H70.6313V96.787H69.3854V102.225H68.0228V91.2716H69.3854V95.5931H70.6313V91.0639H72.0199V102.796ZM83.8121 96.9038H73.1057V95.7618H83.8121V96.9038ZM82.5403 95.0091H74.4683V91.3624H82.4365V92.5174H75.9088V93.8671H82.5403V95.0091ZM82.4625 100.654H75.792V101.55H82.7869V102.679H74.3775V99.6161H81.0479V98.7985H74.3645V97.7084H82.4625V100.654ZM95.0074 98.2794H84.3139V97.1244H95.0074V98.2794ZM93.8005 102.562H85.6376V99.1489H87.0781V101.394H93.8005V102.562ZM89.6477 91.4403C90.4956 91.4403 91.2374 91.5354 91.8733 91.7258C92.5092 91.9161 93.0002 92.1908 93.3463 92.5499C93.6967 92.9046 93.874 93.3263 93.8784 93.8152C93.874 94.3083 93.6967 94.7366 93.3463 95.0999C93.0002 95.459 92.5092 95.7358 91.8733 95.9305C91.2374 96.1208 90.4956 96.216 89.6477 96.216C88.7998 96.216 88.0558 96.1208 87.4156 95.9305C86.7797 95.7358 86.2865 95.459 85.9361 95.0999C85.5901 94.7366 85.417 94.3083 85.417 93.8152C85.417 93.3263 85.5901 92.9046 85.9361 92.5499C86.2865 92.1908 86.7797 91.9161 87.4156 91.7258C88.0558 91.5354 88.7998 91.4403 89.6477 91.4403ZM89.6477 92.5953C88.7912 92.5953 88.1207 92.7034 87.6362 92.9197C87.156 93.1317 86.9181 93.4302 86.9224 93.8152C86.9181 94.0747 87.0241 94.2975 87.2404 94.4835C87.461 94.6695 87.7746 94.8101 88.1812 94.9053C88.5922 94.9961 89.081 95.0394 89.6477 95.0351C90.5085 95.0437 91.179 94.9421 91.6592 94.7301C92.1437 94.5138 92.386 94.2088 92.386 93.8152C92.386 93.4258 92.1437 93.1252 91.6592 92.9132C91.179 92.7013 90.5085 92.5953 89.6477 92.5953ZM101.604 91.9204C102.132 91.9204 102.608 92.061 103.032 92.3422C103.456 92.6234 103.802 93.0257 104.07 93.5491C104.338 94.0682 104.505 94.6803 104.57 95.3855H106.808V91.0639H108.236V102.809H106.808V96.5534H104.589C104.537 97.2975 104.379 97.9464 104.115 98.5001C103.852 99.0494 103.503 99.4734 103.071 99.7719C102.638 100.066 102.149 100.213 101.604 100.213C101.016 100.213 100.495 100.044 100.041 99.707C99.5863 99.3696 99.2316 98.8872 98.9764 98.26C98.7212 97.6327 98.5935 96.8995 98.5935 96.0603C98.5935 95.2297 98.7212 94.503 98.9764 93.8801C99.2316 93.2528 99.5863 92.7705 100.041 92.4331C100.499 92.0913 101.02 91.9204 101.604 91.9204ZM101.604 93.2182C101.28 93.2182 100.994 93.3328 100.748 93.5621C100.501 93.7871 100.311 94.1137 100.177 94.5419C100.043 94.9658 99.9778 95.472 99.9821 96.0603C99.9778 96.6529 100.043 97.1634 100.177 97.5916C100.311 98.0199 100.501 98.3487 100.748 98.5779C100.994 98.8029 101.28 98.9153 101.604 98.9153C101.929 98.9153 102.212 98.8029 102.454 98.5779C102.701 98.3487 102.891 98.0199 103.025 97.5916C103.164 97.1634 103.235 96.6529 103.24 96.0603C103.235 95.472 103.164 94.9637 103.025 94.5354C102.891 94.1072 102.701 93.7806 102.454 93.5556C102.212 93.3307 101.929 93.2182 101.604 93.2182ZM119.652 102.796H118.185V96.3198H116.576V95.1519H118.185V91.0639H119.652V102.796ZM113.293 93.309H112.514V94.2953C112.514 95.1172 112.583 95.8959 112.722 96.6313C112.865 97.3667 113.124 98.0177 113.5 98.5844C113.868 98.0264 114.121 97.3818 114.26 96.6508C114.402 95.9154 114.478 95.1302 114.487 94.2953V93.309H113.708V92.1411H117.017V93.309H115.862V94.2953C115.862 95.4114 115.986 96.4085 116.232 97.2867C116.479 98.1648 116.935 98.8505 117.601 99.3436L116.693 100.369C115.966 99.8151 115.449 98.9413 115.142 97.7474C114.805 99.0062 114.257 99.9189 113.5 100.486C112.739 99.9189 112.192 99.0062 111.859 97.7474C111.547 98.9456 111.035 99.8194 110.321 100.369L109.412 99.3436C110.079 98.8505 110.535 98.1626 110.782 97.2802C111.028 96.3934 111.151 95.3984 111.151 94.2953V93.309H109.841V92.1411H113.293V93.309ZM130.198 92.8289C130.198 93.5772 130.181 94.2413 130.146 94.8209C130.112 95.3963 130.025 96.0516 129.887 96.787H131.509V97.955H126.85V102.809H125.396V97.955H120.815V96.787H128.42C128.563 96.0776 128.654 95.433 128.693 94.8534C128.736 94.2737 128.758 93.6378 128.758 92.9457H122.074V91.7777H130.198V92.8289ZM144.737 102.809H143.297V96.3977H141.039V95.2167H143.297V91.0639H144.737V102.809ZM139.209 94.1785C139.209 94.862 139.328 95.5369 139.566 96.203C139.804 96.8692 140.148 97.4662 140.598 97.9939C141.047 98.5174 141.579 98.911 142.194 99.1749L141.337 100.33C140.671 100.014 140.096 99.5512 139.611 98.9413C139.127 98.3314 138.753 97.6262 138.489 96.826C138.22 97.6738 137.84 98.4244 137.347 99.0776C136.858 99.7308 136.28 100.226 135.614 100.563L134.745 99.4344C135.355 99.1489 135.885 98.7315 136.334 98.1821C136.789 97.6284 137.135 97.0033 137.373 96.3069C137.615 95.6104 137.738 94.901 137.742 94.1785V93.3999H135.225V92.2189H141.727V93.3999H139.209V94.1785ZM156.153 102.796H154.687V96.3198H153.078V95.1519H154.687V91.0639H156.153V102.796ZM149.794 93.309H149.016V94.2953C149.016 95.1172 149.085 95.8959 149.223 96.6313C149.366 97.3667 149.626 98.0177 150.002 98.5844C150.37 98.0264 150.623 97.3818 150.761 96.6508C150.904 95.9154 150.98 95.1302 150.988 94.2953V93.309H150.21V92.1411H153.519V93.309H152.364V94.2953C152.364 95.4114 152.487 96.4085 152.734 97.2867C152.98 98.1648 153.437 98.8505 154.103 99.3436L153.194 100.369C152.468 99.8151 151.951 98.9413 151.644 97.7474C151.306 99.0062 150.759 99.9189 150.002 100.486C149.241 99.9189 148.693 99.0062 148.36 97.7474C148.049 98.9456 147.536 99.8194 146.822 100.369L145.914 99.3436C146.58 98.8505 147.037 98.1626 147.283 97.2802C147.53 96.3934 147.653 95.3984 147.653 94.2953V93.309H146.342V92.1411H149.794V93.309ZM166.7 92.8289C166.7 93.5772 166.682 94.2413 166.648 94.8209C166.613 95.3963 166.527 96.0516 166.388 96.787H168.01V97.955H163.351V102.809H161.898V97.955H157.317V96.787H164.922C165.064 96.0776 165.155 95.433 165.194 94.8534C165.238 94.2737 165.259 93.6378 165.259 92.9457H158.576V91.7777H166.7V92.8289ZM169.953 101.744C169.771 101.744 169.602 101.699 169.447 101.608C169.291 101.517 169.168 101.394 169.077 101.238C168.986 101.083 168.94 100.914 168.94 100.732C168.94 100.555 168.986 100.39 169.077 100.239C169.168 100.083 169.291 99.96 169.447 99.8692C169.602 99.7783 169.771 99.7329 169.953 99.7329C170.126 99.7329 170.288 99.7783 170.439 99.8692C170.595 99.96 170.718 100.083 170.809 100.239C170.904 100.39 170.952 100.555 170.952 100.732C170.952 100.914 170.904 101.083 170.809 101.238C170.718 101.394 170.595 101.517 170.439 101.608C170.288 101.699 170.126 101.744 169.953 101.744ZM173.297 101.744C173.115 101.744 172.946 101.699 172.79 101.608C172.635 101.517 172.511 101.394 172.421 101.238C172.33 101.083 172.284 100.914 172.284 100.732C172.284 100.555 172.33 100.39 172.421 100.239C172.511 100.083 172.635 99.96 172.79 99.8692C172.946 99.7783 173.115 99.7329 173.297 99.7329C173.47 99.7329 173.632 99.7783 173.783 99.8692C173.939 99.96 174.062 100.083 174.153 100.239C174.248 100.39 174.296 100.555 174.296 100.732C174.296 100.914 174.248 101.083 174.153 101.238C174.062 101.394 173.939 101.517 173.783 101.608C173.632 101.699 173.47 101.744 173.297 101.744Z" fill="#353538"/>
<path d="M48.3942 126.439L48.3942 116.17L61.2305 116.17L48.3942 126.439Z" fill="black" fill-opacity="0.08"/>
<rect x="181.273" y="101.037" width="104.377" height="30.9811" rx="15.283" fill="#575160"/>
<path d="M192.856 120.607C192.717 120.607 192.587 120.573 192.468 120.503C192.348 120.433 192.254 120.339 192.184 120.219C192.115 120.1 192.08 119.971 192.08 119.831C192.08 119.695 192.115 119.569 192.184 119.453C192.254 119.334 192.348 119.239 192.468 119.17C192.587 119.1 192.717 119.065 192.856 119.065C192.989 119.065 193.113 119.1 193.229 119.17C193.348 119.239 193.443 119.334 193.513 119.453C193.586 119.569 193.622 119.695 193.622 119.831C193.622 119.971 193.586 120.1 193.513 120.219C193.443 120.339 193.348 120.433 193.229 120.503C193.113 120.573 192.989 120.607 192.856 120.607ZM195.42 120.607C195.28 120.607 195.151 120.573 195.032 120.503C194.912 120.433 194.818 120.339 194.748 120.219C194.678 120.1 194.644 119.971 194.644 119.831C194.644 119.695 194.678 119.569 194.748 119.453C194.818 119.334 194.912 119.239 195.032 119.17C195.151 119.1 195.28 119.065 195.42 119.065C195.552 119.065 195.677 119.1 195.793 119.17C195.912 119.239 196.007 119.334 196.076 119.453C196.149 119.569 196.186 119.695 196.186 119.831C196.186 119.971 196.149 120.1 196.076 120.219C196.007 120.339 195.912 120.433 195.793 120.503C195.677 120.573 195.552 120.607 195.42 120.607ZM197.983 120.607C197.844 120.607 197.715 120.573 197.595 120.503C197.476 120.433 197.381 120.339 197.312 120.219C197.242 120.1 197.207 119.971 197.207 119.831C197.207 119.695 197.242 119.569 197.312 119.453C197.381 119.334 197.476 119.239 197.595 119.17C197.715 119.1 197.844 119.065 197.983 119.065C198.116 119.065 198.24 119.1 198.357 119.17C198.476 119.239 198.57 119.334 198.64 119.453C198.713 119.569 198.75 119.695 198.75 119.831C198.75 119.971 198.713 120.1 198.64 120.219C198.57 120.339 198.476 120.433 198.357 120.503C198.24 120.573 198.116 120.607 197.983 120.607ZM209.17 121.413H208.116V112.419H209.17V121.413ZM207.34 120.976H206.295V116.448H205.001V115.553H206.295V112.588H207.34V120.976ZM204.205 114.876C204.205 115.404 204.27 115.909 204.399 116.394C204.532 116.878 204.734 117.317 205.006 117.712C205.282 118.107 205.625 118.422 206.036 118.657L205.379 119.473C204.975 119.231 204.632 118.908 204.35 118.503C204.068 118.095 203.846 117.626 203.683 117.095C203.52 117.669 203.293 118.18 203.001 118.627C202.71 119.072 202.358 119.423 201.947 119.682L201.27 118.856C201.688 118.604 202.036 118.268 202.315 117.846C202.597 117.425 202.804 116.961 202.937 116.453C203.073 115.943 203.141 115.417 203.141 114.876V114.279H201.579V113.384H205.658V114.279H204.205V114.876ZM217.067 115.931H218.401V116.856H217.067V121.393H215.963V112.419H217.067V115.931ZM214.689 113.354C214.689 116.306 213.326 118.452 210.6 119.792L209.973 118.936C211.067 118.392 211.912 117.734 212.505 116.961C213.102 116.188 213.457 115.291 213.57 114.269H210.461V113.354H214.689ZM227.916 114.23H229.17V115.145H227.916V116.936H226.812V112.419H227.916V114.23ZM227.916 119.682H223.14V120.428H228.195V121.304H222.046V118.876H226.812V118.18H222.036V117.324H227.916V119.682ZM223.309 112.717C223.764 112.717 224.171 112.803 224.533 112.976C224.894 113.145 225.178 113.384 225.384 113.692C225.589 113.997 225.694 114.346 225.697 114.737C225.694 115.122 225.589 115.468 225.384 115.777C225.178 116.082 224.893 116.321 224.528 116.493C224.166 116.662 223.76 116.747 223.309 116.747C222.855 116.747 222.445 116.661 222.08 116.488C221.719 116.316 221.434 116.077 221.225 115.772C221.019 115.467 220.918 115.122 220.921 114.737C220.918 114.346 221.019 113.997 221.225 113.692C221.43 113.384 221.716 113.145 222.08 112.976C222.445 112.803 222.855 112.717 223.309 112.717ZM223.309 113.613C223.057 113.613 222.832 113.659 222.633 113.752C222.434 113.845 222.278 113.976 222.165 114.145C222.055 114.314 222.002 114.511 222.006 114.737C222.002 114.959 222.055 115.157 222.165 115.329C222.278 115.501 222.434 115.636 222.633 115.732C222.832 115.825 223.057 115.871 223.309 115.871C223.558 115.871 223.782 115.825 223.981 115.732C224.183 115.636 224.341 115.501 224.453 115.329C224.566 115.157 224.623 114.959 224.623 114.737C224.623 114.511 224.566 114.314 224.453 114.145C224.341 113.976 224.185 113.845 223.986 113.752C223.787 113.659 223.561 113.613 223.309 113.613ZM231.833 113.075C232.284 113.075 232.685 113.206 233.037 113.468C233.388 113.727 233.664 114.097 233.863 114.578C234.065 115.055 234.168 115.613 234.171 116.249C234.168 116.893 234.065 117.455 233.863 117.936C233.664 118.417 233.388 118.787 233.037 119.045C232.685 119.304 232.284 119.433 231.833 119.433C231.378 119.433 230.974 119.304 230.619 119.045C230.264 118.783 229.987 118.412 229.788 117.931C229.589 117.45 229.491 116.889 229.495 116.249C229.491 115.616 229.589 115.059 229.788 114.578C229.987 114.097 230.264 113.727 230.619 113.468C230.974 113.206 231.378 113.075 231.833 113.075ZM231.833 114.07C231.581 114.07 231.359 114.158 231.166 114.334C230.974 114.506 230.825 114.757 230.718 115.085C230.612 115.41 230.559 115.798 230.559 116.249C230.559 116.704 230.612 117.095 230.718 117.423C230.825 117.752 230.974 118.004 231.166 118.18C231.359 118.352 231.581 118.438 231.833 118.438C232.088 118.438 232.312 118.352 232.504 118.18C232.697 118.004 232.844 117.752 232.947 117.423C233.053 117.095 233.106 116.704 233.106 116.249C233.106 115.798 233.053 115.409 232.947 115.08C232.844 114.752 232.697 114.502 232.504 114.329C232.312 114.157 232.088 114.07 231.833 114.07ZM236.46 115.871H237.843V116.807H236.46V121.413H235.355V112.419H236.46V115.871ZM241.332 114.578C241.332 115.142 241.418 115.687 241.59 116.215C241.766 116.739 242.022 117.203 242.357 117.608C242.695 118.012 243.096 118.316 243.56 118.518L242.894 119.403C242.396 119.161 241.967 118.813 241.605 118.359C241.247 117.904 240.97 117.377 240.775 116.777C240.572 117.414 240.287 117.974 239.919 118.458C239.554 118.942 239.12 119.314 238.615 119.573L237.919 118.677C238.393 118.455 238.801 118.13 239.143 117.702C239.488 117.274 239.75 116.788 239.929 116.244C240.111 115.7 240.204 115.145 240.207 114.578V113.145H241.332V114.578ZM245.55 121.423H244.456V116.22H242.565V115.324H244.456V112.419H245.55V121.423ZM255.902 114.429H257.165V115.324H255.902V117.304H254.797V112.399H255.902V114.429ZM255.902 119.871H251.126V120.508H256.18V121.334H250.031V119.105H254.797V118.508H250.021V117.702H255.902V119.871ZM254.15 113.991H248.817V113.145H250.937V112.349H252.041V113.145H254.15V113.991ZM251.484 114.269C251.925 114.273 252.31 114.336 252.638 114.458C252.97 114.578 253.225 114.749 253.404 114.971C253.587 115.19 253.679 115.447 253.683 115.742C253.679 116.047 253.587 116.311 253.404 116.533C253.225 116.752 252.971 116.921 252.643 117.04C252.315 117.156 251.928 117.215 251.484 117.215C251.039 117.215 250.651 117.156 250.32 117.04C249.988 116.921 249.731 116.752 249.549 116.533C249.366 116.311 249.275 116.047 249.275 115.742C249.275 115.447 249.366 115.19 249.549 114.971C249.731 114.749 249.988 114.578 250.32 114.458C250.655 114.336 251.043 114.273 251.484 114.269ZM251.484 115.065C251.132 115.065 250.855 115.125 250.653 115.244C250.451 115.364 250.35 115.53 250.35 115.742C250.35 115.958 250.451 116.125 250.653 116.244C250.855 116.36 251.132 116.419 251.484 116.419C251.839 116.419 252.117 116.36 252.32 116.244C252.525 116.125 252.628 115.958 252.628 115.742C252.628 115.53 252.525 115.364 252.32 115.244C252.114 115.125 251.835 115.065 251.484 115.065ZM265.162 121.413H264.107V112.419H265.162V121.413ZM263.251 120.986H262.207V116.846H260.6C260.059 117.918 259.178 118.807 257.958 119.513L257.331 118.727C258.246 118.19 258.935 117.568 259.396 116.861C259.857 116.152 260.13 115.334 260.217 114.409H257.789V113.513H261.311C261.311 114.419 261.195 115.234 260.963 115.961H262.207V112.638H263.251V120.986ZM274.213 120.319H265.994V119.413H267.895V117.14C267.53 116.928 267.246 116.664 267.044 116.349C266.845 116.034 266.747 115.679 266.75 115.284C266.747 114.817 266.888 114.402 267.173 114.041C267.458 113.679 267.855 113.4 268.362 113.205C268.87 113.006 269.443 112.906 270.084 112.906C270.727 112.906 271.302 113.006 271.81 113.205C272.321 113.4 272.719 113.679 273.004 114.041C273.292 114.399 273.437 114.813 273.437 115.284C273.437 115.669 273.339 116.019 273.143 116.334C272.951 116.646 272.677 116.906 272.322 117.115V119.413H274.213V120.319ZM270.084 113.782C269.636 113.782 269.241 113.843 268.9 113.966C268.561 114.085 268.298 114.258 268.108 114.483C267.923 114.709 267.832 114.976 267.835 115.284C267.832 115.589 267.923 115.855 268.108 116.08C268.298 116.306 268.563 116.48 268.904 116.603C269.246 116.725 269.639 116.787 270.084 116.787C270.528 116.787 270.921 116.725 271.263 116.603C271.608 116.48 271.875 116.306 272.064 116.08C272.256 115.855 272.352 115.589 272.352 115.284C272.352 114.979 272.256 114.714 272.064 114.488C271.875 114.259 271.609 114.085 271.268 113.966C270.926 113.843 270.531 113.782 270.084 113.782ZM271.198 119.413V117.538C270.846 117.614 270.475 117.652 270.084 117.652C269.709 117.652 269.344 117.616 268.989 117.543V119.413H271.198Z" fill="white"/>
</g>
<defs>
<filter id="filter0_d_5603_167662" x="110.485" y="97.2909" width="221.881" height="244.297" filterUnits="userSpaceOnUse" color-interpolation-filters="sRGB">
<feFlood flood-opacity="0" result="BackgroundImageFix"/>
<feColorMatrix in="SourceAlpha" type="matrix" values="0 0 0 0 0 0 0 0 0 0 0 0 0 0 0 0 0 0 127 0" result="hardAlpha"/>
<feOffset dx="-11.6416" dy="2.32833"/>
<feGaussianBlur stdDeviation="21.537"/>
<feComposite in2="hardAlpha" operator="out"/>
<feColorMatrix type="matrix" values="0 0 0 0 0.960784 0 0 0 0 0.952941 0 0 0 0 0.470588 0 0 0 0.1 0"/>
<feBlend mode="lighten" in2="BackgroundImageFix" result="effect1_dropShadow_5603_167662"/>
<feBlend mode="normal" in="SourceGraphic" in2="effect1_dropShadow_5603_167662" result="shape"/>
</filter>
<clipPath id="clip0_5603_167662">
<rect width="315" height="222.453" rx="16.9811" fill="white"/>
</clipPath>
</defs>
</svg>
