<svg width="375" height="246" viewBox="0 0 375 246" fill="none" xmlns="http://www.w3.org/2000/svg">
<g clip-path="url(#clip0_5603_170040)">
<path d="M299.055 290.936L267.446 184.649L262.057 186.09L281.014 275.713C252.864 268.292 239.619 286.862 244.609 305.595L299.055 290.936Z" fill="white" stroke="#242427" stroke-width="2.21917" stroke-linecap="round" stroke-linejoin="round"/>
<path d="M304.538 288.955L279.08 181.648L284.474 180.215L312.585 266.897C333.296 246.433 354.019 255.814 358.97 274.436L304.538 288.955Z" fill="white" stroke="#242427" stroke-width="2.21917" stroke-linecap="round" stroke-linejoin="round"/>
<path fill-rule="evenodd" clip-rule="evenodd" d="M278.852 206.761C289.858 203.825 299.945 198.169 308.18 190.315C316.416 182.461 322.535 172.663 325.972 161.826C337.663 152.132 341.441 133.822 334.209 118.55C330.648 110.66 324.112 104.491 316.019 101.381C308.021 90.4914 296.942 82.2363 284.206 77.6764C271.469 73.1164 257.658 72.4598 244.545 75.7909C231.432 79.122 219.616 86.2887 210.616 96.3703C201.616 106.452 195.842 118.988 194.037 132.368C187.657 138.572 184.03 147.953 184.894 158.455C186.405 176.313 200.276 190.896 216.469 192.156C224.853 199.536 234.937 204.732 245.821 207.28C256.706 209.828 268.053 209.65 278.852 206.761Z" fill="#242427" stroke="#242427" stroke-width="2.21917" stroke-miterlimit="10"/>
<path d="M248.266 133.956C253.652 132.513 256.294 124.907 254.167 116.969C252.04 109.031 245.949 103.765 240.563 105.209C235.177 106.652 232.535 114.257 234.662 122.195C236.789 130.134 242.88 135.399 248.266 133.956Z" fill="white"/>
<path d="M267.77 128.726C273.156 127.283 275.798 119.678 273.671 111.74C271.543 103.801 265.453 98.5359 260.067 99.9791C254.681 101.422 252.039 109.028 254.166 116.966C256.293 124.904 262.383 130.17 267.77 128.726Z" fill="white"/>
<path d="M246.978 125.053C250.663 124.065 252.541 119.127 251.173 114.023C249.805 108.918 245.71 105.581 242.025 106.568C238.34 107.555 236.462 112.493 237.83 117.598C239.198 122.702 243.293 126.04 246.978 125.053Z" fill="#242427"/>
<path d="M243.509 118.094C245.222 117.635 246.096 115.343 245.462 112.975C244.827 110.607 242.924 109.059 241.211 109.518C239.498 109.977 238.624 112.269 239.258 114.637C239.893 117.006 241.796 118.553 243.509 118.094Z" fill="white"/>
<path d="M248.548 120.564C249.33 120.355 249.729 119.309 249.439 118.228C249.15 117.148 248.281 116.442 247.5 116.651C246.718 116.86 246.319 117.906 246.608 118.987C246.898 120.068 247.766 120.774 248.548 120.564Z" fill="white"/>
<path d="M264.443 120.373C268.128 119.386 270.006 114.448 268.638 109.343C267.27 104.239 263.175 100.901 259.49 101.889C255.805 102.876 253.927 107.814 255.295 112.919C256.663 118.023 260.758 121.361 264.443 120.373Z" fill="#242427"/>
<path d="M260.956 113.415C262.669 112.956 263.543 110.664 262.909 108.296C262.274 105.928 260.371 104.38 258.658 104.839C256.945 105.298 256.071 107.59 256.706 109.958C257.34 112.326 259.243 113.874 260.956 113.415Z" fill="white"/>
<path d="M265.995 115.895C266.777 115.685 267.176 114.639 266.887 113.559C266.597 112.478 265.729 111.772 264.947 111.981C264.165 112.191 263.766 113.236 264.056 114.317C264.345 115.398 265.214 116.104 265.995 115.895Z" fill="white"/>
<path d="M264.531 156.28C273.152 153.912 278.539 145.559 276.384 137.638C274.229 129.717 265.609 125.214 256.989 127.592C248.369 129.971 243.046 138.313 245.136 146.234C247.226 154.156 255.901 158.658 264.531 156.28Z" fill="white" stroke="#242427" stroke-width="2.21917" stroke-miterlimit="10"/>
<path d="M244.682 143.349C249.747 145.076 252.613 137.378 258.751 135.673C264.89 133.967 269.299 139.656 275.75 134.723" stroke="#242427" stroke-width="2.21917"/>
<path d="M258.341 144.826L252.451 140.246L265.766 136.944L263.128 143.633C262.219 146.06 260.479 146.482 258.341 144.826Z" fill="#242427" stroke="#242427" stroke-width="2.21917" stroke-linecap="round" stroke-linejoin="round"/>
<path d="M87.1138 271.203L97.1086 210.092L92.2903 209.066L77.6507 258.173C57.4114 245.602 40.5255 250.283 38.3008 260.869L87.1138 271.203Z" fill="white" stroke="#242427" stroke-width="2.21917" stroke-linecap="round" stroke-linejoin="round"/>
<path d="M92.6699 272.016L108.083 212.39L112.879 213.398L106.517 263.929C129.977 260.676 143.478 271.767 141.253 282.294L92.6699 272.016Z" fill="white" stroke="#242427" stroke-width="2.21917" stroke-linecap="round" stroke-linejoin="round"/>
<path fill-rule="evenodd" clip-rule="evenodd" d="M185.925 195.956C190.212 184.786 181.144 170.491 165.217 161.991C176.643 153.719 182.013 142.095 177.49 132.687C173.117 123.604 160.812 119.192 146.932 120.685C145.293 110.542 139.591 102.097 130.791 98.6256C120.341 94.4949 108.444 98.4634 99.8372 107.698C91.1663 101.859 81.102 99.8799 72.5061 103.275C62.0238 107.406 56.5362 118.414 57.2436 131.022C47.1364 132.925 38.8728 138.71 35.4752 147.523C30.6521 160.013 36.9864 174.708 50.0196 184.007C43.5888 190.744 41.0057 198.335 43.9853 204.552C47.6831 212.262 58.937 215.722 72.0667 214.198C73.4707 226.244 80.6947 236.852 91.9594 241.318C105.486 246.724 120.695 241.555 129.816 229.726C137.115 235.997 145.067 238.755 151.305 236.279C159.483 233.035 162.463 221.789 159.655 208.532C172.195 209.04 182.559 204.552 185.882 195.945L185.925 195.956Z" fill="#242427" stroke="#242427" stroke-width="2.21917" stroke-miterlimit="10" stroke-linecap="round"/>
<path d="M114.301 145.765C115.982 137.817 112.974 130.451 107.582 129.311C102.191 128.17 96.4579 133.689 94.7773 141.636C93.0967 149.584 96.105 156.951 101.496 158.091C106.888 159.231 112.621 153.712 114.301 145.765Z" fill="white"/>
<path d="M133.817 149.892C135.497 141.945 132.489 134.578 127.098 133.438C121.706 132.298 115.974 137.816 114.293 145.764C112.612 153.711 115.621 161.078 121.012 162.218C126.403 163.358 132.136 157.84 133.817 149.892Z" fill="white"/>
<path d="M112.246 145.331C113.326 140.225 111.209 135.452 107.518 134.672C103.826 133.891 99.9586 137.398 98.8789 142.504C97.7991 147.61 99.9162 152.382 103.608 153.163C107.299 153.943 111.167 150.437 112.246 145.331Z" fill="#242427"/>
<path d="M110.153 142.28C110.629 140.027 109.694 137.921 108.064 137.576C106.434 137.231 104.726 138.778 104.249 141.032C103.773 143.285 104.708 145.391 106.338 145.736C107.969 146.08 109.677 144.533 110.153 142.28Z" fill="white"/>
<path d="M104.256 147.878C104.48 146.819 104.043 145.829 103.28 145.668C102.518 145.506 101.718 146.235 101.494 147.294C101.27 148.354 101.706 149.344 102.469 149.505C103.232 149.666 104.032 148.938 104.256 147.878Z" fill="white"/>
<path d="M129.715 149.021C130.795 143.915 128.678 139.143 124.986 138.362C121.295 137.582 117.427 141.088 116.348 146.194C115.268 151.301 117.385 156.073 121.076 156.853C124.768 157.634 128.635 154.127 129.715 149.021Z" fill="#242427"/>
<path d="M127.635 145.971C128.112 143.718 127.177 141.612 125.546 141.267C123.916 140.923 122.208 142.47 121.732 144.723C121.255 146.976 122.191 149.082 123.821 149.427C125.451 149.772 127.159 148.225 127.635 145.971Z" fill="white"/>
<path d="M121.728 151.587C121.952 150.527 121.516 149.537 120.753 149.376C119.99 149.215 119.19 149.943 118.966 151.003C118.742 152.062 119.179 153.052 119.942 153.213C120.704 153.375 121.504 152.646 121.728 151.587Z" fill="white"/>
<path d="M106.925 179.736C115.38 181.606 123.339 177.867 124.66 171.4C125.981 164.934 120.179 158.203 111.702 156.301C103.226 154.398 95.2879 158.17 93.9668 164.637C92.6456 171.103 98.4482 177.9 106.925 179.736Z" fill="white" stroke="#242427" stroke-width="2.21917" stroke-miterlimit="10"/>
<path d="M93.7793 165.151C97.6182 169.203 103.679 163.504 110.03 164.914C116.381 166.325 117.87 173.683 125.957 172.272" stroke="#242427" stroke-width="2.21917"/>
<path d="M106.894 168.276L102.656 165.786L115.971 168.402L111.029 169.056C109.595 169.247 108.134 168.971 106.894 168.276Z" fill="#242427" stroke="#242427" stroke-width="2.21917" stroke-linecap="round" stroke-linejoin="round"/>
<path d="M299.055 290.936L267.446 184.649L262.057 186.09L281.014 275.713C252.864 268.292 239.619 286.862 244.609 305.595L299.055 290.936Z" fill="white" stroke="#242427" stroke-width="2.21917" stroke-linecap="round" stroke-linejoin="round"/>
<path d="M304.538 288.955L279.08 181.648L284.474 180.215L312.585 266.897C333.296 246.433 354.019 255.814 358.97 274.436L304.538 288.955Z" fill="white" stroke="#242427" stroke-width="2.21917" stroke-linecap="round" stroke-linejoin="round"/>
<path fill-rule="evenodd" clip-rule="evenodd" d="M278.852 206.761C289.858 203.825 299.945 198.169 308.18 190.315C316.416 182.461 322.535 172.663 325.972 161.826C337.663 152.132 341.441 133.822 334.209 118.55C330.648 110.66 324.112 104.491 316.019 101.381C308.021 90.4914 296.942 82.2363 284.206 77.6764C271.469 73.1164 257.658 72.4598 244.545 75.7909C231.432 79.122 219.616 86.2887 210.616 96.3703C201.616 106.452 195.842 118.988 194.037 132.368C187.657 138.572 184.03 147.953 184.894 158.455C186.405 176.313 200.276 190.896 216.469 192.156C224.853 199.536 234.937 204.732 245.821 207.28C256.706 209.828 268.053 209.65 278.852 206.761Z" fill="#242427" stroke="#242427" stroke-width="2.21917" stroke-miterlimit="10"/>
<path d="M248.266 133.956C253.652 132.513 256.294 124.907 254.167 116.969C252.04 109.031 245.949 103.765 240.563 105.209C235.177 106.652 232.535 114.257 234.662 122.195C236.789 130.134 242.88 135.399 248.266 133.956Z" fill="white"/>
<path d="M267.77 128.726C273.156 127.283 275.798 119.678 273.671 111.74C271.543 103.801 265.453 98.5359 260.067 99.9791C254.681 101.422 252.039 109.028 254.166 116.966C256.293 124.904 262.383 130.17 267.77 128.726Z" fill="white"/>
<path d="M246.978 125.053C250.663 124.065 252.541 119.127 251.173 114.023C249.805 108.918 245.71 105.581 242.025 106.568C238.34 107.555 236.462 112.493 237.83 117.598C239.198 122.702 243.293 126.04 246.978 125.053Z" fill="#242427"/>
<path d="M243.509 118.094C245.222 117.635 246.096 115.343 245.462 112.975C244.827 110.607 242.924 109.059 241.211 109.518C239.498 109.977 238.624 112.269 239.258 114.637C239.893 117.006 241.796 118.553 243.509 118.094Z" fill="white"/>
<path d="M248.548 120.564C249.33 120.355 249.729 119.309 249.439 118.228C249.15 117.148 248.281 116.442 247.5 116.651C246.718 116.86 246.319 117.906 246.608 118.987C246.898 120.068 247.766 120.774 248.548 120.564Z" fill="white"/>
<path d="M264.443 120.373C268.128 119.386 270.006 114.448 268.638 109.343C267.27 104.239 263.175 100.901 259.49 101.889C255.805 102.876 253.927 107.814 255.295 112.919C256.663 118.023 260.758 121.361 264.443 120.373Z" fill="#242427"/>
<path d="M260.956 113.415C262.669 112.956 263.543 110.664 262.909 108.296C262.274 105.928 260.371 104.38 258.658 104.839C256.945 105.298 256.071 107.59 256.706 109.958C257.34 112.326 259.243 113.874 260.956 113.415Z" fill="white"/>
<path d="M265.995 115.895C266.777 115.685 267.176 114.639 266.887 113.559C266.597 112.478 265.729 111.772 264.947 111.981C264.165 112.191 263.766 113.236 264.056 114.317C264.345 115.398 265.214 116.104 265.995 115.895Z" fill="white"/>
<path d="M264.531 156.28C273.152 153.912 278.539 145.559 276.384 137.638C274.229 129.717 265.609 125.214 256.989 127.592C248.369 129.971 243.046 138.313 245.136 146.234C247.226 154.156 255.901 158.658 264.531 156.28Z" fill="white" stroke="#242427" stroke-width="2.21917" stroke-miterlimit="10"/>
<path d="M244.682 143.349C249.747 145.076 252.613 137.378 258.751 135.673C264.89 133.967 269.299 139.656 275.75 134.723" stroke="#242427" stroke-width="2.21917"/>
<path d="M257.464 144.963L252.453 140.244L258.343 136.008L265.768 136.941L264.181 143.284C263.271 145.711 259.602 146.62 257.464 144.963Z" fill="#242427" stroke="#242427" stroke-width="2.21917" stroke-linecap="round" stroke-linejoin="round"/>
<path d="M235.468 229.732L229.303 232.705L229.2 224.612L235.366 221.639L235.468 229.732Z" fill="#EFEFEF" stroke="#242427" stroke-width="2.23881" stroke-linecap="round" stroke-linejoin="round"/>
<path d="M51.4876 90.4936L50.6191 97.2832L43.7788 92.9579L44.6473 86.1683L51.4876 90.4936Z" fill="white" stroke="#242427" stroke-width="2.23881" stroke-linecap="round" stroke-linejoin="round"/>
<path d="M332.806 197.686L337.12 194.957M337.12 194.957L338.518 200.058M337.12 194.957L342.686 195.26M337.12 194.957L339.22 190.304M337.12 194.957L333.429 191.751" stroke="#242427" stroke-width="2.23881" stroke-linecap="round" stroke-linejoin="round"/>
<path d="M308.179 67.835L312.493 65.1062M312.493 65.1062L313.891 70.2066M312.493 65.1062L318.06 65.4086M312.493 65.1062L314.593 60.4534M312.493 65.1062L308.802 61.8995" stroke="#242427" stroke-width="2.23881" stroke-linecap="round" stroke-linejoin="round"/>
<path d="M20.4937 119.327L24.8076 116.598M24.8076 116.598L26.2054 121.699M24.8076 116.598L30.374 116.901M24.8076 116.598L26.907 111.946M24.8076 116.598L21.1168 113.392" stroke="#242427" stroke-width="2.23881" stroke-linecap="round" stroke-linejoin="round"/>
</g>
<defs>
<clipPath id="clip0_5603_170040">
<rect width="375" height="246.269" fill="white"/>
</clipPath>
</defs>
</svg>
